<?xml version="1.0" encoding="utf-8"?>
<!-- Generator: Adobe Illustrator 24.0.3, SVG Export Plug-In . SVG Version: 6.00 Build 0)  -->
<svg version="1.1" id="Capa_1" xmlns="http://www.w3.org/2000/svg" xmlns:xlink="http://www.w3.org/1999/xlink" x="0px" y="0px"
	 viewBox="0 0 45 45" style="enable-background:new 0 0 45 45;" xml:space="preserve">
<style type="text/css">
	.st0{fill:#FFFFFF;}
</style>
<g>
	<path class="st0" d="M0,22.8c0,1.2,0.5,2.4,1.4,3.3l13,13c1,1,2.6,1,3.5,0c1-1,1-2.6,0-3.5L7.3,25h35.2c1.4,0,2.5-1.1,2.5-2.5
		c0,0,0,0,0,0c0-1.4-1.1-2.5-2.5-2.5H7.3L17.9,9.4c1-1,1-2.6,0-3.5c-1-1-2.6-1-3.5,0l-13,13C0.5,19.7,0,20.9,0,22.1
		C0,22.2,0,22.7,0,22.8z"/>
</g>
</svg>
