<?xml version="1.0" encoding="UTF-8" standalone="no"?>
<!DOCTYPE svg PUBLIC "-//W3C//DTD SVG 1.1//EN" "http://www.w3.org/Graphics/SVG/1.1/DTD/svg11.dtd">
<svg xmlns="http://www.w3.org/2000/svg" version="1.1" viewBox="0 0 413 365" width="413.0pt" height="365.0pt">
<path d="M 0.00 0.00 L 413.00 0.00 L 413.00 365.00 L 7.38 365.00 C 5.58 363.03 3.83 361.01 2.00 359.06 C 1.32 358.34 0.66 357.61 0.00 356.87 L 0.00 0.00 Z" fill="#fefefe" />
<path d="M 158.99 51.95 C 177.02 51.95 195.08 52.01 213.11 51.91 C 215.39 55.90 216.83 60.19 218.60 64.40 C 248.66 137.04 278.71 209.67 308.79 282.29 C 310.12 285.34 311.33 288.42 312.31 291.61 C 303.55 291.90 294.77 291.65 286.00 291.73 C 261.34 291.65 236.66 291.90 212.01 291.61 C 211.73 275.42 211.98 259.20 211.90 243.00 C 211.80 237.67 212.36 231.96 211.24 226.74 C 209.67 220.98 205.80 215.40 200.26 212.84 C 196.31 211.03 191.74 209.20 187.36 210.38 C 182.88 211.51 178.18 213.57 174.95 216.95 C 170.86 221.28 168.92 227.09 169.00 232.99 C 168.98 252.53 169.04 272.07 168.99 291.60 C 162.99 291.87 157.00 291.70 151.00 291.73 C 115.00 291.73 79.00 291.73 43.00 291.73 C 37.00 291.70 31.01 291.86 25.01 291.61 C 24.96 258.41 25.04 225.20 24.97 192.00 C 25.07 183.47 26.58 175.36 28.07 167.01 C 33.46 140.69 45.88 115.93 64.32 96.34 C 85.32 73.81 113.78 58.12 144.29 53.34 C 149.20 52.96 154.08 52.23 158.99 51.95 Z" fill="#dee4de" />
<path d="M 219.01 52.56 C 223.88 52.54 228.75 52.56 233.62 52.52 C 258.88 113.23 283.88 174.11 309.16 234.81 C 336.95 234.77 364.75 234.85 392.54 234.77 C 392.63 253.55 392.59 272.34 392.57 291.13 C 367.63 291.14 342.70 291.15 317.77 291.12 C 284.79 211.63 251.93 132.08 219.01 52.56 Z" fill="#004980" />
<path d="M 161.44 66.54 C 175.22 66.34 189.01 66.53 202.78 66.44 C 205.07 72.90 208.01 79.11 210.52 85.49 C 236.95 149.35 263.45 213.25 289.80 277.13 C 268.69 277.19 247.59 277.14 226.49 277.16 C 226.43 264.44 226.47 251.72 226.46 239.00 C 226.42 232.84 226.82 227.12 224.78 221.19 C 221.24 209.82 212.25 200.70 200.77 197.37 C 188.82 193.67 175.39 196.78 166.20 205.21 C 158.91 211.69 154.65 221.26 154.56 231.00 C 154.45 246.39 154.58 261.79 154.50 277.19 C 116.15 277.08 77.80 277.24 39.45 277.11 C 39.35 251.41 39.44 225.70 39.40 200.00 C 39.40 180.62 42.86 161.45 50.64 143.64 C 60.93 119.33 79.05 98.37 101.51 84.50 C 119.51 73.38 140.24 66.89 161.44 66.54 Z" fill="#1f1f1f" />
<path d="M 164.00 71.70 C 173.95 71.69 183.90 71.64 193.85 71.73 C 221.48 138.35 249.19 205.06 276.60 271.77 C 261.61 271.85 246.61 271.83 231.62 271.78 C 231.47 258.17 231.65 244.56 231.54 230.96 C 231.31 218.70 225.43 206.76 215.69 199.28 C 207.06 192.36 195.87 189.70 184.96 191.05 C 170.45 192.71 157.77 202.86 152.30 216.30 C 149.50 222.64 149.18 229.18 149.25 236.00 C 149.26 247.91 149.31 259.83 149.23 271.74 C 114.34 271.88 79.43 271.81 44.54 271.78 C 44.43 249.52 44.54 227.26 44.48 205.00 C 44.48 197.04 44.72 188.91 45.83 181.03 C 50.27 145.34 69.81 111.93 99.75 91.74 C 118.55 78.81 141.13 71.46 164.00 71.70 Z" fill="#004980" />
<path d="M 341.30 175.22 C 345.21 174.58 349.27 174.79 353.09 175.81 C 364.84 178.79 373.70 189.81 373.66 202.00 C 374.34 215.01 364.64 227.24 351.96 229.84 C 346.53 230.17 339.85 230.81 334.88 228.27 C 326.68 224.63 320.38 217.07 318.62 208.22 C 316.93 201.91 318.50 195.93 321.05 190.13 C 324.87 182.15 332.67 176.73 341.30 175.22 Z" fill="#dee4de" />
<path d="M 0.00 356.87 C 0.66 357.61 1.32 358.34 2.00 359.06 C 3.83 361.01 5.58 363.03 7.38 365.00 L 1.87 365.00 C 1.81 363.81 1.19 363.17 0.00 363.09 L 0.00 356.87 Z" fill="#dee4de" />
<path d="M 0.00 363.09 C 1.19 363.17 1.81 363.81 1.87 365.00 L 0.00 365.00 L 0.00 363.09 Z" fill="#fefefe" />
</svg>