<?xml version="1.0" encoding="UTF-8" standalone="no"?>
<!DOCTYPE svg PUBLIC "-//W3C//DTD SVG 1.1//EN" "http://www.w3.org/Graphics/SVG/1.1/DTD/svg11.dtd">
<svg xmlns="http://www.w3.org/2000/svg" version="1.1" viewBox="0 0 191 187" width="191.0pt" height="187.0pt">
<path d="M 0.00 0.00 L 191.00 0.00 L 191.00 187.00 L 0.00 187.00 L 0.00 0.00 Z" fill="#fefefe" />
<path d="M 87.48 17.60 C 99.45 15.91 112.03 16.70 123.56 20.44 C 138.15 25.09 151.19 34.28 160.23 46.67 C 167.80 56.89 172.50 69.34 173.57 82.01 C 175.16 98.76 170.80 115.66 161.85 129.85 C 147.18 153.30 120.70 168.59 93.00 169.21 C 76.48 169.77 59.93 165.16 46.40 155.61 C 34.54 147.30 25.28 135.42 20.35 121.78 C 14.76 106.51 14.73 89.16 19.86 73.76 C 29.39 44.13 56.76 21.83 87.48 17.60 Z" fill="#ec1c26" />
</svg>