<?xml version="1.0" encoding="UTF-8" standalone="no"?>
<!DOCTYPE svg PUBLIC "-//W3C//DTD SVG 1.1//EN" "http://www.w3.org/Graphics/SVG/1.1/DTD/svg11.dtd">
<svg xmlns="http://www.w3.org/2000/svg" version="1.1" viewBox="0 0 371 390" width="371.0pt" height="390.0pt">
<path d="M 0.00 0.00 L 371.00 0.00 L 371.00 390.00 L 0.00 390.00 L 0.00 0.00 Z" fill="#fefefe" />
<path d="M 144.81 21.92 C 141.24 29.61 137.47 37.21 133.98 44.93 C 141.21 45.30 148.47 45.00 155.70 45.10 C 160.16 50.41 164.77 55.61 169.31 60.85 C 206.49 70.74 243.65 81.05 280.82 91.04 C 280.91 107.44 280.77 123.84 280.89 140.25 C 296.23 132.30 311.40 123.99 326.69 115.92 C 319.96 149.10 313.20 182.30 306.25 215.43 C 321.75 221.29 337.48 226.86 352.85 233.02 C 352.78 266.99 352.77 300.96 352.86 334.92 C 336.00 345.12 318.89 355.16 301.93 365.19 C 286.34 365.51 270.49 365.26 254.87 365.32 C 254.91 356.34 254.81 347.35 254.93 338.37 C 239.86 343.16 224.81 348.08 209.85 353.17 C 198.92 346.85 187.98 340.51 177.13 334.04 C 177.17 331.70 177.18 329.36 177.18 327.01 C 146.17 326.80 115.12 327.01 84.10 326.91 C 84.07 303.94 84.07 280.97 84.10 258.00 C 83.92 255.77 84.77 253.79 82.76 252.23 C 63.57 234.51 44.19 216.70 25.05 198.94 C 23.85 197.99 24.33 196.34 24.21 195.00 C 24.29 166.77 24.17 138.54 24.27 110.31 C 34.90 100.58 45.63 90.92 56.18 81.12 C 56.14 69.12 56.13 57.12 56.19 45.12 C 85.70 37.59 115.28 29.30 144.81 21.92 Z" fill="#1a1a1a" />
<path d="M 234.99 227.16 C 254.33 227.18 273.67 227.19 293.00 227.16 C 295.28 227.21 297.94 226.92 300.10 227.72 C 313.03 232.63 326.01 237.38 338.95 242.29 C 339.36 247.84 339.03 253.43 339.16 259.00 C 338.92 260.42 339.73 262.24 337.91 262.70 C 325.60 267.12 313.20 271.39 300.87 275.79 C 297.61 277.27 293.59 276.57 290.00 276.71 C 282.87 276.50 275.57 277.14 268.50 276.38 C 268.72 266.64 268.55 256.88 268.59 247.13 C 266.49 247.80 264.46 248.58 262.45 249.46 C 247.34 255.70 232.23 261.95 217.15 268.26 C 215.12 269.07 213.11 270.14 210.98 270.67 C 204.29 267.93 197.77 264.50 191.08 261.73 C 190.74 255.33 190.76 248.66 191.07 242.27 C 204.39 237.48 217.63 232.67 230.93 227.82 C 232.26 227.32 233.58 227.16 234.99 227.16 Z" fill="#b99755" />
<path d="M 271.87 229.61 C 278.24 229.44 284.62 229.61 291.00 229.52 C 293.49 229.45 295.74 229.67 298.15 230.30 C 292.52 232.93 286.82 235.47 281.06 237.79 C 288.97 236.77 296.70 233.87 304.57 232.62 C 314.06 235.59 323.43 239.19 332.90 242.29 C 333.23 248.19 333.01 254.12 333.04 260.02 C 328.84 261.74 324.42 262.77 320.12 264.24 C 312.27 266.58 304.49 269.33 296.59 271.47 C 288.47 271.83 280.25 271.45 272.11 271.66 C 271.50 257.70 272.04 243.60 271.87 229.61 Z" fill="#1a1a1a" />
<path d="M 194.94 244.00 C 207.23 244.46 219.49 245.88 231.77 246.49 C 219.79 250.00 207.45 252.40 195.37 255.59 C 195.25 251.72 195.01 247.87 194.94 244.00 Z" fill="#1a1a1a" />
<path d="M 258.33 244.49 C 243.04 251.08 227.69 257.76 212.44 264.44 C 210.25 265.53 208.45 264.30 206.38 263.57 C 202.32 261.83 198.09 260.67 194.14 258.66 C 212.37 254.39 230.74 250.44 249.00 246.24 C 252.22 245.50 255.05 244.38 258.33 244.49 Z" fill="#1a1a1a" />
<path d="M 263.10 255.07 C 263.27 276.38 263.11 297.70 263.18 319.02 C 263.11 321.15 263.07 321.38 261.01 321.92 C 244.33 327.16 227.79 332.94 211.07 338.05 C 204.42 334.26 197.94 330.16 191.16 326.61 C 190.57 321.79 191.00 316.86 190.88 312.00 C 190.99 297.28 190.66 282.53 191.05 267.82 C 197.91 270.05 204.23 274.01 210.99 276.53 C 228.40 269.51 245.67 262.03 263.10 255.07 Z" fill="#b99755" />
<path d="M 193.99 271.87 C 199.41 274.39 204.61 277.41 209.97 280.08 C 210.09 295.38 209.96 310.69 210.04 326.00 C 210.08 328.18 209.88 330.30 209.52 332.44 C 206.62 319.89 203.05 307.49 199.83 295.02 C 197.95 287.32 195.42 279.66 193.99 271.87 Z" fill="#1a1a1a" />
<path d="M 337.12 273.40 C 337.49 290.29 337.13 307.24 337.30 324.13 C 327.92 329.88 318.49 335.63 308.93 341.08 C 317.79 319.27 326.81 297.51 335.56 275.65 C 336.00 274.82 336.52 274.07 337.12 273.40 Z" fill="#b99755" />
<path d="M 237.50 276.43 L 237.94 275.64 C 240.90 274.69 241.38 280.76 238.98 281.88 C 236.74 281.02 236.78 278.29 237.50 276.43 Z" fill="#1a1a1a" />
<path d="M 248.35 279.36 C 250.69 277.77 253.24 279.72 254.00 282.04 C 255.25 285.38 255.25 290.84 252.38 293.37 C 250.05 295.31 247.67 293.74 246.58 291.40 C 244.88 287.92 245.06 281.92 248.35 279.36 Z" fill="#1a1a1a" />
<path d="M 225.41 283.35 C 229.39 282.77 229.52 291.73 226.00 292.22 C 222.68 291.33 222.82 284.97 225.41 283.35 Z" fill="#1a1a1a" />
<path d="M 298.53 286.96 C 301.59 306.27 301.69 326.70 298.48 345.99 C 298.06 345.33 297.75 344.64 297.54 343.91 C 294.84 326.10 294.92 307.82 297.35 289.98 C 297.44 288.80 297.89 287.93 298.53 286.96 Z" fill="#b99755" />
<path d="M 231.28 302.26 C 232.82 300.23 235.22 302.34 235.82 304.06 C 236.75 306.97 236.54 312.01 232.99 313.02 C 228.95 312.17 228.66 304.63 231.28 302.26 Z" fill="#1a1a1a" />
<path d="M 253.09 309.23 C 255.93 308.35 255.71 317.06 252.26 314.74 C 251.22 313.43 251.19 309.64 253.09 309.23 Z" fill="#1a1a1a" />
<path d="M 219.40 316.41 C 221.45 316.17 222.59 318.24 222.85 320.00 C 223.51 322.57 223.11 326.18 220.68 327.73 C 217.12 328.48 216.67 324.53 216.36 321.98 C 216.57 320.22 217.21 316.70 219.40 316.41 Z" fill="#1a1a1a" />
</svg>