<?xml version="1.0" encoding="utf-8"?>
<!-- Generator: Adobe Illustrator 24.0.3, SVG Export Plug-In . SVG Version: 6.00 Build 0)  -->
<svg version="1.1" id="Layer_1" xmlns="http://www.w3.org/2000/svg" xmlns:xlink="http://www.w3.org/1999/xlink" x="0px" y="0px"
	 viewBox="0 0 414 385" style="enable-background:new 0 0 414 385;" xml:space="preserve">
<style type="text/css">
	.st0{fill:#1F61CC;}
	.st1{fill:#8F5C2C;}
</style>
<path class="st0" d="M210.9,20c21,39.9,41.6,80.1,62.4,120.1c3.9-6.1,7.5-12.5,11.4-18.6c36.3,76.8,72.2,153.9,108.5,230.7
	c-3.1,0.1-6.1,0.1-9.2,0.1c-120.9,0-241.8,0-362.7,0c4.4-9.6,9-18.9,13.7-28.3c39.9-79.9,79.9-159.8,119.7-239.7
	c2,5.6,4,11.2,5.9,16.8c6-11.8,12-23.6,17.9-35.5c2.6-4.9,4.8-10.1,7.8-14.9c1.2,4.9,2.2,9.9,3.8,14.7c2.2-3.7,3.8-7.7,5.5-11.7
	C200.8,42.5,205.8,31.2,210.9,20z"/>
<path class="st1" d="M217.6,222.4c4.1,1.7,6.2,4.9,9.3,7.8c2.1,1.8,2.3,4.4,2.8,7c0.4,5.1,0.3,10-4,13.4c-2.3,2.6-4.4,5.1-7.6,6.5
	c-10.7,5.5-26.1-0.2-28.9-12.3c-3.3-9.9,3.8-21.5,13.9-23.8C207.8,219.7,213.1,220.5,217.6,222.4z"/>
</svg>
