<?xml version="1.0" encoding="UTF-8" standalone="no"?>
<!DOCTYPE svg PUBLIC "-//W3C//DTD SVG 1.1//EN" "http://www.w3.org/Graphics/SVG/1.1/DTD/svg11.dtd">
<svg xmlns="http://www.w3.org/2000/svg" version="1.1" viewBox="0 0 365 373" width="365.0pt" height="373.0pt">
<path d="M 0.00 0.00 L 365.00 0.00 L 365.00 373.00 L 0.00 373.00 L 0.00 0.00 Z" fill="#fefefe" />
<path d="M 183.00 36.21 C 210.81 35.97 238.53 43.18 262.29 57.74 C 289.49 74.15 311.08 99.49 322.98 128.94 C 329.75 145.48 333.24 163.16 333.85 181.00 C 334.28 204.34 329.27 227.90 319.03 248.90 C 307.03 273.72 288.02 295.02 264.71 309.73 C 235.27 328.46 198.69 336.46 164.19 331.03 C 128.17 326.09 94.34 306.72 71.32 278.65 C 54.58 258.40 43.21 233.50 39.29 207.50 C 34.10 175.24 40.04 141.40 55.95 112.87 C 70.21 87.07 92.20 65.83 118.46 52.44 C 138.45 42.11 160.56 36.93 183.00 36.21 Z" fill="#000000" />
<path d="M 171.37 43.44 C 208.80 39.89 247.12 51.93 276.04 75.90 C 293.92 90.55 308.19 109.61 317.02 130.99 C 326.50 153.62 329.59 178.71 326.28 203.00 C 323.38 226.19 314.06 248.54 300.41 267.44 C 289.12 282.61 274.92 295.94 258.68 305.68 C 236.89 318.92 211.50 326.07 186.00 326.16 C 161.41 326.20 136.98 319.59 115.66 307.36 C 92.64 294.17 73.26 274.85 60.46 251.57 C 49.35 231.88 43.68 209.56 43.26 187.00 C 43.35 162.65 49.26 138.47 61.19 117.20 C 83.31 76.71 125.21 47.81 171.37 43.44 Z" fill="#1f1f1f" />
<path d="M 200.02 52.27 C 223.54 54.64 246.22 63.68 265.14 77.83 C 286.88 94.04 303.71 117.16 312.04 142.99 C 323.46 177.13 320.00 216.12 302.70 247.70 C 289.60 272.00 268.84 291.93 244.05 304.05 C 214.19 318.82 178.88 321.48 147.06 311.77 C 107.59 299.92 74.78 269.00 60.73 230.25 C 47.74 195.04 50.42 154.42 68.44 121.43 C 82.26 95.81 104.55 75.01 131.13 63.11 C 152.55 53.39 176.66 49.68 200.02 52.27 Z" fill="#ececec" />
<path d="M 222.88 64.71 C 223.30 66.15 223.65 67.61 223.98 69.08 C 224.41 69.67 224.84 70.25 225.27 70.84 C 223.31 73.92 223.00 76.75 223.10 80.35 C 221.88 81.13 220.65 81.90 219.43 82.67 C 218.48 81.06 217.99 79.90 218.25 77.96 C 218.74 73.45 219.80 68.20 222.88 64.71 Z" fill="#1a1a1a" />
<path d="M 242.71 75.73 C 243.19 77.12 243.63 78.53 244.05 79.95 C 244.65 80.42 245.25 80.89 245.84 81.35 C 245.53 82.88 245.21 84.42 244.90 85.95 C 241.88 84.44 238.66 83.62 235.50 82.48 C 233.52 81.77 232.83 80.20 231.81 78.52 C 234.64 79.71 237.30 81.22 239.96 82.76 C 240.69 80.31 241.32 77.91 242.71 75.73 Z" fill="#1a1a1a" />
<path d="M 158.94 81.26 C 159.31 83.26 159.55 85.26 159.81 87.27 C 158.77 88.03 157.74 88.81 156.72 89.59 C 155.90 89.41 155.08 89.24 154.27 89.06 C 154.70 85.23 156.00 83.60 158.94 81.26 Z" fill="#1a1a1a" />
<path d="M 226.96 83.06 C 231.71 82.66 234.51 85.78 239.28 86.80 C 237.28 87.39 234.75 87.78 233.07 89.09 C 231.54 90.26 231.27 91.92 230.57 93.63 C 226.84 91.99 223.34 92.56 221.39 96.38 C 219.80 102.05 220.64 108.98 226.60 111.72 C 226.31 113.90 225.43 115.70 226.33 117.81 C 227.25 120.27 228.96 123.27 231.93 123.37 C 234.16 123.26 237.88 123.26 239.21 121.12 C 238.87 119.70 236.54 119.25 235.43 118.48 C 232.88 117.38 232.23 115.19 230.95 112.95 C 233.38 112.81 236.16 113.00 238.47 112.19 C 240.44 111.30 242.21 109.86 244.00 108.65 C 244.97 110.87 244.01 112.68 243.96 114.99 C 243.70 117.36 244.56 119.33 245.38 121.48 C 242.76 123.97 240.92 126.94 238.82 129.83 C 236.92 131.92 232.89 131.96 230.30 132.49 L 227.91 137.00 C 228.41 134.37 228.75 131.72 228.94 129.06 C 227.78 130.61 226.75 132.22 225.99 134.01 C 220.35 147.16 214.91 160.90 212.30 175.02 C 210.79 183.23 207.92 190.50 207.92 198.50 C 210.85 194.88 210.98 190.83 212.27 186.50 C 215.20 176.01 217.91 165.43 221.03 155.01 C 222.98 149.61 225.12 144.28 227.12 138.90 C 227.20 142.85 227.28 147.17 226.26 151.02 C 225.47 154.14 223.40 156.39 222.65 159.47 C 221.85 163.04 222.12 166.65 221.13 170.20 C 220.23 173.54 218.75 176.43 218.97 180.00 C 219.18 184.70 217.73 188.94 216.99 193.51 C 222.17 196.87 228.08 198.79 233.38 194.42 C 240.22 188.46 243.05 177.35 244.79 168.79 C 245.86 161.25 247.05 153.68 247.48 146.08 C 248.98 150.11 247.88 153.69 247.37 157.79 C 245.60 168.42 244.19 180.19 238.74 189.71 C 235.89 194.75 230.08 199.49 223.97 198.85 C 221.16 198.85 218.43 197.02 215.89 195.89 C 215.52 197.45 215.22 198.88 215.66 200.47 C 217.13 206.52 218.30 212.48 218.15 218.75 C 217.85 223.67 216.72 228.50 214.92 233.09 C 213.01 237.52 214.21 241.91 213.55 247.01 C 212.21 259.97 208.11 271.84 208.92 285.14 C 209.50 286.26 210.30 287.29 211.03 288.32 L 208.48 288.89 C 210.83 291.02 212.47 293.45 213.96 296.24 C 213.11 296.88 212.25 297.52 211.40 298.15 C 213.08 300.47 215.44 300.28 217.97 301.04 C 211.73 301.09 205.83 301.89 199.75 299.98 C 199.13 301.11 198.53 302.24 197.95 303.39 C 199.47 296.63 200.96 290.39 199.67 283.41 C 199.36 284.77 199.04 286.12 198.72 287.47 C 196.39 281.57 199.51 273.12 196.19 267.36 C 190.98 272.21 189.67 278.35 187.91 284.95 C 187.92 280.09 188.09 275.05 186.65 270.36 C 185.43 267.59 184.38 264.94 181.11 264.25 C 178.98 268.87 175.81 272.16 171.73 275.13 C 171.56 268.21 173.50 261.79 174.36 255.00 C 175.05 249.12 173.78 243.43 171.31 238.10 C 168.66 243.37 168.92 250.24 167.94 256.00 C 166.55 263.66 166.71 271.25 166.54 279.01 C 166.25 283.20 168.53 286.65 168.14 290.79 C 167.82 294.59 165.14 297.06 165.63 301.02 C 165.62 303.72 167.75 304.84 168.51 307.18 C 168.94 309.70 168.73 312.36 168.70 314.91 C 165.82 315.09 164.60 314.78 162.33 313.04 C 163.20 307.15 159.84 302.17 161.53 296.55 C 162.71 291.45 162.02 285.85 162.15 280.63 C 159.95 280.86 157.03 280.73 155.22 282.16 C 153.80 283.26 153.67 285.64 153.19 287.29 C 152.70 287.47 152.20 287.65 151.71 287.82 C 148.68 279.19 145.93 270.10 145.02 260.97 C 144.26 245.39 146.07 229.54 145.11 213.99 C 144.88 207.78 144.15 201.61 144.03 195.39 C 144.88 196.60 145.74 197.79 146.59 199.00 C 149.80 196.55 151.39 193.33 153.58 190.05 C 152.24 189.10 150.89 188.16 149.55 187.23 L 152.87 187.20 C 149.56 180.81 141.59 178.18 135.04 181.00 C 132.37 181.89 129.54 184.31 130.30 187.42 C 131.91 186.53 133.51 185.62 135.11 184.70 C 135.86 184.96 136.60 185.21 137.34 185.46 C 137.27 185.87 137.19 186.27 137.11 186.68 C 139.45 190.24 141.58 193.62 142.14 197.95 C 143.30 208.10 143.10 218.84 143.11 229.00 C 143.02 239.86 141.63 251.23 143.02 262.01 C 144.38 270.26 146.25 278.40 148.79 286.36 C 146.25 286.27 143.86 286.32 141.39 286.95 C 141.61 283.87 141.87 280.80 141.91 277.72 C 140.20 278.00 138.71 278.12 137.49 279.52 C 136.02 280.70 136.43 283.32 136.02 285.04 C 135.70 287.97 132.61 290.65 133.25 293.80 C 133.60 295.95 136.41 297.10 138.21 297.78 C 141.66 299.11 144.34 297.16 147.85 296.62 C 146.76 301.27 147.14 305.98 146.35 310.67 C 141.31 309.57 136.45 307.51 131.77 305.37 C 128.30 303.92 127.19 300.34 124.24 297.75 C 122.58 296.09 120.93 295.38 118.63 295.02 C 118.16 295.86 117.68 296.70 117.21 297.54 C 107.62 292.51 99.07 285.18 91.46 277.54 C 89.46 275.38 87.07 273.29 87.29 270.06 C 87.62 263.32 87.90 256.24 89.78 249.73 C 89.48 253.67 88.48 257.22 88.96 261.04 C 89.40 264.21 89.87 267.42 90.59 270.55 C 90.83 271.99 91.79 272.50 92.82 273.38 C 94.35 264.76 94.24 255.67 100.57 248.81 C 101.94 252.33 103.08 255.86 104.72 259.27 C 106.46 262.78 108.00 266.09 111.50 268.18 C 109.85 262.33 107.55 256.63 105.03 251.10 C 104.03 249.14 104.22 247.21 104.29 245.07 C 105.57 248.22 106.72 251.36 108.50 254.28 C 108.80 249.56 108.84 244.87 109.61 240.20 C 110.38 235.57 110.45 231.39 113.65 227.62 C 117.43 222.40 123.98 223.11 126.93 216.98 C 119.37 219.45 110.84 219.76 104.86 224.71 C 96.93 230.33 93.15 240.82 90.20 249.71 C 90.62 246.56 91.34 243.52 92.76 240.66 C 94.59 236.78 96.39 232.31 99.26 229.11 C 102.19 225.75 105.90 222.99 109.80 220.84 C 113.11 218.90 116.86 219.09 120.68 217.74 C 123.52 216.69 126.65 215.74 129.13 213.98 C 130.66 211.42 128.21 209.10 127.23 206.82 C 125.40 203.63 125.94 200.34 127.02 197.02 C 129.72 189.37 129.62 180.64 126.89 173.01 C 125.32 168.35 125.32 163.86 124.80 159.04 C 124.00 152.24 123.99 145.43 123.71 138.52 C 117.58 131.13 113.59 122.34 111.24 113.07 C 110.55 110.28 110.79 107.57 111.07 104.75 C 112.98 106.04 114.58 107.53 116.09 109.26 C 124.03 107.75 131.37 103.53 139.44 102.28 C 142.86 101.58 145.94 103.26 149.37 102.36 C 153.17 101.19 157.02 101.05 160.96 101.03 C 160.81 100.11 160.66 99.19 160.52 98.28 C 162.49 100.73 162.75 102.49 162.81 105.59 C 161.83 105.98 160.84 106.37 159.86 106.76 C 159.57 107.51 159.29 108.25 159.00 109.00 C 160.94 109.49 162.85 110.08 164.76 110.69 C 164.92 111.79 165.05 112.91 165.17 114.02 C 162.99 113.10 160.88 112.06 158.87 110.81 C 159.22 112.24 159.62 113.65 160.07 115.06 C 159.61 115.59 159.15 116.12 158.69 116.65 C 158.65 118.85 158.27 120.91 157.84 123.06 C 158.43 124.27 160.01 124.97 161.03 125.80 C 163.46 122.77 163.50 119.37 164.11 115.73 C 165.75 119.11 163.54 122.11 163.74 125.94 C 164.03 130.38 163.95 134.52 163.18 138.92 C 165.27 141.50 165.71 144.75 167.66 147.36 C 168.48 148.59 169.29 149.75 169.92 151.09 C 172.24 155.83 171.02 161.03 173.87 165.65 C 176.74 164.88 177.08 163.93 178.29 161.46 C 181.31 160.80 182.18 158.04 183.69 155.68 C 185.69 151.73 188.32 148.16 190.24 144.17 C 194.45 134.87 198.35 125.41 201.91 115.84 C 205.53 106.26 207.57 97.11 214.43 89.13 C 213.47 93.13 210.62 97.62 212.73 101.63 C 214.34 100.03 216.29 98.40 217.39 96.39 C 218.63 93.53 218.45 89.87 219.94 87.06 C 221.35 84.55 224.09 83.00 226.96 83.06 Z" fill="#1a1a1a" />
<path d="M 157.99 96.14 C 158.01 96.91 158.02 97.68 158.03 98.44 C 155.75 98.22 153.47 98.01 151.20 97.68 C 153.40 96.83 155.66 96.42 157.99 96.14 Z" fill="#777677" />
<path d="M 255.63 98.88 C 257.53 99.08 260.91 98.16 261.88 100.17 C 263.87 106.42 260.18 111.34 261.49 117.47 C 258.70 119.15 256.76 121.53 254.50 123.80 C 253.14 124.38 251.41 124.17 249.95 124.33 C 250.01 131.76 248.50 139.08 248.88 146.50 C 248.48 146.00 248.08 145.50 247.67 145.00 C 248.35 137.28 248.48 129.49 248.83 121.74 C 250.20 120.93 252.06 120.22 252.92 118.84 C 253.95 116.92 252.59 114.88 252.09 113.00 C 254.88 114.97 257.62 115.58 260.95 115.96 C 261.66 111.53 257.08 111.49 254.06 110.34 C 255.78 106.41 257.19 103.21 255.63 98.88 Z" fill="#1a1a1a" />
<path d="M 248.85 98.30 C 250.97 98.97 251.24 100.32 252.07 102.12 C 250.61 101.84 249.30 101.76 248.17 100.67 C 248.19 99.78 248.42 98.99 248.85 98.30 Z" fill="#707070" />
<path d="M 142.11 105.19 C 139.42 112.83 142.04 119.85 141.96 128.51 C 145.57 132.64 148.52 137.68 152.98 140.99 C 155.17 142.72 158.55 141.53 161.08 141.27 C 161.55 143.68 161.96 146.07 162.10 148.53 C 162.61 147.53 163.11 146.53 163.60 145.53 C 166.88 148.64 168.47 152.38 169.93 156.57 C 168.99 160.20 167.70 163.45 165.57 166.55 C 166.19 166.39 166.80 166.23 167.41 166.07 C 168.64 168.98 169.81 171.67 167.41 174.38 C 165.80 176.17 163.99 175.63 161.83 175.81 C 162.50 177.41 163.09 179.03 163.65 180.67 C 159.08 180.81 156.69 177.58 152.57 176.44 C 146.35 174.73 139.66 174.71 133.52 176.78 C 134.65 175.34 135.41 173.73 137.15 172.96 C 139.77 171.72 143.21 171.86 146.06 171.89 C 150.65 171.96 155.08 172.99 159.31 174.75 C 157.76 173.72 156.26 172.63 154.77 171.52 C 157.01 170.51 159.25 169.52 161.49 168.53 C 160.56 165.34 159.77 162.15 159.11 158.89 C 160.17 158.84 161.22 158.80 162.28 158.76 C 162.33 157.29 162.39 155.82 162.46 154.35 C 161.10 155.31 159.65 156.69 158.00 157.07 C 154.63 156.99 152.25 154.08 150.41 151.59 C 146.11 145.41 143.20 137.94 140.81 130.84 C 139.89 131.38 138.97 131.91 138.05 132.43 C 136.38 127.52 132.52 125.56 128.57 122.75 C 127.54 118.80 124.88 116.34 122.06 113.62 C 127.92 108.87 134.48 105.63 142.11 105.19 Z" fill="#ececec" />
<path d="M 160.02 129.73 C 160.61 132.42 160.88 134.74 159.98 137.43 C 158.39 136.06 157.68 134.93 157.01 132.95 C 157.82 131.24 158.33 130.63 160.02 129.73 Z" fill="#eaebea" />
<path d="M 200.68 131.05 C 201.26 138.90 201.12 147.87 196.70 154.73 C 193.22 160.31 189.85 166.50 185.36 171.29 C 187.09 163.23 189.75 155.25 190.99 147.04 C 192.07 140.63 195.18 134.72 200.68 131.05 Z" fill="#ececec" />
<path d="M 211.86 139.50 C 212.79 149.91 209.72 160.76 207.90 170.98 C 206.30 177.72 204.99 184.53 203.24 191.24 C 202.87 192.95 202.02 194.21 200.95 195.56 C 199.51 190.02 200.92 183.61 201.47 177.93 C 203.31 168.23 202.57 158.62 205.17 149.04 C 206.17 145.24 207.53 140.57 211.86 139.50 Z" fill="#ececec" />
<path d="M 150.99 144.31 C 152.08 144.80 153.18 145.27 154.28 145.74 C 156.24 145.94 158.21 146.02 160.17 146.18 C 157.50 148.07 156.37 148.78 153.30 146.91 C 152.52 146.05 151.75 145.19 150.99 144.31 Z" fill="#6e6d6e" />
<path d="M 151.91 149.75 C 155.30 150.93 157.09 151.26 160.59 150.09 C 159.52 151.57 159.40 153.56 157.17 153.46 C 154.80 153.56 153.42 151.22 151.91 149.75 Z" fill="#676667" />
<path d="M 183.19 178.60 C 184.81 179.69 184.23 182.45 184.43 184.16 C 185.62 181.71 186.93 179.83 189.13 178.17 C 192.42 184.33 191.19 193.34 186.54 198.57 C 184.24 201.21 181.32 202.09 178.13 203.19 C 180.88 207.28 180.60 211.86 179.24 216.41 C 178.56 213.88 178.23 211.16 177.27 208.71 C 176.00 206.40 174.30 204.40 173.28 201.94 C 175.05 200.68 176.80 199.40 178.55 198.12 C 175.43 196.28 173.74 194.79 171.90 191.64 C 171.15 194.85 173.14 196.83 174.10 199.74 C 171.41 200.07 168.76 200.03 166.40 201.44 C 164.39 202.80 164.04 205.05 163.37 207.20 C 161.06 207.57 159.20 207.69 157.75 209.78 C 155.65 212.13 157.12 217.14 154.20 218.49 C 153.16 218.16 152.80 217.39 153.11 216.15 C 155.53 209.08 157.92 202.01 161.33 195.33 C 162.99 191.33 164.35 187.63 167.98 184.94 C 170.12 183.05 172.58 182.85 175.23 182.20 C 178.25 181.51 180.38 179.78 183.19 178.60 Z" fill="#ececec" />
<path d="M 136.18 196.10 C 137.81 200.64 137.22 205.02 136.65 209.68 C 135.14 208.85 133.04 208.30 131.89 206.97 C 131.54 203.18 134.08 199.08 136.18 196.10 Z" fill="#ececec" />
<path d="M 136.58 212.01 C 136.95 224.60 136.74 237.45 137.92 250.00 C 138.27 257.22 138.91 264.98 137.44 272.08 C 136.55 270.73 135.73 269.37 135.22 267.82 C 132.85 260.31 131.06 252.72 129.03 245.14 C 128.23 242.09 128.33 239.11 128.33 236.00 C 128.39 229.42 128.25 223.04 129.49 216.54 C 133.32 215.93 134.30 214.98 136.58 212.01 Z" fill="#ececec" />
<path d="M 215.85 214.29 C 217.81 216.99 217.21 221.13 216.81 224.25 C 215.82 229.54 214.40 234.60 209.41 237.47 C 209.75 233.92 210.05 230.56 208.72 227.17 C 207.35 223.20 204.44 220.86 201.20 218.42 C 202.65 216.38 204.00 214.44 206.23 213.18 C 209.13 211.25 213.44 211.83 215.85 214.29 Z" fill="#ececec" />
<path d="M 209.22 239.96 L 211.38 239.01 C 211.46 246.02 212.04 254.46 208.91 260.88 C 206.94 265.30 204.89 269.67 203.20 274.20 C 202.37 276.04 202.24 277.79 200.07 278.49 C 202.83 270.03 206.77 261.59 208.62 252.47 C 209.44 248.23 208.83 244.18 209.22 239.96 Z" fill="#eceaec" />
<path d="M 142.45 290.68 C 144.57 289.98 147.44 289.92 149.61 290.40 C 150.74 290.98 152.42 292.64 150.69 293.59 C 147.64 294.13 144.09 293.99 141.33 292.44 C 141.05 291.46 141.43 290.87 142.45 290.68 Z" fill="#1a1a1a" />
<path d="M 186.41 293.11 C 187.21 296.83 185.83 301.00 190.06 302.74 C 189.02 304.84 188.04 306.57 188.95 308.96 C 189.92 310.41 191.41 311.55 192.68 312.74 C 190.35 315.30 189.34 316.43 185.63 316.43 C 184.51 308.54 185.26 300.94 186.41 293.11 Z" fill="#1a1a1a" />
<path d="M 205.31 303.15 C 211.12 302.58 216.93 302.71 222.75 302.97 C 222.25 305.11 222.37 306.87 219.83 307.48 C 215.00 308.50 209.50 305.26 205.31 303.15 Z" fill="#1a1a1a" />
<path d="M 173.67 304.94 C 173.61 306.64 173.38 308.32 173.15 310.00 C 172.37 310.52 171.59 311.04 170.80 311.55 C 171.38 309.01 171.45 306.68 173.67 304.94 Z" fill="#737273" />
<path d="M 196.09 313.89 C 195.71 315.01 195.14 315.39 194.37 315.01 C 193.62 313.74 195.93 311.80 196.09 313.89 Z" fill="#6b6a6b" />
</svg>