<?xml version="1.0" encoding="utf-8"?>
<!-- Generator: Adobe Illustrator 24.0.3, SVG Export Plug-In . SVG Version: 6.00 Build 0)  -->
<svg version="1.1" id="Capa_1" xmlns="http://www.w3.org/2000/svg" xmlns:xlink="http://www.w3.org/1999/xlink" x="0px" y="0px"
	 viewBox="0 0 439.2 310" style="enable-background:new 0 0 439.2 310;" xml:space="preserve">
<style type="text/css">
	.st0{fill:#F3FF00;}
	.st1{fill:none;}
	.st2{font-family:'Graduate-Regular';}
	.st3{font-size:64px;}
</style>
<g>
	<path class="st0" d="M404.9,130.5c-13-5.1-23.4-14.1-29.1-25.3c-6-11.8-14-22.8-23.5-32.5c-31.1-32-78.7-51.9-130.5-52.7
		c-67.6-1-129.1,30.5-156.5,80.4c-6.1,11.1-16.7,19.7-29.9,24.4c-6,2.1-11.2,6.1-15,11.5c-7.1,10.1-7.3,23.8-0.5,34.1
		c3.6,5.5,8.7,9.7,14.6,12c13,5.1,23.4,14.1,29.1,25.3c25.9,50.7,86.3,84.1,154,85.2c67.6,1,129.1-30.5,156.5-80.4
		c6.1-11.1,16.7-19.7,29.9-24.4c6-2.1,11.2-6.1,15-11.5c7.1-10.1,7.3-23.8,0.5-34.1C415.9,136.9,410.9,132.8,404.9,130.5z
		 M162.5,49.1c-35.7,11.5-63.8,33.2-79.2,61.2c-1.4,2.5-4.5,3.4-7,2c-0.5-0.3-0.9-0.6-1.2-0.9c-1.5-1.6-1.9-4-0.8-6
		c16.6-30.3,46.8-53.7,85.1-66c2.7-0.9,5.6,0.6,6.4,3.3C166.7,45.4,165.2,48.2,162.5,49.1z M341.5,237.9
		c-18.3,17.4-42.2,30.5-69.1,37.9c-1.9,0.5-3.8-0.1-5-1.4c-0.6-0.6-1-1.3-1.3-2.2c-0.7-2.7,0.9-5.5,3.6-6.3
		c25.3-6.9,47.7-19.2,64.7-35.4c2-1.9,5.3-1.9,7.2,0.1c0,0,0,0,0,0C343.7,232.7,343.6,235.9,341.5,237.9z M365.2,207.5
		c-2.7,5-5.9,9.8-9.4,14.5c-1.7,2.3-4.9,2.7-7.2,1c-0.2-0.2-0.4-0.3-0.6-0.5c-1.7-1.8-1.9-4.6-0.4-6.7c3.2-4.2,6.1-8.7,8.6-13.2
		c1.4-2.5,4.5-3.4,7-2C365.7,201.9,366.6,205,365.2,207.5z"/>
	<path d="M428.1,136.8c-4.8-7.3-11.5-12.8-19.5-15.9c-10.7-4.2-19.1-11.4-23.7-20.4c-27.6-54-91.6-89.7-162.9-90.8
		C150.6,8.6,85.6,42.3,56.4,95.5c-4.9,8.9-13.5,15.8-24.3,19.7c-8,2.8-14.9,8.1-20,15.3c-9.5,13.5-9.8,31.8-0.7,45.6
		c1.5,2.3,3.2,4.4,5,6.3c4.1,4.2,9,7.5,14.5,9.6c10.7,4.2,19.1,11.4,23.7,20.4c27.6,54,91.6,89.7,162.9,90.8
		c71.4,1.1,136.4-32.5,165.7-85.7c4.9-8.9,13.5-15.8,24.3-19.7c8-2.8,14.9-8.1,20-15.3C436.9,168.9,437.2,150.6,428.1,136.8z
		 M419,176.5c-3.8,5.4-9,9.4-15,11.5c-13.2,4.7-23.8,13.3-29.9,24.4c-27.4,49.9-88.9,81.4-156.5,80.4c-67.6-1-128.1-34.5-154-85.2
		c-5.7-11.2-16.1-20.2-29.1-25.3c-6-2.3-11-6.5-14.6-12c-6.8-10.3-6.6-24,0.5-34.1c3.8-5.4,9-9.4,15-11.5
		c13.2-4.7,23.8-13.3,29.9-24.4C92.8,50.5,154.2,19,221.9,20c51.8,0.8,99.4,20.6,130.5,52.7c9.5,9.8,17.4,20.7,23.5,32.5
		c5.7,11.2,16.1,20.2,29.1,25.3c6,2.3,11,6.5,14.6,12C426.4,152.7,426.1,166.4,419,176.5z"/>
	<path d="M159.4,39.4c-38.2,12.3-68.4,35.7-85.1,66c-1.1,2-0.7,4.5,0.8,6c0.3,0.4,0.8,0.7,1.2,0.9c2.5,1.4,5.6,0.5,7-2
		c15.4-28,43.5-49.7,79.2-61.2c2.7-0.9,4.2-3.8,3.3-6.4C165,40,162.1,38.5,159.4,39.4z"/>
	<path d="M363.2,200.5c-2.5-1.4-5.6-0.5-7,2c-2.5,4.5-5.4,9-8.6,13.2c-1.5,2-1.3,4.9,0.4,6.7c0.2,0.2,0.4,0.4,0.6,0.5
		c2.3,1.7,5.5,1.3,7.2-1c3.5-4.6,6.7-9.5,9.4-14.5C366.6,205,365.7,201.9,363.2,200.5z"/>
	<path d="M341.7,230.6c-2-2-5.2-2.1-7.2-0.1c-17.1,16.2-39.4,28.5-64.7,35.4c-2.7,0.7-4.3,3.6-3.6,6.3c0.2,0.9,0.7,1.6,1.3,2.2
		c1.3,1.3,3.2,1.9,5,1.4c26.9-7.4,50.8-20.5,69.1-37.9C343.6,235.9,343.7,232.7,341.7,230.6C341.7,230.6,341.7,230.6,341.7,230.6z"
		/>
</g>
<rect x="80.2" y="105.1" class="st1" width="279.2" height="118.9"/>
<text transform="matrix(1 0 0 1 104.5631 146.7154)"><tspan x="0" y="0" class="st2 st3">LEMON</tspan><tspan x="-4.1" y="74.8" class="st2 st3">AWARD</tspan></text>
</svg>
