<?xml version="1.0" encoding="UTF-8" standalone="no"?>
<!DOCTYPE svg PUBLIC "-//W3C//DTD SVG 1.1//EN" "http://www.w3.org/Graphics/SVG/1.1/DTD/svg11.dtd">
<svg xmlns="http://www.w3.org/2000/svg" version="1.1" viewBox="0 0 393 383" width="393.0pt" height="383.0pt">
<path d="M 0.00 0.00 L 393.00 0.00 L 393.00 383.00 L 0.00 383.00 L 0.00 0.00 Z" fill="#fefefe" />
<path d="M 206.14 63.09 C 190.85 69.57 175.63 76.25 160.55 83.20 C 178.65 77.35 195.96 71.82 215.00 69.67 C 222.25 69.24 230.23 68.74 236.92 72.00 C 239.71 73.35 241.68 75.86 242.08 78.95 C 242.50 83.44 242.18 88.02 242.10 92.52 C 263.18 92.20 285.04 96.36 305.55 100.94 C 316.01 91.10 328.30 83.58 341.50 78.01 C 335.12 85.81 329.86 94.46 325.90 103.73 C 333.49 102.88 341.05 102.50 348.69 102.41 C 344.82 105.00 341.11 107.81 337.28 110.44 C 338.43 112.47 339.45 114.52 340.35 116.67 C 336.62 128.13 334.68 140.26 332.06 152.01 C 340.01 148.38 347.41 144.13 354.23 138.63 C 353.57 143.40 352.64 147.96 351.28 152.58 C 361.40 149.83 370.04 144.41 377.65 137.28 C 375.92 141.57 374.26 145.80 371.66 149.65 C 363.39 162.49 350.99 171.56 337.78 178.80 C 334.40 180.71 330.62 181.99 327.38 184.09 C 326.38 188.69 326.40 193.50 325.73 198.16 C 336.37 200.84 347.61 203.96 358.64 203.91 C 354.27 206.86 349.54 209.10 344.66 211.05 C 355.79 217.38 367.41 222.60 379.94 225.43 C 376.33 225.47 372.71 225.57 369.10 225.49 C 353.83 224.85 338.59 224.25 323.37 222.72 C 322.98 226.40 323.60 231.02 320.82 233.85 C 318.84 236.20 314.87 236.37 312.03 236.71 C 294.52 238.22 277.21 241.25 260.10 245.22 C 245.33 248.78 230.44 252.70 216.23 258.10 C 241.44 253.24 267.16 250.67 292.83 250.16 C 285.57 251.58 278.18 252.30 270.95 253.82 C 239.45 259.74 208.44 268.84 178.13 279.16 C 159.40 285.72 140.67 292.58 122.45 300.46 C 112.80 305.53 103.58 311.52 94.46 317.49 C 90.66 319.86 87.85 323.02 83.04 322.73 C 61.17 322.21 39.34 320.44 18.75 312.45 C 15.78 311.18 11.84 309.72 10.54 306.49 C 9.62 303.49 9.74 300.08 9.54 296.97 C 8.29 274.36 9.84 251.07 11.65 228.49 C 13.66 209.75 16.34 191.10 20.53 172.71 C 20.13 172.35 19.72 172.00 19.31 171.66 C 19.38 171.01 19.45 170.35 19.52 169.69 C 19.91 170.44 20.30 171.19 20.69 171.94 C 21.42 169.37 21.85 166.49 23.09 164.10 C 24.41 161.72 27.45 160.81 29.80 159.74 C 44.18 153.99 58.53 148.12 73.13 142.96 C 70.40 134.58 66.97 126.57 63.49 118.48 C 61.65 114.32 59.83 110.03 57.51 106.12 C 55.81 104.99 54.49 103.73 53.17 102.18 C 54.40 100.84 55.65 99.53 56.95 98.25 C 58.53 99.47 60.41 99.67 60.40 102.04 C 60.59 104.46 61.28 106.44 62.37 108.60 C 67.58 119.39 72.10 130.49 76.15 141.77 C 84.36 138.73 92.58 135.76 100.88 132.96 C 101.48 125.99 101.74 118.99 101.82 112.00 C 101.92 109.07 102.06 106.34 104.07 104.03 C 106.80 100.79 111.75 99.22 115.51 97.42 C 142.36 84.42 170.21 73.37 198.77 64.76 C 201.19 64.00 203.63 63.48 206.14 63.09 Z" fill="#1f1f1f" />
<path d="M 221.09 82.30 C 224.42 82.02 229.16 81.42 231.18 84.81 C 232.11 87.32 231.93 90.35 231.99 93.00 C 231.84 101.25 232.01 109.49 231.82 117.74 C 229.38 116.62 226.94 115.51 224.50 114.39 C 224.02 105.94 224.97 97.38 224.11 88.98 C 224.03 86.16 221.23 85.90 219.03 85.66 C 209.21 85.22 201.45 88.98 191.72 89.96 C 200.88 85.75 211.16 83.71 221.09 82.30 Z" fill="#333133" />
<path d="M 328.96 88.40 C 323.71 95.96 320.42 102.88 317.85 111.74 C 322.42 110.49 327.03 109.58 331.70 108.84 C 320.01 116.39 309.89 125.69 299.65 135.04 C 301.36 128.72 303.89 122.75 306.85 116.93 C 303.44 117.62 300.03 118.35 296.62 119.01 C 305.30 106.77 316.08 96.18 328.96 88.40 Z" fill="#dbe3db" />
<path d="M 216.01 89.42 C 217.41 89.56 219.53 88.96 220.17 90.59 C 220.66 92.78 220.53 95.13 220.62 97.36 C 188.77 105.05 157.38 114.33 126.18 124.31 C 126.46 120.69 125.31 115.04 128.40 112.44 C 132.08 109.51 137.37 108.31 141.79 106.89 C 160.55 101.68 179.60 97.53 198.51 92.90 C 204.31 91.80 210.12 89.81 216.01 89.42 Z" fill="#fdfdfd" />
<path d="M 130.47 97.88 C 125.16 101.52 118.46 103.45 113.76 107.75 C 110.48 110.82 110.29 114.79 110.17 119.00 C 110.13 129.67 110.43 140.41 110.06 151.09 C 108.71 150.34 107.36 149.60 106.01 148.85 C 105.62 139.90 106.00 130.96 105.79 122.00 C 105.77 118.19 105.52 114.06 106.40 110.33 C 107.19 107.13 109.43 104.78 112.43 103.50 C 118.21 101.05 124.32 99.16 130.47 97.88 Z" fill="#323032" />
<path d="M 242.05 100.35 C 261.52 100.21 280.43 103.40 299.35 107.68 C 296.72 111.27 294.21 114.92 291.84 118.68 C 266.01 123.19 240.33 128.44 214.91 134.84 C 175.33 144.91 136.00 156.85 98.08 172.08 C 94.89 173.16 91.22 175.82 87.89 174.11 C 72.23 167.59 55.94 165.26 39.09 164.52 C 51.31 159.51 63.62 154.71 76.00 150.14 C 76.73 152.41 77.45 154.69 78.17 156.97 C 76.54 158.29 74.50 159.59 73.36 161.37 C 72.53 163.09 72.17 165.09 71.70 166.93 C 78.16 168.98 84.18 165.27 90.09 163.05 C 89.12 161.41 88.29 159.45 86.92 158.10 C 85.18 156.95 82.90 156.49 80.93 155.88 C 80.20 153.63 79.50 151.38 78.80 149.12 C 86.03 146.33 93.39 143.92 100.65 141.22 C 100.44 144.67 100.26 148.13 100.11 151.59 C 103.21 153.21 106.20 155.12 109.40 156.54 C 111.18 157.38 113.26 156.67 115.06 156.21 C 118.00 155.29 121.15 154.31 123.72 152.58 C 125.94 146.58 125.00 139.13 125.62 132.76 C 156.95 122.56 188.60 113.17 220.62 105.38 C 220.73 109.31 220.02 113.94 221.28 117.66 C 224.08 120.35 228.23 122.42 231.97 123.40 C 235.24 123.51 238.81 122.14 241.58 120.46 C 242.77 113.97 241.72 106.96 242.05 100.35 Z" fill="#8061aa" />
<path d="M 331.01 120.71 C 327.98 132.08 325.74 143.58 323.64 155.14 C 318.74 156.92 313.85 158.11 308.69 158.91 C 303.98 150.51 297.59 143.54 287.98 141.02 C 278.92 138.90 268.56 137.87 259.53 140.53 C 252.46 142.51 246.24 146.99 241.40 152.42 C 229.49 165.97 225.21 186.03 230.58 203.24 C 233.81 213.19 239.98 221.87 249.72 226.26 C 258.61 230.42 268.47 228.97 277.83 227.60 C 284.23 226.68 289.97 224.06 295.01 220.03 C 301.26 215.21 305.27 208.82 308.83 201.90 C 311.30 205.03 313.87 208.07 316.50 211.06 C 311.76 213.84 306.88 216.38 302.02 218.95 C 306.55 220.05 311.10 220.88 315.70 221.58 C 315.46 223.96 315.22 226.34 314.97 228.71 C 269.88 232.18 224.73 244.90 183.00 262.04 C 150.01 275.82 118.01 292.47 88.25 312.31 C 88.06 304.21 87.63 296.12 87.40 288.02 C 86.89 266.35 87.78 244.63 89.03 223.00 C 90.32 209.34 91.33 195.56 93.82 182.06 C 125.13 169.19 157.64 158.55 190.21 149.37 C 225.96 139.44 262.18 131.32 298.82 125.43 C 297.48 130.70 296.70 135.97 296.37 141.39 C 304.15 135.54 311.65 129.27 319.53 123.53 C 322.63 121.19 327.28 121.25 331.01 120.71 Z" fill="#8061aa" />
<path d="M 100.14 122.28 C 100.63 126.28 101.09 129.89 99.03 133.56 C 98.64 129.57 98.79 126.09 100.14 122.28 Z" fill="#bcbdbc" />
<path d="M 279.59 143.12 C 282.10 143.71 284.42 144.75 286.75 145.84 C 285.84 146.29 284.92 146.70 283.99 147.05 C 282.26 146.18 280.83 144.57 279.59 143.12 Z" fill="#9b9a9b" />
<path d="M 263.48 143.62 C 259.00 147.96 254.23 151.39 250.58 156.57 C 239.05 172.31 236.98 195.78 247.40 212.59 C 250.63 218.05 255.36 221.34 260.21 225.19 C 250.50 224.42 242.48 218.67 237.70 210.34 C 228.39 194.26 230.79 173.25 241.38 158.39 C 246.77 150.89 254.12 144.99 263.48 143.62 Z" fill="#333133" />
<path d="M 272.37 143.59 C 276.13 144.39 279.17 146.12 282.16 148.47 C 281.09 148.82 280.00 149.12 278.90 149.37 C 276.40 148.02 274.28 145.67 272.37 143.59 Z" fill="#a6a7a6" />
<path d="M 365.52 144.30 C 366.08 144.77 366.08 144.77 365.52 144.30 Z" fill="#9c9b9c" />
<path d="M 267.53 145.57 C 271.17 146.10 273.59 148.13 276.21 150.49 C 275.03 150.86 273.84 151.24 272.66 151.61 C 270.87 149.66 269.11 147.70 267.53 145.57 Z" fill="#ececec" />
<path d="M 291.21 146.19 C 292.53 146.08 295.45 147.22 294.97 148.89 C 293.47 149.52 291.55 147.58 291.21 146.19 Z" fill="#777577" />
<path d="M 265.32 147.81 C 267.09 149.31 268.70 150.97 270.27 152.68 C 268.88 152.80 267.49 152.86 266.11 152.84 C 264.76 151.85 263.64 150.51 262.48 149.31 C 263.42 148.80 264.37 148.30 265.32 147.81 Z" fill="#c0bfc0" />
<path d="M 288.94 147.49 C 290.12 148.60 291.30 149.72 292.48 150.84 C 291.51 151.53 290.54 152.22 289.57 152.90 C 288.47 151.56 287.37 150.23 286.27 148.89 C 287.16 148.42 288.05 147.95 288.94 147.49 Z" fill="#c4c4c4" />
<path d="M 348.36 148.90 C 346.23 152.60 343.74 155.98 340.97 159.23 C 350.32 157.12 359.34 153.96 367.76 149.36 C 357.20 160.25 345.13 170.92 331.32 177.45 C 332.22 173.45 333.02 169.45 333.61 165.39 C 328.22 164.91 323.30 163.69 318.50 161.14 C 328.70 157.44 338.94 154.47 348.36 148.90 Z" fill="#dbe3db" />
<path d="M 283.90 150.29 C 285.19 151.52 286.38 152.83 287.58 154.15 C 286.34 154.77 285.09 155.39 283.85 156.02 C 282.76 154.55 281.66 153.09 280.57 151.63 C 281.67 151.17 282.78 150.71 283.90 150.29 Z" fill="#cecece" />
<path d="M 299.18 155.17 C 298.02 153.71 296.88 152.24 295.83 150.70 C 298.55 149.57 301.16 152.65 299.18 155.17 Z" fill="#bebfbe" />
<path d="M 260.65 150.97 C 261.57 151.86 262.41 152.81 263.25 153.78 C 261.27 153.84 259.30 153.88 257.32 153.89 C 258.40 152.87 259.47 151.87 260.65 150.97 Z" fill="#a3a3a3" />
<path d="M 278.47 153.02 C 279.52 154.33 280.50 155.69 281.48 157.05 C 280.16 157.55 278.84 158.05 277.52 158.55 C 276.52 156.99 275.53 155.43 274.58 153.84 C 275.87 153.53 277.17 153.24 278.47 153.02 Z" fill="#ececec" />
<path d="M 294.05 152.89 C 295.10 154.01 296.10 155.17 297.10 156.33 C 295.91 157.30 294.71 158.26 293.51 159.22 C 292.78 157.77 292.01 156.32 291.36 154.83 C 292.24 154.16 293.14 153.51 294.05 152.89 Z" fill="#e9e9e9" />
<path d="M 267.67 155.25 C 269.07 155.21 270.46 155.22 271.85 155.30 C 273.13 156.15 273.79 158.13 274.63 159.40 C 273.17 159.75 271.72 160.10 270.26 160.45 C 269.38 158.73 268.51 157.00 267.67 155.25 Z" fill="#ecebec" />
<path d="M 301.19 154.47 C 302.27 155.54 303.27 156.62 304.01 157.95 C 303.53 159.09 302.95 160.19 302.35 161.26 C 301.25 158.75 299.68 157.25 301.19 154.47 Z" fill="#ababab" />
<path d="M 256.58 155.62 C 257.76 157.49 258.81 159.42 259.82 161.37 C 257.92 161.13 256.09 160.95 254.23 160.43 C 252.72 158.07 255.08 157.01 256.58 155.62 Z" fill="#ececec" />
<path d="M 260.14 156.31 C 261.72 156.17 263.30 156.02 264.88 155.88 C 265.74 157.58 266.60 159.29 267.43 161.02 C 265.86 161.10 264.29 161.19 262.71 161.27 C 261.86 159.61 261.00 157.96 260.14 156.31 Z" fill="#e9e7e9" />
<path d="M 288.97 156.62 C 289.83 157.93 290.61 159.30 291.40 160.65 C 290.02 161.50 288.63 162.34 287.24 163.19 C 286.57 161.51 285.88 159.83 285.20 158.15 C 286.45 157.63 287.70 157.09 288.97 156.62 Z" fill="#ececec" />
<path d="M 80.46 158.50 C 83.94 157.50 85.56 159.84 87.91 161.85 C 83.93 163.64 80.02 164.93 75.75 165.86 C 76.78 162.84 77.05 159.79 80.46 158.50 Z" fill="#333133" />
<path d="M 282.84 159.66 C 283.53 161.14 284.15 162.65 284.79 164.15 C 283.27 164.77 281.76 165.40 280.24 166.03 C 279.68 164.32 279.12 162.61 278.58 160.90 C 279.99 160.48 281.41 160.04 282.84 159.66 Z" fill="#ececec" />
<path d="M 298.36 158.75 C 298.99 160.15 299.62 161.54 300.25 162.94 C 298.93 164.12 297.62 165.32 296.29 166.50 C 295.76 164.93 295.22 163.37 294.74 161.78 C 295.92 160.73 297.14 159.75 298.36 158.75 Z" fill="#ececec" />
<path d="M 305.46 160.62 C 306.03 161.99 306.59 163.36 307.16 164.73 C 306.26 165.93 305.36 167.13 304.45 168.31 C 304.07 166.65 303.66 164.98 303.36 163.31 C 304.04 162.39 304.75 161.51 305.46 160.62 Z" fill="#bdbcbd" />
<path d="M 217.22 162.16 C 221.90 160.96 226.57 165.30 225.47 170.04 C 224.25 175.96 214.42 178.33 211.48 172.57 C 208.93 167.69 211.91 162.78 217.22 162.16 Z" fill="#1f1f1f" />
<path d="M 275.91 161.75 C 276.51 163.43 277.10 165.11 277.68 166.80 C 276.07 167.17 274.45 167.55 272.83 167.92 C 272.34 166.35 271.83 164.78 271.33 163.21 C 272.86 162.72 274.39 162.24 275.91 161.75 Z" fill="#ececec" />
<path d="M 251.11 162.85 C 253.35 162.52 253.60 166.63 254.47 168.10 C 252.55 167.58 250.63 167.04 248.71 166.50 C 249.47 165.25 250.21 164.01 251.11 162.85 Z" fill="#bebebe" />
<path d="M 310.54 163.06 C 314.21 164.48 317.83 166.01 321.61 167.15 C 320.32 176.78 319.22 186.44 317.86 196.06 C 315.73 195.41 313.61 194.76 311.49 194.11 C 312.86 187.80 313.65 181.44 312.99 174.98 C 312.66 170.85 311.45 167.06 310.54 163.06 Z" fill="#8061aa" />
<path d="M 217.12 164.16 C 220.91 162.61 224.43 165.94 223.64 169.75 C 223.18 171.96 220.67 172.94 218.99 174.14 C 217.55 173.27 215.86 172.46 214.68 171.26 C 213.43 168.77 214.13 165.02 217.12 164.16 Z" fill="#dbe3db" />
<path d="M 255.78 163.76 C 257.45 163.80 259.13 163.83 260.81 163.87 C 261.34 165.58 261.86 167.29 262.36 169.01 C 260.62 168.90 258.88 168.77 257.14 168.63 C 256.68 167.01 256.23 165.39 255.78 163.76 Z" fill="#ececec" />
<path d="M 263.64 163.93 C 265.30 163.81 266.95 163.69 268.60 163.56 C 269.14 165.23 269.67 166.90 270.19 168.58 C 268.54 168.76 266.88 168.93 265.23 169.09 C 264.69 167.38 264.15 165.66 263.64 163.93 Z" fill="#eaeaea" />
<path d="M 292.27 163.19 C 292.90 164.79 293.52 166.40 294.13 168.00 C 292.52 168.92 290.90 169.83 289.28 170.74 C 288.94 169.03 288.62 167.32 288.32 165.60 C 289.61 164.75 290.94 163.98 292.27 163.19 Z" fill="#ececec" />
<path d="M 301.13 165.80 C 301.64 167.40 302.10 169.01 302.58 170.62 C 301.02 171.88 299.46 173.13 297.90 174.39 C 297.62 172.66 297.34 170.93 297.07 169.21 C 298.41 168.06 299.75 166.90 301.13 165.80 Z" fill="#ececec" />
<path d="M 196.31 167.31 C 199.10 166.34 202.38 166.13 204.72 168.25 C 207.35 170.37 207.77 174.42 206.28 177.30 C 203.63 181.37 196.46 183.01 193.11 178.89 C 189.72 174.97 191.39 168.96 196.31 167.31 Z" fill="#1f1f1f" />
<path d="M 285.65 166.97 C 286.08 168.63 286.43 170.31 286.78 171.99 C 285.13 172.58 283.48 173.18 281.83 173.78 C 281.57 172.02 281.28 170.27 281.09 168.50 C 282.60 167.94 284.12 167.42 285.65 166.97 Z" fill="#ececec" />
<path d="M 308.14 167.75 C 308.43 169.37 308.81 171.06 308.75 172.70 C 308.04 174.12 306.99 175.38 306.03 176.65 C 305.83 174.84 305.64 173.03 305.53 171.21 C 306.35 170.02 307.24 168.88 308.14 167.75 Z" fill="#ececec" />
<path d="M 197.36 169.38 C 200.82 167.21 205.74 169.77 205.31 174.01 C 205.35 178.21 199.52 180.43 196.67 177.39 C 194.29 175.18 194.48 171.04 197.36 169.38 Z" fill="#dbe3db" />
<path d="M 249.06 169.33 C 250.99 169.71 252.83 170.24 254.74 170.76 C 254.92 172.35 255.10 173.94 255.27 175.53 C 253.64 174.96 251.87 174.45 250.35 173.62 C 249.72 172.28 249.40 170.77 249.06 169.33 Z" fill="#ececec" />
<path d="M 278.41 169.46 C 278.71 171.23 279.00 173.00 279.27 174.78 C 277.54 175.11 275.82 175.43 274.09 175.74 C 273.94 174.01 273.78 172.29 273.62 170.57 C 275.22 170.19 276.81 169.82 278.41 169.46 Z" fill="#ececec" />
<path d="M 257.82 171.32 C 259.48 171.44 261.18 171.61 262.79 172.07 C 263.18 173.59 263.32 175.17 263.54 176.72 C 261.66 176.46 259.79 176.17 257.91 175.88 C 257.87 174.36 257.77 172.84 257.82 171.32 Z" fill="#ececec" />
<path d="M 270.88 171.14 C 271.09 172.85 271.30 174.56 271.50 176.27 C 269.77 176.44 268.03 176.60 266.29 176.75 C 266.08 175.12 265.86 173.49 265.72 171.85 C 267.43 171.57 269.16 171.36 270.88 171.14 Z" fill="#ececec" />
<path d="M 19.31 171.66 C 19.72 172.00 20.13 172.35 20.53 172.71 C 16.34 191.10 13.66 209.75 11.65 228.49 C 9.84 251.07 8.29 274.36 9.54 296.97 C 9.74 300.08 9.62 303.49 10.54 306.49 C 11.84 309.72 15.78 311.18 18.75 312.45 C 39.34 320.44 61.17 322.21 83.04 322.73 C 87.85 323.02 90.66 319.86 94.46 317.49 C 103.58 311.52 112.80 305.53 122.45 300.46 C 140.67 292.58 159.40 285.72 178.13 279.16 C 208.44 268.84 239.45 259.74 270.95 253.82 C 278.18 252.30 285.57 251.58 292.83 250.16 C 267.16 250.67 241.44 253.24 216.23 258.10 C 230.44 252.70 245.33 248.78 260.10 245.22 C 277.21 241.25 294.52 238.22 312.03 236.71 C 314.87 236.37 318.84 236.20 320.82 233.85 C 323.60 231.02 322.98 226.40 323.37 222.72 C 338.59 224.25 353.83 224.85 369.10 225.49 C 365.92 227.44 363.69 227.87 360.00 227.63 C 352.25 227.10 344.54 227.44 337.06 225.95 C 334.89 224.52 333.16 223.87 331.03 225.80 C 329.21 225.51 327.38 225.27 325.56 225.03 C 325.01 228.99 325.39 233.23 322.07 236.07 C 317.79 240.40 310.64 238.42 304.90 239.78 C 304.02 237.71 302.10 238.67 300.91 239.87 C 299.53 240.23 298.15 240.59 296.78 240.95 C 296.37 239.33 295.76 239.37 294.97 241.09 C 280.71 243.37 266.20 245.70 252.39 249.96 C 262.00 249.26 271.59 248.60 281.22 248.18 C 285.82 248.96 289.95 249.16 294.62 248.75 C 295.03 249.88 295.41 251.03 295.74 252.20 C 291.20 253.10 286.63 253.73 282.05 254.37 C 257.73 258.38 233.83 264.31 210.26 271.47 C 185.75 278.89 161.56 287.35 137.76 296.78 C 131.10 299.45 124.58 301.75 118.39 305.45 C 109.46 310.74 100.60 316.20 92.08 322.13 C 90.53 323.11 88.74 324.40 86.90 324.68 C 82.02 323.86 78.17 323.81 73.32 324.91 C 65.38 324.94 57.30 323.77 49.44 322.65 C 38.80 321.33 28.22 318.65 18.19 314.90 C 14.07 313.19 8.86 310.87 7.86 306.02 C 6.70 300.53 7.03 294.61 6.95 289.01 C 7.10 276.30 6.56 263.69 7.57 251.01 C 7.90 238.94 9.58 227.04 10.67 215.03 C 12.29 205.21 13.30 195.31 15.37 185.58 C 16.33 181.11 16.48 175.37 19.31 171.66 Z" fill="#dae0da" />
<path d="M 45.98 172.69 C 59.62 173.72 73.08 176.29 85.78 181.49 C 85.21 188.36 83.94 195.13 83.21 201.98 C 81.38 220.98 79.90 239.90 79.81 259.00 C 79.69 277.59 79.61 296.30 80.57 314.87 C 62.83 314.58 44.60 312.77 27.61 307.43 C 24.50 306.37 21.03 305.37 18.35 303.45 C 16.96 301.10 17.23 297.64 17.09 295.00 C 17.15 284.66 16.90 274.33 17.16 264.00 C 17.50 248.89 19.04 233.68 20.55 218.64 C 22.73 203.25 24.75 187.55 28.70 172.50 C 34.38 171.96 40.29 172.27 45.98 172.69 Z" fill="#333133" />
<path d="M 294.57 170.97 C 294.81 172.75 295.05 174.54 295.28 176.33 C 293.57 177.24 291.85 178.12 290.13 179.00 C 290.06 177.14 289.96 175.29 289.96 173.43 C 291.47 172.57 293.03 171.78 294.57 170.97 Z" fill="#ececec" />
<path d="M 143.22 173.27 C 152.35 172.20 161.98 172.72 170.79 175.45 C 181.44 179.01 188.80 188.11 192.62 198.38 C 199.31 217.10 194.67 239.55 181.12 254.11 C 174.95 260.69 167.05 265.42 158.00 266.59 C 149.09 267.71 139.66 269.24 130.97 266.16 C 121.17 262.85 113.82 254.51 109.80 245.19 C 102.16 227.23 105.54 205.56 117.08 190.04 C 123.57 181.50 132.48 175.03 143.22 173.27 Z" fill="#1f1f1f" />
<path d="M 303.12 173.72 C 303.23 175.60 303.33 177.48 303.43 179.36 C 301.72 180.72 300.01 182.06 298.28 183.40 C 298.20 181.52 298.12 179.65 298.03 177.78 C 299.72 176.42 301.42 175.07 303.12 173.72 Z" fill="#e9e9e9" />
<path d="M 246.33 174.39 C 247.95 175.78 247.85 177.58 248.41 179.51 C 247.28 178.94 246.15 178.35 245.03 177.73 C 245.42 176.60 245.85 175.49 246.33 174.39 Z" fill="#9f9f9f" />
<path d="M 287.12 174.88 C 287.31 176.69 287.49 178.51 287.67 180.32 C 285.93 180.84 284.20 181.37 282.46 181.90 C 282.35 180.09 282.23 178.30 282.21 176.48 C 283.83 175.91 285.47 175.40 287.12 174.88 Z" fill="#ececec" />
<path d="M 159.64 177.23 C 161.83 177.66 163.97 178.26 166.10 178.91 C 166.34 179.80 166.57 180.69 166.80 181.57 C 163.74 180.72 161.83 179.50 159.64 177.23 Z" fill="#969796" />
<path d="M 250.37 176.65 C 252.14 177.21 253.91 177.75 255.68 178.29 C 255.69 179.70 255.69 181.12 255.69 182.53 C 253.97 181.93 252.26 181.33 250.54 180.72 C 250.48 179.37 250.43 178.01 250.37 176.65 Z" fill="#ececec" />
<path d="M 279.62 177.52 C 279.71 179.28 279.79 181.05 279.88 182.81 C 278.08 183.19 276.28 183.56 274.48 183.93 C 274.45 182.14 274.41 180.35 274.37 178.56 C 276.12 178.22 277.87 177.87 279.62 177.52 Z" fill="#eaeaea" />
<path d="M 309.45 176.57 C 309.49 178.61 309.50 180.66 309.51 182.70 C 308.39 183.94 307.26 185.18 306.13 186.41 C 306.17 184.40 306.18 182.38 306.30 180.36 C 307.30 179.05 308.37 177.81 309.45 176.57 Z" fill="#ecebec" />
<path d="M 143.40 177.58 C 139.39 181.16 135.31 183.91 131.91 187.92 C 122.56 198.96 118.00 213.59 119.00 228.00 C 119.41 237.56 122.74 246.84 128.63 254.39 C 131.55 258.06 135.80 260.97 139.35 264.09 C 135.47 263.41 131.74 262.70 128.25 260.75 C 120.00 256.39 114.44 247.90 111.72 239.17 C 107.31 223.97 110.13 206.36 119.42 193.47 C 125.36 185.47 133.18 178.84 143.40 177.58 Z" fill="#333133" />
<path d="M 152.52 177.62 C 156.37 178.34 159.46 180.37 162.58 182.60 C 161.48 183.09 160.38 183.59 159.27 184.08 C 156.96 181.97 154.59 179.97 152.52 177.62 Z" fill="#b5b5b5" />
<path d="M 258.50 178.82 C 260.23 178.95 261.95 179.08 263.68 179.21 C 263.71 180.78 263.74 182.35 263.76 183.92 C 262.02 183.82 260.28 183.72 258.55 183.62 C 258.53 182.02 258.52 180.42 258.50 178.82 Z" fill="#ecebec" />
<path d="M 266.67 179.47 C 268.31 179.12 270.00 178.98 271.66 178.78 C 271.67 180.57 271.67 182.36 271.67 184.15 C 269.84 184.17 268.01 184.19 266.18 184.21 C 266.31 182.63 266.40 181.03 266.67 179.47 Z" fill="#ebeaeb" />
<path d="M 295.71 179.24 C 295.59 181.17 295.65 183.20 295.23 185.09 C 293.62 186.21 291.76 187.02 290.00 187.89 C 290.15 185.92 290.31 183.95 290.46 181.99 C 292.21 181.08 293.96 180.16 295.71 179.24 Z" fill="#ececec" />
<path d="M 156.47 184.77 C 155.32 185.27 154.17 185.76 153.02 186.25 C 151.07 184.27 149.10 182.34 147.35 180.17 C 151.47 179.85 153.49 182.51 156.47 184.77 Z" fill="#ebeceb" />
<path d="M 172.17 180.16 C 174.25 180.28 175.61 181.37 176.68 183.10 C 174.23 183.93 172.98 182.22 172.17 180.16 Z" fill="#6f6e6f" />
<path d="M 244.50 180.52 C 245.71 180.98 246.91 181.45 248.11 181.93 C 248.03 183.33 247.94 184.73 247.85 186.13 C 245.65 184.28 244.28 183.70 244.50 180.52 Z" fill="#afafaf" />
<path d="M 144.89 182.09 C 146.64 183.53 148.25 185.09 149.87 186.66 C 148.48 187.07 147.09 187.47 145.70 187.87 C 144.48 186.43 143.27 184.99 142.07 183.53 C 143.00 183.04 143.95 182.56 144.89 182.09 Z" fill="#b3b4b3" />
<path d="M 169.50 181.83 C 171.05 182.85 172.47 184.01 173.94 185.13 C 172.86 185.91 171.77 186.68 170.69 187.45 C 169.42 186.04 168.17 184.62 166.92 183.19 C 167.78 182.73 168.64 182.28 169.50 181.83 Z" fill="#c4c6c4" />
<path d="M 250.38 183.63 C 252.25 184.09 254.07 184.77 255.90 185.37 C 255.60 186.78 255.30 188.19 255.00 189.59 C 253.50 188.74 251.72 188.03 250.46 186.82 C 250.37 185.77 250.34 184.71 250.38 183.63 Z" fill="#ececec" />
<path d="M 177.75 184.16 C 179.26 185.02 180.66 186.05 182.06 187.08 C 181.52 187.90 180.97 188.72 180.43 189.55 C 179.26 187.78 177.92 186.39 177.75 184.16 Z" fill="#bbbdbb" />
<path d="M 287.65 183.10 C 287.49 185.06 287.31 187.03 287.13 188.99 C 285.37 189.42 283.61 189.85 281.84 190.27 C 282.00 188.49 282.14 186.71 282.36 184.94 C 284.09 184.26 285.88 183.70 287.65 183.10 Z" fill="#ececec" />
<path d="M 303.46 182.82 C 303.36 184.94 303.25 187.06 303.14 189.18 C 301.17 190.46 299.21 191.74 297.22 192.98 C 297.59 190.95 297.68 188.69 298.42 186.75 C 299.96 185.29 301.77 184.09 303.46 182.82 Z" fill="#ececec" />
<path d="M 164.49 184.55 C 165.78 185.97 167.08 187.38 168.36 188.81 C 167.04 189.41 165.73 190.01 164.41 190.61 C 163.43 189.19 162.44 187.78 161.45 186.37 C 162.46 185.76 163.48 185.16 164.49 184.55 Z" fill="#ececec" />
<path d="M 34.31 186.27 C 35.94 185.88 38.69 185.96 39.04 188.06 C 39.99 190.58 37.19 193.70 34.66 192.42 C 32.03 191.75 32.02 187.39 34.31 186.27 Z" fill="#1f1f1f" />
<path d="M 140.04 185.47 C 140.98 186.30 141.90 187.15 142.80 188.01 C 140.78 188.09 138.76 188.14 136.74 188.13 C 137.83 187.22 138.93 186.33 140.04 185.47 Z" fill="#a1a1a1" />
<path d="M 218.80 186.69 C 218.94 189.73 218.90 192.75 218.92 195.79 C 220.48 195.54 222.05 195.28 223.61 195.03 C 223.63 197.92 223.65 200.81 223.69 203.70 C 222.08 204.15 220.46 204.61 218.84 205.06 C 218.72 212.98 219.24 220.99 218.66 228.88 C 219.05 230.34 215.17 231.59 215.47 229.76 C 214.74 227.34 214.87 224.52 214.85 222.00 C 214.93 216.66 214.93 211.33 214.87 206.00 C 213.31 206.34 211.74 206.68 210.18 207.01 C 210.18 204.08 210.18 201.14 210.19 198.20 C 211.74 197.75 213.30 197.31 214.85 196.86 C 214.88 193.67 214.67 190.32 215.28 187.18 C 216.24 185.82 217.44 186.59 218.80 186.69 Z" fill="#1f1f1f" />
<path d="M 244.03 186.40 C 245.26 186.96 246.44 187.61 247.65 188.26 C 247.34 189.38 247.04 190.50 246.74 191.62 C 245.81 190.71 244.89 189.81 244.00 188.86 C 243.99 188.04 244.00 187.22 244.03 186.40 Z" fill="#a7a8a7" />
<path d="M 258.16 186.18 C 259.90 186.39 261.63 186.59 263.36 186.79 C 263.26 188.36 263.16 189.94 263.07 191.51 C 261.30 191.10 259.54 190.68 257.78 190.25 C 257.91 188.89 258.03 187.53 258.16 186.18 Z" fill="#e9ebe9" />
<path d="M 274.52 186.83 C 276.14 186.31 277.84 186.01 279.50 185.63 C 279.33 187.44 279.15 189.26 278.96 191.08 C 277.16 191.39 275.35 191.70 273.55 192.01 C 273.84 190.29 274.05 188.52 274.52 186.83 Z" fill="#ececec" />
<path d="M 158.81 187.18 C 159.83 188.76 160.85 190.33 161.87 191.90 C 160.50 192.38 159.12 192.87 157.75 193.35 C 156.75 191.75 155.75 190.15 154.74 188.56 C 156.10 188.10 157.46 187.65 158.81 187.18 Z" fill="#ececec" />
<path d="M 175.56 187.38 C 176.53 188.63 177.45 189.91 178.38 191.20 C 177.21 192.19 176.04 193.17 174.87 194.15 C 174.02 192.65 173.17 191.14 172.33 189.64 C 173.40 188.88 174.46 188.10 175.56 187.38 Z" fill="#e9e9e9" />
<path d="M 266.35 186.84 C 268.07 186.96 269.79 187.08 271.51 187.19 C 271.28 188.86 271.04 190.52 270.80 192.19 C 269.06 192.08 267.33 191.97 265.60 191.85 C 265.85 190.18 266.10 188.51 266.35 186.84 Z" fill="#ececec" />
<path d="M 295.02 188.55 C 294.81 190.58 294.50 192.60 294.20 194.62 C 292.26 195.33 290.31 196.05 288.37 196.78 C 288.81 194.79 289.23 192.80 289.66 190.81 C 291.44 190.03 293.21 189.26 295.02 188.55 Z" fill="#eaebea" />
<path d="M 309.01 187.14 C 308.60 189.51 308.49 192.26 307.43 194.46 C 306.47 195.79 305.10 196.86 303.90 197.97 C 304.90 193.67 305.25 190.02 309.01 187.14 Z" fill="#e5e8e5" />
<path d="M 147.44 190.24 C 148.95 189.96 150.46 189.68 151.97 189.40 C 152.95 191.03 153.93 192.66 154.91 194.29 C 153.36 194.69 151.80 195.10 150.25 195.50 C 149.32 193.74 148.38 191.99 147.44 190.24 Z" fill="#ececec" />
<path d="M 183.47 189.46 C 184.38 190.69 185.29 191.92 186.19 193.15 C 185.46 194.04 184.73 194.93 183.99 195.82 C 183.27 194.48 182.55 193.14 181.83 191.79 C 182.38 191.02 182.92 190.24 183.47 189.46 Z" fill="#c5c9c5" />
<path d="M 250.07 190.11 C 251.64 190.66 253.17 191.33 254.69 191.98 C 254.47 193.24 254.25 194.49 254.03 195.74 C 252.45 194.80 250.84 193.87 249.31 192.84 C 249.53 191.92 249.79 191.01 250.07 190.11 Z" fill="#ebe8eb" />
<path d="M 135.08 190.29 C 136.64 192.08 137.88 194.08 139.10 196.11 C 137.08 195.98 135.05 195.85 133.03 195.71 C 132.89 194.93 132.77 194.16 132.65 193.38 C 133.40 192.31 134.25 191.29 135.08 190.29 Z" fill="#ececec" />
<path d="M 139.55 191.15 C 141.19 191.02 142.82 190.88 144.46 190.75 C 145.37 192.39 146.27 194.04 147.17 195.70 C 145.51 195.89 143.84 196.09 142.18 196.29 C 141.29 194.58 140.42 192.87 139.55 191.15 Z" fill="#ececec" />
<path d="M 169.94 191.19 C 170.83 192.66 171.64 194.17 172.45 195.69 C 171.05 196.55 169.65 197.41 168.25 198.25 C 167.48 196.59 166.69 194.94 166.01 193.23 C 167.30 192.50 168.61 191.82 169.94 191.19 Z" fill="#ececec" />
<path d="M 205.83 191.16 C 206.78 199.02 205.93 207.14 206.26 215.07 C 207.89 214.72 209.52 214.38 211.15 214.03 C 211.15 216.99 211.15 219.95 211.15 222.90 C 209.52 223.31 207.89 223.72 206.26 224.13 C 206.23 227.69 206.19 231.25 206.10 234.81 C 205.00 234.85 203.89 234.87 202.79 234.90 C 202.67 231.55 202.61 228.21 202.55 224.87 C 200.93 225.28 199.31 225.70 197.68 226.11 C 197.68 223.14 197.67 220.16 197.67 217.18 C 199.31 216.72 200.96 216.25 202.61 215.78 C 202.77 208.18 202.35 200.53 202.73 192.94 C 203.12 190.92 203.76 190.10 205.83 191.16 Z" fill="#1f1f1f" />
<path d="M 286.71 191.97 C 286.20 193.84 285.93 195.99 284.95 197.68 C 283.27 198.35 281.43 198.67 279.68 199.12 C 280.16 197.21 280.62 195.27 281.19 193.38 C 283.02 192.86 284.86 192.41 286.71 191.97 Z" fill="#ececec" />
<path d="M 70.36 193.38 C 72.43 192.14 75.10 192.70 75.84 195.15 C 76.53 197.65 74.49 199.68 72.00 199.27 C 69.02 199.11 68.11 195.07 70.36 193.38 Z" fill="#1f1f1f" />
<path d="M 244.60 192.82 C 246.12 192.86 247.12 194.58 246.10 195.82 C 244.47 196.63 244.17 193.82 244.60 192.82 Z" fill="#8a8a8a" />
<path d="M 257.55 192.88 C 259.14 193.35 260.73 193.81 262.31 194.27 C 261.89 195.58 261.46 196.90 261.03 198.21 C 259.52 197.76 258.01 197.32 256.50 196.88 C 256.85 195.55 257.20 194.21 257.55 192.88 Z" fill="#ececec" />
<path d="M 179.88 193.97 C 180.61 195.32 181.29 196.69 181.98 198.06 C 180.55 199.29 179.13 200.52 177.71 201.74 C 177.17 200.00 176.62 198.26 176.08 196.51 C 177.34 195.66 178.60 194.79 179.88 193.97 Z" fill="#ececec" />
<path d="M 265.42 194.80 C 266.98 194.70 268.55 194.77 270.10 194.79 C 269.56 196.45 268.98 198.10 268.42 199.75 C 266.75 199.37 265.08 198.98 263.41 198.59 C 264.05 197.32 264.65 196.00 265.42 194.80 Z" fill="#ececec" />
<path d="M 273.19 194.90 C 274.82 194.48 276.53 194.24 278.20 193.97 C 277.70 195.84 277.19 197.69 276.66 199.55 C 274.83 199.67 273.00 199.78 271.16 199.87 C 271.77 198.22 272.27 196.41 273.19 194.90 Z" fill="#ebeceb" />
<path d="M 302.51 193.08 C 301.73 195.48 300.92 197.88 300.13 200.27 C 298.04 201.28 295.96 202.29 293.87 203.29 C 294.70 201.02 295.54 198.74 296.36 196.45 C 298.42 195.35 300.46 194.22 302.51 193.08 Z" fill="#ececec" />
<path d="M 163.52 194.51 C 164.25 196.18 164.95 197.86 165.63 199.56 C 163.97 200.10 162.31 200.66 160.64 201.21 C 160.08 199.47 159.52 197.73 158.94 195.99 C 160.47 195.50 162.00 195.00 163.52 194.51 Z" fill="#ecebec" />
<path d="M 187.50 195.65 C 188.10 197.12 188.69 198.59 189.29 200.06 C 188.28 201.23 187.27 202.41 186.25 203.58 C 185.92 201.87 185.54 200.16 185.28 198.44 C 186.00 197.49 186.75 196.57 187.50 195.65 Z" fill="#cbcbcb" />
<path d="M 249.05 195.79 C 250.49 196.54 251.88 197.34 253.29 198.14 C 252.81 199.18 252.32 200.21 251.83 201.24 C 250.41 200.13 249.00 199.01 247.59 197.89 C 248.07 197.19 248.56 196.49 249.05 195.79 Z" fill="#c0c1c0" />
<path d="M 156.28 197.22 C 156.91 198.84 157.47 200.48 158.02 202.13 C 156.35 202.60 154.66 203.06 152.98 203.50 C 152.41 201.68 151.85 199.87 151.30 198.05 C 152.95 197.76 154.61 197.43 156.28 197.22 Z" fill="#ececec" />
<path d="M 221.81 197.39 C 221.76 199.06 221.72 200.74 221.66 202.41 C 218.47 203.14 215.27 203.85 212.07 204.53 C 212.11 202.84 212.15 201.14 212.20 199.44 C 215.40 198.75 218.60 198.06 221.81 197.39 Z" fill="#dbdfdb" />
<path d="M 130.99 197.35 C 131.71 199.38 132.41 201.42 133.08 203.48 C 131.27 202.89 129.46 202.30 127.69 201.60 C 128.58 199.87 129.52 198.63 130.99 197.35 Z" fill="#ececec" />
<path d="M 134.58 198.83 C 136.44 198.91 138.30 199.00 140.16 199.08 C 140.69 200.84 141.22 202.61 141.75 204.37 C 139.93 204.27 138.12 204.17 136.30 204.08 C 135.72 202.33 135.14 200.58 134.58 198.83 Z" fill="#ececec" />
<path d="M 143.21 199.01 C 144.97 198.91 146.73 198.81 148.48 198.71 C 148.99 200.49 149.50 202.28 149.98 204.07 C 148.21 204.16 146.43 204.25 144.66 204.34 C 144.18 202.56 143.70 200.79 143.21 199.01 Z" fill="#ececec" />
<path d="M 173.84 198.23 C 174.23 200.07 174.62 201.91 174.99 203.75 C 173.45 204.60 171.91 205.45 170.38 206.30 C 169.96 204.55 169.54 202.80 169.10 201.06 C 170.68 200.11 172.26 199.17 173.84 198.23 Z" fill="#ececec" />
<path d="M 255.76 199.47 C 257.29 199.78 258.79 200.33 260.28 200.81 C 259.61 201.95 258.95 203.10 258.29 204.25 C 256.88 203.59 255.47 202.94 254.07 202.28 C 254.62 201.33 255.15 200.38 255.76 199.47 Z" fill="#ececec" />
<path d="M 292.99 198.03 C 292.02 200.06 291.41 202.93 289.75 204.54 C 287.98 205.41 285.99 205.95 284.12 206.56 C 285.09 204.45 286.03 202.31 287.11 200.25 L 288.57 199.61 C 290.03 199.06 291.50 198.53 292.99 198.03 Z" fill="#e9e9e9" />
<path d="M 313.28 199.08 C 323.49 202.06 333.80 204.63 344.19 206.88 C 341.04 208.32 337.83 209.64 334.64 210.97 C 342.01 215.41 349.81 218.64 358.00 221.23 C 343.10 220.24 328.16 219.12 313.37 217.10 C 317.04 215.11 320.75 213.19 324.43 211.22 C 320.23 207.62 316.42 203.66 313.28 199.08 Z" fill="#dbe3db" />
<path d="M 305.65 199.68 C 303.49 204.61 301.84 209.20 296.63 211.66 C 299.41 207.09 300.76 202.38 305.65 199.68 Z" fill="#b5b6b5" />
<path d="M 183.03 200.96 C 183.40 202.57 183.85 204.25 183.94 205.89 C 183.13 207.68 180.93 208.97 179.51 210.33 C 179.17 208.46 178.82 206.59 178.47 204.72 C 179.98 203.45 181.47 202.17 183.03 200.96 Z" fill="#ececec" />
<path d="M 246.33 200.42 C 247.91 201.33 249.46 202.29 251.01 203.26 C 250.40 204.29 249.80 205.32 249.19 206.35 C 247.58 204.45 246.62 202.94 246.33 200.42 Z" fill="#b4b4b4" />
<path d="M 262.95 201.78 C 264.43 201.65 265.96 201.86 267.44 201.92 C 266.66 203.46 265.88 205.00 265.10 206.53 C 263.55 206.09 262.01 205.64 260.48 205.18 C 261.28 204.03 262.04 202.84 262.95 201.78 Z" fill="#ececec" />
<path d="M 283.88 200.98 C 282.89 202.94 281.86 204.88 280.80 206.80 C 279.10 206.98 277.39 207.16 275.67 207.32 C 276.54 205.59 277.40 203.84 278.33 202.14 C 280.17 201.68 282.02 201.34 283.88 200.98 Z" fill="#ececec" />
<path d="M 270.37 202.59 C 272.00 202.36 273.68 202.35 275.33 202.28 C 274.36 203.95 273.39 205.61 272.41 207.28 C 270.87 207.19 269.34 207.11 267.80 207.02 C 268.61 205.53 269.36 203.95 270.37 202.59 Z" fill="#ececec" />
<path d="M 166.45 202.27 C 166.87 204.05 167.30 205.82 167.72 207.60 C 165.98 208.31 164.24 209.01 162.49 209.70 C 162.19 207.83 161.90 205.96 161.60 204.09 C 163.22 203.48 164.84 202.88 166.45 202.27 Z" fill="#ececec" />
<path d="M 189.88 203.68 C 190.51 205.09 190.96 206.51 191.46 207.97 C 190.40 209.42 189.34 210.86 188.29 212.31 C 187.97 210.52 187.64 208.73 187.39 206.92 C 188.17 205.80 189.01 204.74 189.88 203.68 Z" fill="#ececec" />
<path d="M 128.03 204.86 C 129.96 205.41 131.90 205.96 133.83 206.50 C 134.03 208.10 134.22 209.70 134.41 211.30 C 132.50 210.70 130.61 210.08 128.72 209.44 C 128.49 207.92 128.26 206.39 128.03 204.86 Z" fill="#ececec" />
<path d="M 158.90 204.97 C 159.13 206.79 159.37 208.62 159.61 210.44 C 157.85 210.90 156.09 211.36 154.33 211.82 C 154.09 210.01 153.85 208.19 153.61 206.38 C 155.38 205.92 157.14 205.45 158.90 204.97 Z" fill="#ececec" />
<path d="M 253.17 204.94 C 254.46 205.41 255.73 205.93 256.99 206.44 C 256.23 207.52 255.47 208.59 254.71 209.66 C 253.54 208.94 252.37 208.21 251.21 207.47 C 251.85 206.62 252.51 205.78 253.17 204.94 Z" fill="#eaebea" />
<path d="M 298.21 204.37 C 296.45 206.84 294.80 209.53 292.72 211.74 C 291.06 213.69 288.15 214.08 285.80 214.83 C 287.80 212.22 289.81 209.62 291.78 206.99 C 292.77 206.60 293.76 206.21 294.74 205.81 C 295.90 205.34 297.05 204.86 298.21 204.37 Z" fill="#ececec" />
<path d="M 137.04 207.08 C 138.84 207.13 140.65 207.18 142.46 207.25 C 142.63 209.02 142.80 210.79 142.95 212.56 C 141.11 212.39 139.26 212.22 137.42 212.03 C 137.29 210.38 137.16 208.73 137.04 207.08 Z" fill="#ececec" />
<path d="M 145.34 207.25 C 147.17 207.09 148.99 206.92 150.81 206.76 C 151.02 208.58 151.22 210.41 151.40 212.24 C 149.57 212.36 147.74 212.48 145.91 212.59 C 145.75 211.06 145.59 209.52 145.42 207.99 L 145.34 207.25 Z" fill="#ececec" />
<path d="M 175.87 206.46 C 176.20 208.34 176.54 210.22 176.88 212.10 C 175.08 213.09 173.29 214.08 171.49 215.06 C 171.30 213.15 171.12 211.24 170.94 209.33 C 172.58 208.38 174.23 207.42 175.87 206.46 Z" fill="#ececec" />
<path d="M 259.48 207.53 C 260.91 207.92 262.32 208.37 263.74 208.82 C 262.62 210.01 261.53 211.28 260.27 212.31 C 258.99 212.13 257.73 211.66 256.49 211.29 C 257.47 210.03 258.44 208.74 259.48 207.53 Z" fill="#bababa" />
<path d="M 287.59 208.31 C 285.96 210.40 284.26 212.58 282.24 214.31 C 280.87 215.66 278.48 215.53 276.69 215.91 C 278.05 214.20 279.44 212.50 280.93 210.90 C 282.36 208.96 285.40 208.93 287.59 208.31 Z" fill="#ebeceb" />
<path d="M 266.29 209.76 C 267.66 209.65 269.07 209.73 270.45 209.76 C 269.07 211.40 267.65 213.02 266.21 214.61 C 265.01 214.23 263.82 213.84 262.62 213.46 C 263.80 212.21 264.92 210.81 266.29 209.76 Z" fill="#ebeceb" />
<path d="M 184.96 209.35 C 185.11 211.35 185.25 213.36 185.38 215.37 C 183.57 216.83 181.76 218.28 179.89 219.68 C 179.85 217.64 179.82 215.61 179.77 213.58 C 181.51 212.18 183.24 210.76 184.96 209.35 Z" fill="#ececec" />
<path d="M 250.25 209.99 C 251.47 209.20 253.74 211.20 252.81 212.48 C 251.57 213.36 249.50 211.23 250.25 209.99 Z" fill="#6f6c6f" />
<path d="M 273.60 210.30 C 275.18 210.04 276.81 210.04 278.40 209.94 C 276.64 211.85 274.83 213.71 273.01 215.57 C 271.77 215.45 270.53 215.33 269.29 215.22 C 270.68 213.56 272.03 211.79 273.60 210.30 Z" fill="#ececec" />
<path d="M 125.01 210.85 C 126.56 211.22 126.24 213.76 125.98 214.92 C 123.98 214.59 122.86 211.73 125.01 210.85 Z" fill="#d6d6d6" />
<path d="M 167.94 210.60 C 168.19 212.48 168.38 214.36 168.57 216.24 C 166.80 216.96 165.03 217.67 163.26 218.38 C 163.05 216.50 162.87 214.61 162.68 212.72 C 163.38 212.44 164.08 212.16 164.78 211.88 C 165.83 211.45 166.89 211.03 167.94 210.60 Z" fill="#e9e9e9" />
<path d="M 129.28 212.70 C 131.09 213.09 132.87 213.67 134.65 214.18 C 134.72 215.76 134.79 217.34 134.86 218.92 C 132.91 218.22 130.95 217.51 129.00 216.79 C 129.08 215.43 129.13 214.06 129.28 212.70 Z" fill="#ececec" />
<path d="M 191.72 212.52 C 191.73 214.62 191.74 216.72 191.75 218.82 C 190.59 220.20 189.43 221.58 188.26 222.95 C 188.27 220.72 188.28 218.48 188.30 216.25 C 189.44 215.01 190.58 213.77 191.72 212.52 Z" fill="#ececec" />
<path d="M 258.37 214.13 C 257.35 215.15 256.30 216.14 255.26 217.13 C 254.69 216.27 254.13 215.41 253.57 214.54 C 255.56 212.42 255.95 213.40 258.37 214.13 Z" fill="#bcbdbc" />
<path d="M 160.08 213.52 C 160.13 215.31 160.17 217.10 160.22 218.88 C 158.34 219.41 156.46 219.89 154.57 220.36 C 154.53 218.47 154.50 216.57 154.46 214.68 C 156.34 214.30 158.21 213.91 160.08 213.52 Z" fill="#ececec" />
<path d="M 137.67 215.07 C 139.52 215.18 141.38 215.30 143.23 215.42 C 143.23 217.10 143.22 218.79 143.22 220.48 C 141.39 220.27 139.56 220.06 137.73 219.84 C 137.71 218.25 137.69 216.66 137.67 215.07 Z" fill="#ececec" />
<path d="M 146.14 215.47 C 147.98 215.39 149.83 215.30 151.67 215.21 C 151.65 217.05 151.64 218.88 151.62 220.71 C 149.80 220.76 147.97 220.80 146.14 220.84 C 146.14 219.05 146.14 217.26 146.14 215.47 Z" fill="#ececec" />
<path d="M 260.50 215.92 C 261.73 215.81 263.00 215.96 264.22 216.01 C 261.82 218.12 260.42 220.08 256.87 219.16 C 258.02 218.07 259.13 216.73 260.50 215.92 Z" fill="#a7a6a7" />
<path d="M 295.85 214.38 C 292.71 218.15 288.69 220.53 284.22 222.39 C 287.94 219.14 290.93 215.79 295.85 214.38 Z" fill="#898a89" />
<path d="M 176.87 215.38 C 176.87 217.43 176.88 219.47 176.86 221.52 C 175.00 222.46 173.13 223.39 171.27 224.32 C 171.34 222.33 171.40 220.35 171.45 218.36 C 173.26 217.36 175.06 216.37 176.87 215.38 Z" fill="#ececec" />
<path d="M 123.00 216.59 C 124.17 217.14 125.33 217.70 126.49 218.26 C 126.39 219.54 126.28 220.82 126.16 222.09 C 125.03 221.36 123.89 220.63 122.76 219.89 C 122.84 218.79 122.92 217.69 123.00 216.59 Z" fill="#acacac" />
<path d="M 209.14 216.37 C 209.15 218.01 209.17 219.65 209.18 221.29 C 206.01 222.08 202.85 222.89 199.67 223.66 C 199.67 221.99 199.67 220.33 199.67 218.66 C 202.83 217.92 205.98 217.15 209.14 216.37 Z" fill="#dbe2db" />
<path d="M 270.08 217.76 C 267.41 219.87 264.76 221.37 261.46 222.27 C 262.71 220.70 264.14 218.79 265.94 217.83 C 267.24 217.45 268.76 217.77 270.08 217.76 Z" fill="#b0afb0" />
<path d="M 286.80 217.36 C 282.45 220.62 277.79 223.11 272.54 224.57 C 275.45 222.34 278.46 220.21 281.49 218.14 C 283.26 217.79 285.01 217.59 286.80 217.36 Z" fill="#9c9c9c" />
<path d="M 277.49 217.80 C 274.19 220.84 270.71 222.62 266.38 223.75 C 269.66 220.65 272.67 217.82 277.49 217.80 Z" fill="#a5a5a5" />
<path d="M 129.08 219.89 C 130.96 220.52 132.84 221.15 134.73 221.77 C 134.57 223.24 134.41 224.72 134.25 226.19 C 132.54 225.36 130.83 224.53 129.12 223.70 C 129.11 222.43 129.09 221.16 129.08 219.89 Z" fill="#ececec" />
<path d="M 168.57 219.48 C 168.44 221.43 168.30 223.39 168.16 225.35 C 166.25 226.00 164.34 226.63 162.43 227.26 C 162.60 225.35 162.78 223.45 162.99 221.55 C 164.82 220.77 166.70 220.14 168.57 219.48 Z" fill="#ececec" />
<path d="M 185.49 219.16 C 185.30 221.30 185.29 223.54 184.78 225.63 C 183.11 227.27 180.97 228.50 179.02 229.78 C 179.21 227.60 179.43 225.43 179.67 223.25 C 181.60 221.88 183.54 220.51 185.49 219.16 Z" fill="#ecebec" />
<path d="M 160.03 222.11 C 159.83 224.01 159.62 225.92 159.41 227.83 C 157.55 228.14 155.69 228.45 153.82 228.75 C 154.02 226.92 154.21 225.08 154.39 223.25 C 156.27 222.88 158.15 222.50 160.03 222.11 Z" fill="#ebeceb" />
<path d="M 122.64 223.06 C 123.88 223.63 125.09 224.30 126.30 224.94 C 126.15 226.07 126.00 227.20 125.85 228.33 C 124.78 227.62 123.72 226.92 122.68 226.18 C 122.63 225.14 122.62 224.11 122.64 223.06 Z" fill="#9e9f9e" />
<path d="M 137.44 222.68 C 139.28 222.93 141.12 223.18 142.96 223.42 C 142.83 225.05 142.69 226.67 142.56 228.30 C 140.77 227.92 138.99 227.55 137.21 227.14 C 137.29 225.66 137.36 224.17 137.44 222.68 Z" fill="#ececec" />
<path d="M 145.88 223.73 C 147.76 223.68 149.63 223.63 151.50 223.58 C 151.25 225.38 151.01 227.18 150.76 228.98 C 148.94 228.93 147.12 228.88 145.30 228.83 C 145.49 227.13 145.69 225.43 145.88 223.73 Z" fill="#ececec" />
<path d="M 191.26 223.78 C 190.82 226.33 190.44 229.09 189.41 231.47 C 188.52 232.84 187.05 233.88 185.86 234.97 C 186.45 232.48 186.88 229.85 187.81 227.46 C 188.71 226.07 190.08 224.94 191.26 223.78 Z" fill="#ececec" />
<path d="M 337.06 225.95 C 335.01 226.19 333.05 226.25 331.03 225.80 C 333.16 223.87 334.89 224.52 337.06 225.95 Z" fill="#bbbcbb" />
<path d="M 176.64 224.95 C 176.23 227.05 176.00 229.28 175.29 231.31 C 173.41 232.57 171.11 233.28 169.04 234.18 C 169.65 231.99 170.21 229.79 170.87 227.61 C 172.76 226.65 174.71 225.82 176.64 224.95 Z" fill="#ececec" />
<path d="M 128.73 226.75 C 130.49 227.49 132.25 228.23 134.01 228.99 C 133.56 230.22 133.11 231.45 132.67 232.69 C 131.15 231.78 129.62 230.87 128.11 229.95 C 128.32 228.89 128.52 227.82 128.73 226.75 Z" fill="#e9e9e9" />
<path d="M 167.61 228.82 C 167.00 230.98 166.35 233.12 165.64 235.25 C 163.78 235.55 161.92 235.84 160.06 236.13 C 160.61 234.22 161.14 232.31 161.78 230.42 C 163.68 229.80 165.66 229.32 167.61 228.82 Z" fill="#ececec" />
<path d="M 122.89 229.93 C 125.14 229.55 125.88 232.30 124.00 233.38 C 122.86 232.52 122.49 231.37 122.89 229.93 Z" fill="#9c9c9c" />
<path d="M 136.56 229.73 C 138.30 230.20 140.04 230.69 141.78 231.14 C 141.30 232.61 140.83 234.07 140.36 235.54 C 138.75 234.99 137.14 234.43 135.53 233.88 C 135.88 232.50 136.22 231.11 136.56 229.73 Z" fill="#ececec" />
<path d="M 184.22 229.92 C 183.44 232.50 182.65 235.07 181.82 237.64 C 179.51 238.73 177.21 239.85 174.93 240.99 C 175.92 238.55 176.88 236.10 177.78 233.63 C 179.95 232.43 182.09 231.20 184.22 229.92 Z" fill="#eceaec" />
<path d="M 144.73 231.77 C 146.47 231.63 148.25 231.79 149.99 231.85 C 149.40 233.59 148.80 235.34 148.19 237.08 C 146.50 236.74 144.80 236.40 143.11 236.05 C 143.63 234.62 144.09 233.15 144.73 231.77 Z" fill="#ececec" />
<path d="M 153.05 231.74 C 154.91 231.49 156.77 231.24 158.62 230.99 C 158.02 232.94 157.42 234.90 156.82 236.86 C 154.97 236.95 153.12 237.03 151.28 237.10 C 151.86 235.31 152.45 233.53 153.05 231.74 Z" fill="#eae9ea" />
<path d="M 126.78 232.58 C 128.61 233.44 130.42 234.32 132.23 235.22 C 131.72 236.33 131.21 237.44 130.70 238.55 C 129.49 237.65 128.28 236.74 127.12 235.76 C 126.99 234.70 126.88 233.64 126.78 232.58 Z" fill="#cdcdcd" />
<path d="M 174.33 235.26 C 173.33 237.52 172.38 239.95 170.92 241.96 C 169.17 243.08 166.91 243.51 164.96 244.20 C 165.95 241.91 167.01 239.65 168.06 237.38 C 170.15 236.67 172.23 235.92 174.33 235.26 Z" fill="#ececec" />
<path d="M 134.70 236.55 C 136.19 237.09 137.68 237.63 139.17 238.17 C 138.63 239.41 138.09 240.64 137.56 241.88 C 136.11 241.22 134.66 240.55 133.20 239.88 C 133.71 238.77 134.20 237.66 134.70 236.55 Z" fill="#ececec" />
<path d="M 124.78 237.93 C 126.41 238.65 127.97 239.44 129.28 240.67 C 128.96 241.86 128.61 243.03 128.23 244.20 C 126.37 242.23 125.00 240.75 124.78 237.93 Z" fill="#bdbfbd" />
<path d="M 187.58 236.96 C 185.37 242.20 183.48 247.11 177.98 249.68 C 180.96 245.24 182.82 239.42 187.58 236.96 Z" fill="#bec0be" />
<path d="M 142.32 239.20 C 143.92 239.14 145.55 239.33 147.15 239.44 C 146.37 241.02 145.59 242.58 144.81 244.15 C 143.16 243.74 141.52 243.32 139.87 242.89 C 140.65 241.65 141.42 240.35 142.32 239.20 Z" fill="#ececec" />
<path d="M 164.60 238.27 C 163.47 240.33 162.52 242.87 160.84 244.54 C 159.18 244.89 157.46 245.02 155.78 245.20 C 156.72 243.36 157.55 241.40 158.74 239.71 C 160.58 238.95 162.66 238.70 164.60 238.27 Z" fill="#ececec" />
<path d="M 304.90 239.78 C 303.63 240.10 302.30 240.13 300.91 239.87 C 302.10 238.67 304.02 237.71 304.90 239.78 Z" fill="#bbbcbb" />
<path d="M 150.25 240.21 C 151.96 239.92 153.72 239.88 155.44 239.76 C 154.50 241.52 153.53 243.27 152.55 245.02 C 150.83 244.92 149.10 244.80 147.38 244.69 C 148.30 243.19 149.15 241.59 150.25 240.21 Z" fill="#ececec" />
<path d="M 296.78 240.95 L 294.97 241.09 C 295.76 239.37 296.37 239.33 296.78 240.95 Z" fill="#afafaf" />
<path d="M 132.16 242.60 C 133.49 243.01 134.77 243.58 136.06 244.10 C 135.25 245.28 134.45 246.47 133.63 247.65 C 132.48 246.83 131.32 246.01 130.16 245.19 C 130.81 244.32 131.44 243.42 132.16 242.60 Z" fill="#ececec" />
<path d="M 179.69 242.09 C 177.61 245.07 175.55 248.48 172.77 250.84 C 171.01 252.03 168.60 252.37 166.59 252.98 C 168.72 250.32 170.62 247.41 172.95 244.92 C 174.98 243.65 177.45 242.96 179.69 242.09 Z" fill="#ececec" />
<path d="M 138.62 245.65 C 140.06 245.78 141.49 246.18 142.90 246.48 C 141.74 247.85 140.58 249.23 139.41 250.59 C 138.28 250.05 137.16 249.50 136.04 248.96 C 136.87 247.84 137.68 246.68 138.62 245.65 Z" fill="#ececec" />
<path d="M 168.65 246.04 C 166.43 248.68 164.11 251.18 161.67 253.61 C 160.06 253.73 158.45 253.87 156.84 254.01 C 158.83 251.84 160.70 249.57 162.71 247.43 C 164.66 246.88 166.67 246.49 168.65 246.04 Z" fill="#ececec" />
<path d="M 145.96 247.32 C 147.40 247.49 148.83 247.70 150.25 247.91 C 148.81 249.50 147.36 251.08 145.90 252.64 C 144.63 252.36 143.37 252.08 142.10 251.80 C 143.36 250.29 144.62 248.75 145.96 247.32 Z" fill="#eaeaea" />
<path d="M 129.11 248.13 C 130.25 247.52 131.51 249.23 132.09 250.04 C 130.51 251.12 128.48 250.05 129.11 248.13 Z" fill="#838283" />
<path d="M 153.60 248.42 C 155.12 247.75 157.22 247.95 158.86 247.70 C 156.96 249.84 154.98 251.87 152.87 253.82 C 151.60 253.69 150.33 253.56 149.06 253.43 C 150.53 251.73 151.94 249.93 153.60 248.42 Z" fill="#ebeceb" />
<path d="M 281.22 248.18 C 285.55 248.00 290.43 247.45 294.62 248.75 C 289.95 249.16 285.82 248.96 281.22 248.18 Z" fill="#b6b8b6" />
<path d="M 137.60 252.43 C 136.49 253.39 135.38 254.35 134.26 255.30 C 133.66 254.34 133.07 253.38 132.48 252.41 C 134.50 250.88 135.45 251.81 137.60 252.43 Z" fill="#c3c4c3" />
<path d="M 177.02 252.42 C 173.83 256.87 169.30 259.05 164.47 261.26 C 168.49 257.93 172.16 254.35 177.02 252.42 Z" fill="#8c8e8c" />
<path d="M 140.12 253.65 C 141.03 253.99 141.93 254.36 142.81 254.76 C 140.86 257.23 139.33 258.60 136.05 257.35 C 137.37 256.07 138.70 254.82 140.12 253.65 Z" fill="#b7b7b7" />
<path d="M 146.27 255.83 C 147.51 255.91 148.74 256.00 149.97 256.11 C 147.06 258.31 144.27 260.29 140.49 260.45 C 142.32 258.79 144.22 257.22 146.27 255.83 Z" fill="#bababa" />
<path d="M 157.54 256.66 C 153.98 259.48 150.15 261.63 145.61 262.37 C 149.44 259.46 152.29 256.22 157.54 256.66 Z" fill="#9e9f9e" />
<path d="M 167.36 255.62 C 162.95 259.41 157.79 261.80 152.22 263.36 C 157.11 260.42 161.50 255.36 167.36 255.62 Z" fill="#a9a8a9" />
<path d="M 26.41 289.47 C 28.96 288.75 31.64 291.78 30.29 294.23 C 29.11 296.55 25.94 296.46 24.35 294.65 C 23.39 292.49 24.16 290.30 26.41 289.47 Z" fill="#1f1f1f" />
<path d="M 70.36 294.35 C 72.61 293.74 74.56 294.13 75.78 296.25 C 76.95 299.10 73.26 301.96 70.75 300.27 C 68.38 298.76 68.98 296.32 70.36 294.35 Z" fill="#1f1f1f" />
<path d="M 86.90 324.68 C 82.35 325.23 77.88 325.01 73.32 324.91 C 78.17 323.81 82.02 323.86 86.90 324.68 Z" fill="#bcbdbc" />
</svg>