<?xml version="1.0" encoding="utf-8"?>
<!-- Generator: Adobe Illustrator 24.0.3, SVG Export Plug-In . SVG Version: 6.00 Build 0)  -->
<svg version="1.1" id="Layer_1" xmlns="http://www.w3.org/2000/svg" xmlns:xlink="http://www.w3.org/1999/xlink" x="0px" y="0px"
	 viewBox="0 0 324 343" style="enable-background:new 0 0 324 343;" xml:space="preserve">
<style type="text/css">
	.st0{fill:#261F1F;}
	.st1{fill:#9CD49C;}
</style>
<path class="st0" d="M120,30c3.5,1.8,6.7,4.1,10,6c2.1,1.4,5.5,0.7,7.9,0.6c10.9-1.2,22-1,33-0.9c6.9-0.1,13.7,1,20.5,1.3
	c3.9-2.2,7.6-5,11.7-6.8c3.7,0.8,7.2,3.2,10.6,5c18.2,9.9,34.3,24.2,45,42.1c7.4,12.1,11.9,25.6,13.5,39.7c4.3,1.9,8.7,3.3,12.8,5.6
	c0.8,8.2,2.5,16.4,3.3,24.6c-3.5,2.9-6.9,5.8-10.4,8.7c1.4,12.7,3,25.4,3.5,38.2c-3.7,0.9-7.5,1.8-11.2,2.6
	c3.3,27.6-5.2,56.5-22.2,78.4c-13.8,18-33.2,31.4-54.9,38.1c-23.7,7.1-49.9,6-72.8-3.5c-20.3-8.2-37.9-22.8-50-41.1
	C60.7,254,54.8,237.3,52.7,220c-0.7-7.8-0.5-15.6-0.1-23.4c-3.7-0.8-7.4-1.7-11-2.5c0.5-11.8,1.8-23.6,3.1-35.2
	c0-1.1,0.4-3.1-0.7-3.8c-3.1-2.7-6.3-5.3-9.4-8c1.1-8.4,2.3-16.8,3.7-25.2c4.3-1.5,8.6-3.3,12.7-5.3c1.9-22,13.1-43.4,28.4-59.1
	C91,45.8,104.9,36.4,120,30z"/>
<path class="st1" d="M190.9,73c0.7,0.7,1.3,1.5,1.9,2.3c0.1,1.5-1.4,2.2-2.3,3.1c-8.8,7.3-17.2,14.9-26,22.1c4.8,3.9,9.5,8,14.1,12
	c2.8,2.3,5.7,4.4,9.5,3.6c5.8-1.4,11.6-3.2,17.4-4.7c1,2.6,1.7,5.3,2.3,8c-5.9,1.7-12,3.1-18,4.3c-3.2,0.6-5.4-0.7-7.7-2.7
	c-6.8-6-13.8-11.8-20.6-17.7c-7.3,6.1-14.4,12.4-21.7,18.5c-2.3,1.9-4.5,2.4-7.4,1.7c-5.8-1.3-11.6-2.4-17.3-4.1
	c0.6-2.8,1.3-5.4,2.4-8c5.6,1.5,11.1,3.1,16.6,4.6c3.5,0.9,6.5-0.5,9.2-2.7c5.1-4.2,10.1-8.5,15.1-12.8
	c-9.6-8.1-19.2-16.3-28.7-24.5c0.8-1,1.6-2,2.5-3c9.9,8.1,19.5,16.6,29.3,24.8c8-6.8,16-13.6,23.9-20.5
	C187.1,75.8,188.9,74.3,190.9,73z"/>
<path class="st1" d="M49.1,105.4c0.8,1.4,0.6,2.2-0.6,2.4C47.7,106.4,47.9,105.6,49.1,105.4z"/>
<path class="st1" d="M69.2,174.2c9.3-0.4,18.7,0.6,28.1,0.3c0.3,7.7,1.5,15.7,5.9,22.2c2.2,3.1,5.7,6.4,9.8,6.1
	c4.2,0.2,7.5-2.9,9.7-6.2c4.5-6.7,5.5-14.1,6.1-21.9c21,0.2,42,0.2,63,0c0.4,7.8,1.4,15,5.7,21.6c2.3,3.2,5.2,6.3,9.4,6.4
	c4.5,0.3,7.5-2.5,10-5.9c4.7-6.8,5.6-14.3,6.2-22.3c10.3-0.2,20.5-0.5,30.8-0.6c10.3,27.9,7.2,60.2-8.5,85.5
	c-8.7,14.3-21,26.2-35.6,34.4c-18.8,10.8-41.5,15.1-62.9,11.7c-21.3-3-41.6-13.7-56.5-29.3c-10.4-10.8-18.2-23.9-22.8-38.2
	c-6-18.7-6.2-39.3-0.7-58.2C67.6,178.1,68.1,175.9,69.2,174.2z"/>
<path class="st0" d="M106.3,230.8c1.7,0,3.5,0,5.2,0c-0.3,3.7-1.1,6.7-2.5,10c13.9,13.3,32.8,21.1,52,21c19.2,0.3,38-7.1,52.2-20.1
	c-1.5-3.6-2.7-7.1-3.1-11c1.8,0,3.6,0,5.4,0c0.5,3.4,1.2,6.4,3.6,9.1c2.7,3.3,6.4,4.6,10.5,5.1c0.1,1.8,0.1,3.6,0.2,5.4
	c-3.7-0.2-6.8-1.2-10.1-2.7c-20.3,19.2-49.8,27.4-77.1,20.8c-15-3.3-28.5-11-39.7-21.4c-3.5,1.8-6.7,3-10.6,3.3c0-1.8,0-3.6,0-5.4
	c6.7-0.6,12-4.6,13.6-11.3C105.9,232.8,106.1,231.8,106.3,230.8z"/>
<path class="st1" d="M235.9,292.1c1.9-1.4,2.4,0.9,0.6,1.5C235.5,293.6,235.3,293.1,235.9,292.1z"/>
<path class="st1" d="M221.1,304.2C221.6,304.7,221.6,304.7,221.1,304.2z"/>
<path class="st1" d="M118.3,312.8l0.7-0.4l0.7,0.4l0,0.8l-0.7,0.4l-0.7-0.4L118.3,312.8z"/>
<path class="st1" d="M134.3,318.1C134.8,318.6,134.8,318.6,134.3,318.1z"/>
</svg>
