<?xml version="1.0" encoding="utf-8"?>
<!-- Generator: Adobe Illustrator 24.0.3, SVG Export Plug-In . SVG Version: 6.00 Build 0)  -->
<svg version="1.1" id="Layer_1" xmlns="http://www.w3.org/2000/svg" xmlns:xlink="http://www.w3.org/1999/xlink" x="0px" y="0px"
	 viewBox="0 0 207 194" style="enable-background:new 0 0 207 194;" xml:space="preserve">
<style type="text/css">
	.st0{fill:#ECECEC;}
	.st1{fill:#420E5F;}
	.st2{fill:#B3B2B3;}
	.st3{fill:#AFB0AF;}
	.st4{fill:#B2B2B2;}
	.st5{fill:#D6CBDA;}
	.st6{fill:#BAA4C3;}
	.st7{fill:#B3B3B3;}
	.st8{fill:#D0C2D5;}
	.st9{fill:#D5C9D9;}
	.st10{fill:#D7CEDA;}
	.st11{fill:#C5B6CD;}
	.st12{fill:#9CD49C;}
	.st13{fill:#ECE8EC;}
	.st14{fill:#B7A2C2;}
	.st15{fill:#C8B9CC;}
	.st16{fill:#EAE9EB;}
	.st17{fill:#B1B1B1;}
	.st18{fill:#B8A3C3;}
	.st19{fill:#C1AEC9;}
	.st20{fill:#CEC0D2;}
	.st21{fill:#C8BBCE;}
	.st22{fill:#C4B0CB;}
	.st23{fill:#BDAAC7;}
	.st24{fill:#D2C4D5;}
	.st25{fill:#B6B6B6;}
	.st26{fill:#BCA5C4;}
	.st27{fill:#B4B4B4;}
	.st28{fill:#CFC2D5;}
	.st29{fill:#ECEBEC;}
	.st30{fill:#B9A5C2;}
	.st31{fill:#ECEAEC;}
	.st32{fill:#B5A5C3;}
	.st33{fill:#ADADAD;}
	.st34{fill:#89A38F;}
	.st35{fill:#B7A0C1;}
	.st36{fill:#8EAD92;}
	.st37{fill:#7F8784;}
	.st38{fill:#B1B2B1;}
</style>
<path class="st0" d="M68,2.1c0.5,1.2,1.1,1.4,1.8,0.6l0-0.8c1.1,0,2.3,0,3.4,0c0.4,1.8,0.9,1.8,1.7,0.2c2.9,0.8,4.5,1.8,6.6,4
	l0.4,0.4c0.9,0.9,1.8,1.7,2.7,2.6l0.2,0.2l0.2,0.1c2.6,2.4,5,4.9,7.4,7.5c6.9-2,12.9-6.3,20-7.5l0.3-0.1l0.1-0.1
	c0.8-0.3,1.6-0.6,2.4-1c1,1.3,4.8,1.4,2.7-0.8c2.5-0.4,4.8-0.4,7.4,0c-2,2.3,1.8,2.1,2.8,0.7c2.9,1,5.8,1.8,8.5,3.3
	c3.2,1.8,6,4,9.5,5.3c2.4,0.9,4.7,0.5,7-0.3c3.9,1.7,5.4,3.9,6.8,7.8l0,0.1l0.1,0.2c0.7,0.7,1.3,1.3,2,1.9c1.1,1.3,1.8,1.1,1.9-0.6
	c0.7-0.7,1.4-1.4,2-2.1c1.5,0.7,3.2,0.4,4.1-1c5.2,0.1,7.1,3.7,10.3,7c4,0.2,8.1,0.2,12.1,0.3c-1.3,5.7-5.1,10.9-8.5,15.5l-0.1,0.1
	l-0.1,0.2c-2.8,7.4-7.9,13.9-11.4,21l-0.3,0.7c0.5,0.8,1.2,0.8,2-0.2l1.1,0.4c0.6,1.8,1.2,1.9,1.8,0.3c2.5,0.8,4.9,1.7,7.3,2.6
	c0.6,1.8,1.1,1.9,1.8,0.3c3.5,1.1,6.9,2.2,10.2,3.7c0.6,1.8,1.2,1.9,1.8,0.3c3,0.9,6,1.9,8.9,3.1v0.8c-1.8,5.5-5,10.4-9.2,14.5
	l-0.4,0.4c-1.7,1.8-2.9,2.5-5.3,3.2c-1.6-1.7-3.3-1.6-5-0.1c-0.7-0.1-1.3-0.2-2-0.3c1.7-2-0.8-2.5-1.8-0.5c-2.4,2.2-5,3.7-6.7,6.6
	c-1.6,2.5-3,3.8-5.6,5.3c-1.2-1.4-1.7-1.2-1.6,0.7c-3.2,1-6.4,2.4-9.5,3.6c0-2.3-2.9-1.1-0.8,0.3c-1.8,0.6-3.5,1-5.3,1.4l-0.2,0.1
	l-0.1,0.1c-2.8,1.6-5.9,2.7-8.9,3.9c-2.2,0.8-3.7,3.5-5.1,5.3c-3.1,1.6-2.3,3.5-2.4,6.5c0.8-0.1,1.6-0.2,2.4-0.2
	c0.6,1,1.2,2,1.7,3.1c0.9,5.9,2.6,11.5,1.9,17.6c-3.7,0.1-7.3,0.2-10.9,0.1c-2.9,0-5.5-0.3-8.1,1c-5.4,9.2-10.7,18.5-16,27.7
	c-1.2,2-2.5,3.9-4,5.7l-0.1,0.1l-0.1,0.2c-1.2,3.3-2.8,6.2-4.8,9.1h-1.9c-2-3.5-4-6.9-5.8-10.5c1.2-1.9,0.5-3.3-1.8-3
	c-4.2-7.1-8.9-14.1-12.2-21.7l-0.1-0.2l-0.1-0.1c-1.1-1.5-2.1-3-3.1-4.6c2.3-0.3,0.7-3-0.4-0.7c-0.4-0.6-0.7-1.2-1.1-1.8
	c-1.2,0.1-2.4,0.2-3.7,0.3c-4.6-0.7-9.2-0.7-13.8-0.6c-14.4,0-28.8,0-43.2,0c-0.1-1.5-0.1-3.1-0.1-4.6c2.9-6,6.3-11.7,9.6-17.4
	c12.8-0.2,25.6,0.1,38.3-0.1c-5.2-9.7-11.4-19-16.2-28.9l-0.1-0.2l-0.1-0.2c-4.5-6.2-7.9-13.2-11.8-19.8C22.8,65.1,14.6,50.4,6,35.9
	c-1.1-1.8-1.8-3.8-2.5-5.8C13.4,29.7,23.2,30,33,30c2-0.2,4,0.1,5.5-1.4c4.3-4,5.2-11.3,9.6-15.4c2.9-2.8,6.7-4.8,10.2-6.9
	C61.3,4.4,64.5,2.8,68,2.1z"/>
<path class="st0" d="M68,2.1l1.8-0.2l0,0.8C69.1,3.4,68.5,3.2,68,2.1z"/>
<path class="st0" d="M73.2,1.9l1.7,0.2C74.2,3.7,73.6,3.7,73.2,1.9z"/>
<path class="st1" d="M75,7c6.2,2.7,9.5,10.1,14.5,13.5c2.6,1.8,5.1,0.7,7.7-0.2c7.4-2.9,15.7-7.9,23.7-8.4c8.4,0,16.6,5.4,23,10.6
	c2.1-0.9,5-3,7.4-1.8c3.1,1.1,3.9,5.8,6,7.8c2.6,1.6,4.9,2.7,6.3,5.7c1.9-2,2.6-4.6,4.2-6.6c4.9-0.6,7.7,3,8.1,7.4
	c3.1,0,6.1,0,9.1,0c-10.6,19-21.9,37.6-32.3,56.6c3.2,1.5,5.5,3.9,9.2,3.5c1.7,0.1,3.1-0.7,4.6-1.4c-0.8-5.4-2-10.4,0-15.7
	c1.2-0.1,2.3-0.3,3.5-0.4c-0.4-3.2-2.3-2.9-4.8-4c0.4-1.2,0.8-2.4,1.2-3.6c11.7,3.6,23.2,7.6,34.8,11.4c-2.4,3.4-5,6.5-7.2,9.9
	c-3.1,2.4-8.6,0.4-12.2,0.1c-2.5,3.1-3.3,3.6-7.3,3.6c-1.1,3.5-1.9,7.4-5.7,8.9c-9.8,3.7-19.7,7.2-29.5,10.9
	c-1.9,3.8-4.9,7.4-6,11.5c0.2,4.4,4.3,8.1,5.6,12.4c-1.6,0.8-3.2,1.6-4.8,2.5c1.4,2.7,3.2,1.9,5.8,2.2c0,1.3,0,2.5,0,3.8
	c-6.4,0-12.7,0-19.1,0c-7.6,13-15,26.1-22.6,39.1c-8.2-14-16.3-28.1-24.3-42.2c-1.8,1.2-3.7,2.8-5.9,3.2c-2.6,0.4-5.3,0.3-8,0.3
	c-14.5-0.1-29,0-43.5,0c2.5-4.7,5.1-9.4,7.7-14.1c14.5,0,28.9,0,43.4,0c-18.8-32.8-37.7-65.5-56.5-98.2c9.2,0,18.5,0,27.7,0
	c2.4-2.5,5.3-5,7-8c1.9-3.6,2.7-7.3,5.7-10.3c3.3-3.1,7.6-5.2,11.5-7.5C66.6,7.2,71,5.2,75,7z"/>
<path class="st2" d="M81.5,6.1l0.4,0.4L81.5,6.1z"/>
<path class="st0" d="M115.1,8.2c0.9-0.4,1.8-0.7,2.7-0.8C119.9,9.7,116.1,9.6,115.1,8.2z"/>
<path class="st0" d="M125.2,7.4c0.9,0.1,1.9,0.3,2.8,0.7C127,9.6,123.2,9.7,125.2,7.4z"/>
<path class="st3" d="M84.6,9.1l0.3,0.3l-0.2-0.1L84.6,9.1z"/>
<path class="st4" d="M112.3,9.3l0.4-0.1l-0.1,0.1L112.3,9.3z"/>
<path class="st0" d="M153,16.4c-2.3,0.8-4.6,1.2-7,0.3C148.2,15.6,150.7,15.3,153,16.4z"/>
<path class="st5" d="M55.6,18.1c1.2,0.1,2.4,0.4,3.5,0.7c-1.1,1.6-2.2,3.2-3.3,4.9c2.1,1.2,4.6,1.5,5,4.4c0.6,2.1-1.1,2.2-2.3,3.5
	c0.1-1.4,0.1-2.8,0.2-4.2c-0.7-0.4-1.4-0.8-2.1-1.2c-1.2,1.3-2.4,2.5-4.1,3.3C53.2,25.6,54.2,21.8,55.6,18.1z"/>
<path class="st6" d="M147.7,22.3c0.6,1,1.1,1.9,1.7,2.9c0.5-1,1.1-2,1.6-3c0.8,1.4,1.6,2.7,2.4,4.1c-1.1-0.3-2.2-0.6-3.3-1
	c1.4,2,2.7,4,3.6,6.2c-3.4-2.1-5.7-5.1-8.1-8.3C146.3,22.9,147,22.6,147.7,22.3z"/>
<path class="st0" d="M170,22.7c-0.9,1.4-2.7,1.6-4.1,1C166.9,22.5,168.6,22.4,170,22.7z"/>
<path class="st7" d="M159.8,24.3l0-0.1l0.2,0.3L159.8,24.3z"/>
<path class="st8" d="M144.1,24.8c1.7,1.6,3.3,3.4,4.9,5.2c1.1,1.5,2.5,2.3,1.7,4.4c-3.1-2.6-6-5.4-8.9-8.2
	C142.6,25.7,143.4,25.2,144.1,24.8z"/>
<path class="st0" d="M162,26.4l1.9-0.6C163.7,27.5,163.1,27.7,162,26.4z"/>
<path class="st9" d="M140.8,27.9c3.7,2.3,7.1,4.3,8.7,8.7c-4.1-2-7.7-4.7-11.1-7.6C139.2,28.6,140,28.3,140.8,27.9z"/>
<path class="st0" d="M46.1,31.7c3,3.1,5.2,6.6,7.2,10.3c-4.1,2.5-8.2,5.1-12.4,7.5c1.8-4,3.8-7.8,5.8-11.7
	c-5.3,4.3-10.1,9.2-15.3,13.6c0.6-3.2,0.8-6.3,3.2-8.7C38.3,38.9,42.5,35.5,46.1,31.7z"/>
<path class="st10" d="M136.8,31.5c4.2,1.8,8,4,11.6,6.8l-1.5,0.9c-3.4-1-6.9-3.1-9.8-5.2L136.8,31.5z"/>
<path class="st0" d="M159.2,31.3c0.7,1.1,1.4,2.3,1.8,3.6c-4.5,3.7-7.5,7.7-10.7,12.6c-0.8-0.5-1.6-1-2.4-1.4
	C149.8,39.7,153,34.2,159.2,31.3z"/>
<path class="st0" d="M170.4,31.7c-1.1,3.2-3.2,6.9-7.2,5.3C165.4,34.6,167.1,32.3,170.4,31.7z"/>
<path class="st11" d="M136.1,36c3.5,1.8,8.4,3.1,10.5,6.5c-4.2-0.8-7.7-2.7-11.4-4.7C135.5,37.2,135.8,36.6,136.1,36z"/>
<path class="st12" d="M169.8,37.3c3.6,0.3,7.1,0.1,10.7-0.1c-9.6,16.5-18.9,33.2-28.6,49.6c-2.2-7.1-5-14-8.3-20.6
	c2.2-2.4,4.4-4.7,6.5-7.1c3.3,0.6,7.9,2.5,11.1,1.1c1.9-0.6,2.4-3,3.2-4.7c3.2-2.2,3.7-5.8,4.9-9.3c1.1-3.1-0.5-5.4-1.5-8.2
	C168.5,37.8,169.2,37.5,169.8,37.3z"/>
<path class="st12" d="M16.1,37.8c6.6,0,13.1,0,19.7,0c-2.2,2.3-4.5,4.3-5.5,7.4c-1.3,3.7-1.1,7.4-0.9,11.2c2.9-2.2,5.6-4.7,8.4-7.2
	c-0.9,2.3-1.8,4.6-2.8,6.8c6.1-3.5,12.1-7.3,18.3-10.6c1.4-0.6,3-1.6,4.6-1.5c3.9,1.3,5.4,6.3,4.5,10c-0.9,2.8-2.8,5.2-3,8.1
	c-0.2,5.1,1.6,10.3,3.5,14.9C66.2,84,70,90.7,74.2,97.2c0.1,2.1-0.1,4.7,1,6.6c1.2,2.2,3,3.9,3.4,6.3c0.9,4,1.5,8,2.8,12
	c-3.5,3.6-6.9,7.2-10.7,10.4c-2.1-3-3.9-6.2-5.7-9.5C49.3,95.4,33.4,68,17.6,40.4C17.1,39.5,16.6,38.7,16.1,37.8z"/>
<path class="st12" d="M125.7,37.8c2.2,0,4.4,0,6.6,0c-0.1,1.5-0.2,2.9-0.3,4.4c4.1,2.2,7.1,3,11.8,3c0.5,2.9,1.1,5.6,2.2,8.4
	c-1.9,2.1-3.9,4.1-5.9,6.1c-4-6.2-8.1-12.2-13.2-17.6C125.3,40.5,125.1,40,125.7,37.8z"/>
<path class="st13" d="M162.1,37.2c0,5.1-3.4,11.3-9.2,10.8C155,43.5,157.4,39.3,162.1,37.2z"/>
<path class="st0" d="M103.6,41.4c12,5.1,21.8,15.4,29.5,25.7c-9.8,10.2-19.4,20.6-29.3,30.6c-11.1-6.2-22-13.9-28.2-25.3
	c-3.2-6.4-5.4-15-2-21.8c2.2-5.2,7-8.9,12.3-10.6C91.7,38.5,98.1,38.9,103.6,41.4z"/>
<path class="st14" d="M134.1,39.6c3.5,0.6,6.3,1.9,9.1,3.9C139.5,43.2,136.1,43.5,134.1,39.6z"/>
<path class="st15" d="M165.1,40.1c1.4,0.1,2.1,0.9,2.2,2.3C165.9,42.3,165.2,41.5,165.1,40.1z"/>
<path class="st16" d="M163.7,41.5c2.5,2.2,3.4,3.3,3.6,6.8c-0.9-0.8-1.8-1.7-2.7-2.6c-0.4,0.3-0.9,0.6-1.3,0.9
	c1.8,2.7,2.7,3.5,0.9,6.3c-1.8-2.7-3.8-4.7-3.5-8.1l1.6,1.5C162.8,44.7,163.2,43.1,163.7,41.5z"/>
<path class="st17" d="M183.9,45.7l0.1-0.1l-0.2,0.3L183.9,45.7z"/>
<path class="st18" d="M146.8,48.9c2.7-0.2,2.5,1.5,3.7,3.4C147.4,51.9,147.1,52,146.8,48.9z"/>
<path class="st19" d="M159.1,48.1c1.8,3.3,4.4,5.6,2.9,9.6c-1.8-2.6-3.3-5.2-4.5-8.1C158,49.1,158.6,48.6,159.1,48.1z"/>
<path class="st0" d="M152,50.1c5.4,0,7,4.6,7,9.3C154.7,58.1,152.7,54.2,152,50.1z"/>
<path class="st0" d="M150.8,54.8c-1.5,2.1-3.2,4-5,6c-14,15.4-27.7,31-41.8,46.3c-1.2-0.9-2.3-1.9-3.5-2.9
	c15-15.9,30.1-31.7,45.2-47.5C147.4,55.3,148.5,52.6,150.8,54.8z"/>
<path class="st0" d="M172.4,66.9l1.7,0.5c-0.8,1-1.5,1-2,0.2L172.4,66.9z"/>
<path class="st0" d="M175.2,67.8l1.8,0.3C176.4,69.7,175.8,69.6,175.2,67.8z"/>
<path class="st0" d="M184.3,70.7l1.8,0.3C185.5,72.6,184.9,72.5,184.3,70.7z"/>
<path class="st0" d="M166.2,71.5c8.8,1.4,16.9,5.7,25.6,7.6c-1.7,1.1-3,2.3-4.4,3.8c-0.7,0-1.4-0.1-2.1-0.1c0-1.4,0-2.7-0.1-4.1
	c-3.3-1.2-6.7-2.3-10-3.3c-1,1.1-2,2.2-3,3.3c-1-1.3-1.1-3.2-1.7-4.7C169.1,73.1,167.6,72.3,166.2,71.5z"/>
<path class="st0" d="M137.3,73.5c3.7,5.8,6.6,12.2,8.3,18.9c0.9,3.8,0.9,8.5-1.3,11.9c-1.7,2.5-4.4,3.4-7.3,3.5
	c-8.3,0.4-17.3-3.3-25-6.3C120.4,92.2,128.8,82.8,137.3,73.5z"/>
<path class="st0" d="M196.3,74.7l1.8,0.3C197.4,76.6,196.8,76.5,196.3,74.7z"/>
<path class="st20" d="M176,76.9c2.7,0.6,5.3,1.7,7.9,2.5c0.1,0.9,0.1,1.9,0.2,2.8c-3.5-1.1-7-2.2-10.4-3.5
	C174.4,78.1,175.2,77.5,176,76.9z"/>
<path class="st0" d="M193.5,79.8c2,0.7,4,1.4,6,2.2c-1.5,1.5-3,2.9-4.6,4.4c-1.1-2.3-1.2-4.7-3.8-6C191.9,80.2,192.7,80,193.5,79.8z
	"/>
<path class="st21" d="M191.6,82.1c0.5,0.8,0.9,1.7,1,2.7c-1.3-0.2-2.5-0.6-3.7-1.2C189.3,82.5,190.3,81.2,191.6,82.1z"/>
<path class="st22" d="M188.3,87.2c1.6-0.1,2.6,0,4,0.7c-0.8,2.6-2.6,1.9-4.7,2.3C187.8,89.2,188.1,88.2,188.3,87.2z"/>
<path class="st23" d="M86.8,92.5c0.7,2.3,1.2,4.7,1.4,7.1C84.6,98.4,83.9,95,86.8,92.5z"/>
<path class="st24" d="M90,92.9c0.7,0.7,1.3,1.5,2,2.2c0.2,2.6,0.1,5.1,0,7.7C88.6,101.3,90.2,95.9,90,92.9z"/>
<path class="st25" d="M197.8,93.4l-0.4,0.4L197.8,93.4z"/>
<path class="st0" d="M83.2,94.8c0.7,2.4,0.7,5,1,7.4c-1.6-1.7-3.7-3.5-4.6-5.7C79,94.5,82.1,93.1,83.2,94.8z"/>
<path class="st0" d="M93.3,94.5c0.7,0,1.4,0.1,2.2,0.1c0.5,2.6,0.5,5.2,0.4,7.9C92.8,101.3,93.4,97.2,93.3,94.5z"/>
<path class="st0" d="M185.1,96.5l-1.8-0.5C184.2,94,186.8,94.5,185.1,96.5z"/>
<path class="st0" d="M192.1,96.9c-1.6,0.5-3.5,0.2-5-0.1C188.7,95.3,190.5,95.3,192.1,96.9z"/>
<path class="st26" d="M97.9,96.2c3,1.9,1.9,4.1,2,7.1C97,101.8,98.3,99,97.9,96.2z"/>
<path class="st0" d="M77.3,97.6c2.8,2,5.5,5.7,3.7,9.2c-1.4-1.4-3.3-2.9-4-4.8C77.1,100.5,77.2,99,77.3,97.6z"/>
<path class="st27" d="M43.1,99.5l0.1,0.2l0.1,0.2L43.1,99.5z"/>
<path class="st28" d="M88.6,104.4c0.6,0.7,1.1,1.4,1.7,2.1c-4,0.9-7.2,2.8-10.6,5.1C80,106.9,84.2,104.3,88.6,104.4z"/>
<path class="st29" d="M92.6,104.4c1.9,0.3,4.9-0.2,5,2.5c-0.4,1.5-1.8,2.8-2.7,4c-1-1.1-2.1-2.1-3.1-3.2
	C92,106.6,92.3,105.5,92.6,104.4z"/>
<path class="st12" d="M107.6,105.7c1,0.2,2.1,0.4,3.1,0.7c3.8,0.9,7.5,2.1,11.1,3.6c-0.8,1.1-1.7,2.2-2.5,3.2
	c0.9,4.1,1.9,8.2,2.5,12.4c-0.7,0.4-1.4,0.7-2,1c-0.3,1.8,0.8,6-2.1,6c-3,0.8-8.6-0.2-10.5,2.8c-1.7,3.6-2.7,7.7-4,11.5
	c4.7,0.1,9.4,0,14,0c-6.3,11.2-12.7,22.2-19.2,33.4c-7.6-12.9-15.1-26-22.5-39c3.8-3.9,7.3-8,11.1-11.9c3.1,0.7,5.8,1.5,8.8,0.3
	c3-1.1,4.1-3.5,5.8-5.9c3.4-2.2,6.1-5.6,8.4-8.9C111.2,111.5,108.9,108.6,107.6,105.7z"/>
<path class="st30" d="M99.4,107.4c3.1-0.3,1.1,3.8,0.9,5.4c-0.8-0.7-1.5-1.5-2.3-2.2C98.4,109.5,98.8,108.4,99.4,107.4z"/>
<path class="st0" d="M171,107.8l-1.6,0.7C169.3,106.6,169.8,106.4,171,107.8z"/>
<path class="st31" d="M103,109.2c0.7,0.3,1.2,0.7,1.6,1.1c0.9,3.7,2,7.8-2.1,9.9C102.3,116.4,101.9,112.8,103,109.2z"/>
<path class="st0" d="M85.9,109.8c2.3,0.1,4.2-0.5,5.7,1.7c4,4.7,2.8,10.8,1.2,16.2C88.9,122.4,87.3,116,85.9,109.8z"/>
<path class="st32" d="M107.8,111c0.5,0.7,0.5,1.6,0,2.6C106.5,113.4,106.2,110.6,107.8,111z"/>
<path class="st0" d="M159.9,112l-0.8,0.3C157,110.9,159.9,109.7,159.9,112z"/>
<path class="st0" d="M83.3,111.6c2,5.7,4.4,11.2,6.7,16.8c-1.3-0.8-2.7-1.4-3.6-2.7c-2.6-3.6-4.4-7.6-4.3-12.2
	C82.5,112.8,82.9,112.2,83.3,111.6z"/>
<path class="st33" d="M153.5,113.8l0.2-0.1l-0.4,0.1L153.5,113.8z"/>
<path class="st0" d="M96.7,114c1.8-0.4,2.4-0.6,2.9,1.4c0.9,4.6-0.1,9.6-4.3,12.3C96.2,123,96.6,118.7,96.7,114z"/>
<path class="st34" d="M134.9,116.4c-1.3,2.7-2.8,5.2-4.5,7.7c-0.2-1.7-0.4-3.4-0.6-5.1C131.5,118,133.2,117.2,134.9,116.4z"/>
<path class="st0" d="M139.4,123.1c-1.1,2.9-1.9,3.5,0,6.2c-0.8,0.1-1.6,0.2-2.4,0.2C137.1,126.5,136.4,124.7,139.4,123.1z"/>
<path class="st0" d="M82.6,124c0.9,1.2,1.8,2.4,2.7,3.7c-3.9,4.3-7.8,8.6-11.6,12.9c-1.5,1.6-2.9,3.3-5.1,3.9
	c-2.2,0.5-4.6,0.2-6.8,0.3c1.3-3.1,2.7-6.2,4.3-9.2C73.9,134.8,76.8,128.6,82.6,124z"/>
<path class="st0" d="M141.1,132.4c3.6,5.9,3.3,12.1,3,18.8c-6.7,0.2-13.5,0.2-20.2-0.1c2.6-1.4,5.2-1,8.1-1
	c3.6,0.1,7.3,0.1,10.9-0.1C143.6,143.9,142,138.3,141.1,132.4z"/>
<path class="st35" d="M112.6,134.6c-0.6,1.1-0.7,3.6-2.3,3.6c-0.9,0.1-1.9,0.1-2.8,0.1C108.9,135.9,109.7,135.1,112.6,134.6z"/>
<path class="st0" d="M25.3,135.8c2.2-0.3,4.5-0.1,6.7-0.2c-1.7,3.1-3.4,6.1-5.1,9.2c-2.3,0-4.6,0.1-6.9,0.1
	C21.8,141.9,23.3,138.6,25.3,135.8z"/>
<path class="st0" d="M107.9,139.6c1.1,1.4,2,3,3.3,4.2c1.1,0.2,2.2,0.3,3.4,0.4c0.3-1.3,0.7-2.6,1-3.9c0.7-0.1,1.4-0.2,2.2-0.3
	c0.6,1.4,1.2,2.7,1.8,4.1c3.9,0,7.7,0.1,11.5-0.8c-0.6-0.8-1.3-1.5-1.9-2.3l-0.2,1.9c-1.9,0-3.8,0-5.8,0c0.4-1,0.9-2,1.3-3
	c2.6,0.2,4.7-0.4,6.7,1.6l0.8-2.3c1,1.4,1.9,2.9,2.8,4.5c1.6,0.4,3.3,0.8,4.9,1.2c-11.6,0.7-23.2,0.2-34.8,0.3
	C105.7,143.4,106.7,141.4,107.9,139.6z"/>
<path class="st36" d="M109.9,140.2c1.6,0,3.2-0.1,4.8-0.1c-0.5,1.3-1.1,2.6-1.6,3.9C111.9,142.7,110.9,141.5,109.9,140.2z"/>
<path class="st37" d="M119.4,140.1c1.5-1,2.6,1.3,0.8,1.7C119.1,141.6,118.9,141,119.4,140.1z"/>
<path class="st0" d="M11.6,146.4c0,1.5,0.1,3.1,0.1,4.6c14.4,0.1,28.8,0,43.2,0c4.7-0.1,9.2-0.1,13.8,0.6c-2.6,0.2-5.2,0.4-7.8,0.4
	c-17.3-0.1-34.5,0-51.8-0.1C10,150.1,10.8,148.2,11.6,146.4z"/>
<path class="st0" d="M74.1,153.9l-0.4-0.7C74.7,150.9,76.4,153.5,74.1,153.9z"/>
<path class="st25" d="M77.1,158.4l0.1,0.1l0.1,0.2L77.1,158.4z"/>
<path class="st0" d="M89.5,180.4c2.3-0.2,3,1.1,1.8,3C90.6,182.5,90,181.5,89.5,180.4z"/>
<path class="st38" d="M103.9,184.7l0.1-0.1l-0.2,0.3L103.9,184.7z"/>
</svg>
