<?xml version="1.0" encoding="UTF-8" standalone="no"?>
<!DOCTYPE svg PUBLIC "-//W3C//DTD SVG 1.1//EN" "http://www.w3.org/Graphics/SVG/1.1/DTD/svg11.dtd">
<svg xmlns="http://www.w3.org/2000/svg" version="1.1" viewBox="0 0 355 331" width="355.0pt" height="331.0pt">
<path d="M 0.00 0.00 L 355.00 0.00 L 355.00 331.00 L 0.00 331.00 L 0.00 0.00 Z" fill="#fefefe" />
<path d="M 342.22 43.33 C 341.70 49.10 339.27 53.97 337.78 59.75 C 315.47 133.06 293.12 206.35 270.79 279.65 C 270.10 281.99 269.51 284.46 268.51 286.68 C 266.82 287.32 264.79 287.25 263.00 287.30 C 232.95 287.10 202.89 287.40 172.84 287.15 C 172.97 281.76 173.01 276.39 172.94 271.00 C 172.84 265.63 173.81 260.36 173.81 255.00 C 173.83 247.67 173.99 240.33 173.98 233.00 C 173.99 225.96 175.16 219.05 174.99 212.00 C 174.89 207.35 174.96 202.73 175.55 198.11 C 176.53 190.38 175.56 182.78 176.20 175.04 C 176.52 171.07 176.70 167.11 176.69 163.12 C 165.07 204.43 153.55 245.81 141.85 287.10 C 133.57 287.40 125.29 287.17 117.00 287.24 C 92.99 287.17 68.98 287.38 44.97 287.14 C 44.98 274.42 44.99 261.71 44.97 249.00 C 45.27 235.68 46.10 222.33 45.99 209.00 C 46.07 197.89 45.63 187.06 46.60 176.01 C 47.75 158.09 46.03 139.90 47.74 122.02 C 48.08 109.35 47.74 96.67 48.00 84.00 C 47.81 80.62 48.77 77.48 46.14 74.87 C 40.05 67.96 33.80 61.19 27.76 54.22 C 24.76 50.64 21.35 47.72 18.98 43.62 C 24.66 43.26 30.32 43.42 36.00 43.41 C 59.67 43.41 83.33 43.41 107.00 43.41 C 112.03 43.37 117.06 43.35 122.09 43.59 C 122.21 51.08 121.10 58.50 121.14 66.00 C 121.18 74.43 120.91 82.60 120.10 91.00 C 120.28 98.09 119.49 104.96 119.02 112.00 C 119.36 123.70 117.92 135.30 118.06 147.00 C 118.21 153.22 117.16 159.33 117.03 165.53 C 118.50 161.99 119.60 158.34 120.63 154.65 C 131.77 117.66 143.01 80.69 154.10 43.69 C 161.71 43.10 169.34 43.53 177.00 43.41 C 196.34 43.55 215.70 43.14 235.03 43.61 C 234.98 51.61 235.29 59.44 234.51 67.41 C 233.60 76.81 234.19 86.54 234.03 96.00 C 233.94 101.04 232.88 105.94 232.96 111.00 C 233.09 122.33 232.98 133.67 233.03 145.00 C 233.07 151.77 232.33 158.49 232.26 165.26 C 238.59 143.53 244.42 121.65 250.67 99.89 C 255.75 81.15 261.29 62.52 266.16 43.73 C 272.45 43.15 278.70 43.46 285.00 43.42 C 304.10 43.37 323.14 43.49 342.22 43.33 Z" fill="#dbe3db" />
<path d="M 31.19 49.28 C 59.46 49.34 87.72 49.29 115.99 49.31 C 115.61 61.54 114.79 73.75 114.55 86.00 C 114.21 100.36 113.16 114.67 112.75 129.02 C 111.68 148.68 111.47 168.38 110.29 188.03 C 109.97 194.61 109.53 201.25 109.86 207.83 C 111.82 205.27 112.45 202.32 113.33 199.30 C 128.35 149.37 143.65 99.27 158.52 49.33 C 181.98 49.28 205.43 49.33 228.89 49.30 C 228.84 59.86 228.75 70.41 228.26 80.96 C 228.07 98.31 227.56 115.66 226.98 133.00 C 226.76 154.33 225.93 175.67 225.76 197.00 C 225.66 200.62 225.45 204.20 225.82 207.82 C 226.58 206.53 227.27 205.22 227.75 203.81 C 242.17 152.36 256.48 100.68 270.98 49.28 C 292.27 49.35 313.56 49.27 334.85 49.32 C 317.48 105.79 300.33 162.51 283.05 219.03 C 276.63 239.75 270.59 260.59 263.95 281.24 C 235.42 281.17 206.88 281.35 178.35 281.14 C 179.22 269.80 178.99 258.38 179.76 247.02 C 180.50 227.69 180.62 208.33 181.65 189.01 C 182.07 171.33 183.10 153.69 183.38 136.00 C 183.45 130.78 183.97 125.50 183.64 120.31 C 181.48 122.36 181.24 125.44 180.38 128.20 C 166.00 179.18 151.76 230.27 137.32 281.24 C 108.49 281.22 79.66 281.24 50.83 281.22 C 51.15 253.14 51.71 225.08 51.90 197.00 C 52.31 184.67 52.13 172.33 52.65 160.00 C 53.07 133.33 53.25 106.66 54.06 80.00 C 53.95 77.51 54.62 75.27 52.67 73.35 C 45.53 65.33 38.37 57.25 31.19 49.28 Z" fill="#1f1f1f" />
<path d="M 43.20 54.69 C 65.60 54.63 88.00 54.66 110.40 54.67 C 109.65 72.76 108.98 90.91 108.19 109.01 C 108.07 120.02 107.01 130.99 106.82 142.00 C 105.85 165.42 105.11 188.87 103.80 212.27 C 107.51 212.29 111.22 212.29 114.93 212.30 C 131.00 159.83 146.66 107.14 162.68 54.64 C 182.95 54.68 203.23 54.65 223.50 54.66 C 223.34 66.77 222.92 78.89 222.83 91.00 C 221.94 114.33 221.97 137.67 220.90 160.99 C 220.86 178.10 220.16 195.19 220.11 212.30 C 223.73 212.29 227.35 212.28 230.97 212.27 C 245.66 159.75 260.31 107.21 275.01 54.69 C 292.47 54.63 309.94 54.66 327.40 54.67 C 315.72 94.06 303.44 133.31 291.59 172.66 C 281.03 207.05 270.63 241.50 260.07 275.90 C 234.67 275.92 209.26 276.03 183.86 275.84 C 184.89 259.90 185.00 243.94 185.75 228.00 C 186.62 190.45 188.51 153.01 189.37 115.46 C 185.69 115.38 182.01 115.36 178.33 115.36 C 169.90 145.86 161.25 176.32 152.70 206.79 C 146.17 229.84 139.86 252.97 133.17 275.97 C 107.49 275.88 81.81 275.95 56.12 275.93 C 56.31 260.62 56.66 245.31 57.11 230.00 C 57.36 177.74 58.68 125.04 59.32 72.81 C 54.69 67.42 49.89 62.19 45.17 56.88 C 44.51 56.15 43.86 55.42 43.20 54.69 Z" fill="#ec7800" />
</svg>