<?xml version="1.0" encoding="UTF-8" standalone="no"?>
<!DOCTYPE svg PUBLIC "-//W3C//DTD SVG 1.1//EN" "http://www.w3.org/Graphics/SVG/1.1/DTD/svg11.dtd">
<svg xmlns="http://www.w3.org/2000/svg" version="1.1" viewBox="0 0 207 197" width="207.0pt" height="197.0pt">
<path d="M 0.00 0.00 L 99.83 0.00 L 99.74 0.32 C 92.35 23.89 84.29 47.28 76.92 70.84 C 51.79 70.99 26.66 70.79 1.54 70.94 C 21.61 85.87 42.13 100.25 62.29 115.06 C 54.63 138.89 46.88 162.72 38.96 186.45 C 59.34 171.76 79.70 157.02 100.05 142.29 C 120.40 157.02 140.74 171.77 161.13 186.42 C 156.03 171.61 151.38 156.63 146.41 141.77 C 143.68 132.80 140.33 123.99 137.89 114.95 C 158.04 100.25 178.49 85.84 198.49 70.94 C 173.42 70.83 148.33 70.90 123.25 70.91 C 117.57 53.23 111.76 35.59 106.00 17.94 C 104.23 11.95 101.78 6.08 100.39 0.00 L 207.00 0.00 L 207.00 197.00 L 0.00 197.00 L 0.00 0.00 Z" fill="#fcfcfc" />
<path d="M 99.83 0.00 L 100.39 0.00 C 101.78 6.08 104.23 11.95 106.00 17.94 C 111.76 35.59 117.57 53.23 123.25 70.91 C 148.33 70.90 173.42 70.83 198.49 70.94 C 178.49 85.84 158.04 100.25 137.89 114.95 C 140.33 123.99 143.68 132.80 146.41 141.77 C 151.38 156.63 156.03 171.61 161.13 186.42 C 140.74 171.77 120.40 157.02 100.05 142.29 C 79.70 157.02 59.34 171.76 38.96 186.45 C 46.88 162.72 54.63 138.89 62.29 115.06 C 42.13 100.25 21.61 85.87 1.54 70.94 C 26.66 70.79 51.79 70.99 76.92 70.84 C 84.29 47.28 92.35 23.89 99.74 0.32 L 99.83 0.00 Z" fill="#1a1a1a" />
<path d="M 100.05 13.12 C 106.79 33.65 113.55 54.22 120.12 74.80 C 142.00 74.91 163.87 74.79 185.75 74.87 C 168.11 87.64 150.52 100.49 132.79 113.13 C 139.46 133.87 146.30 154.56 153.01 175.29 C 135.49 162.33 117.69 149.69 100.06 136.88 C 82.38 149.70 64.56 162.38 47.00 175.34 C 53.83 154.64 60.55 134.04 67.25 113.30 C 49.79 100.28 31.86 87.81 14.36 74.84 C 36.19 74.86 58.02 74.83 79.85 74.86 C 86.60 54.16 93.24 33.81 100.05 13.12 Z" fill="#fcfcfc" />
<path d="M 100.76 37.99 C 102.85 45.63 105.60 53.06 107.91 60.64 C 105.42 57.12 102.67 53.83 100.03 50.43 C 97.41 53.75 94.74 57.03 92.25 60.46 C 94.16 53.73 96.69 47.21 98.64 40.49 C 99.22 39.13 98.96 38.08 100.76 37.99 Z" fill="#013476" />
<path d="M 93.24 65.30 C 96.34 65.22 99.52 65.00 102.62 65.32 C 105.02 65.94 105.80 67.53 106.84 69.57 C 108.28 70.00 109.72 70.42 111.17 70.80 C 111.85 72.32 112.13 73.80 112.31 75.45 C 109.17 73.49 107.70 73.09 104.12 74.48 C 103.91 76.63 103.50 79.00 105.56 80.42 C 108.26 81.91 111.94 81.96 114.96 82.12 C 131.12 82.26 147.28 82.03 163.44 82.24 C 160.07 84.18 157.25 87.08 153.78 88.78 C 145.88 89.04 137.91 88.79 130.00 88.88 C 125.61 88.99 121.20 88.53 116.98 89.31 C 117.45 90.00 117.92 90.70 118.39 91.39 C 129.12 91.37 139.87 91.24 150.60 91.47 C 147.36 93.68 144.21 96.01 141.06 98.35 C 134.12 98.41 127.18 98.36 120.25 98.37 L 121.16 100.82 C 126.60 101.10 132.08 100.86 137.53 100.91 C 134.22 103.22 131.03 105.68 127.63 107.87 C 119.19 107.82 110.74 107.82 102.30 107.88 C 107.53 118.74 112.46 129.74 117.67 140.61 C 111.75 136.45 105.79 132.25 100.06 127.83 C 94.30 132.15 88.42 136.41 82.48 140.48 C 87.74 129.67 92.58 118.67 97.85 107.88 C 89.36 107.80 80.87 107.85 72.38 107.86 C 69.09 105.65 65.90 103.34 62.76 100.92 C 68.11 100.94 73.46 100.91 78.82 100.95 C 79.19 100.08 79.57 99.22 79.94 98.36 C 72.94 98.38 65.94 98.41 58.93 98.34 C 55.89 95.82 52.59 93.72 49.35 91.46 C 60.24 91.22 71.14 91.42 82.02 91.35 C 82.30 90.52 82.58 89.70 82.86 88.87 C 71.56 88.89 60.27 88.85 48.97 88.90 C 47.50 88.85 46.19 89.02 44.94 88.10 C 42.16 86.26 39.57 84.14 36.81 82.27 C 49.54 82.02 62.27 82.23 75.00 82.16 C 80.24 82.08 85.25 82.82 89.93 79.90 C 92.46 78.34 93.39 75.86 93.42 72.97 C 93.48 70.15 94.39 68.70 96.26 66.69 C 95.25 66.24 94.24 65.77 93.24 65.30 Z" fill="#760000" />
<path d="M 73.00 119.24 C 76.82 119.20 80.64 119.20 84.46 119.22 C 76.81 131.33 69.16 143.44 61.39 155.48 C 64.77 143.30 69.16 131.30 73.00 119.24 Z" fill="#013476" />
<path d="M 115.55 119.26 C 119.39 119.19 123.22 119.21 127.06 119.20 C 129.19 125.10 130.90 131.14 132.99 137.06 C 134.76 143.48 137.32 149.61 138.93 156.08 C 131.23 143.76 123.46 131.45 115.55 119.26 Z" fill="#013476" />
</svg>