<?xml version="1.0" encoding="utf-8"?>
<!-- Generator: Adobe Illustrator 24.0.3, SVG Export Plug-In . SVG Version: 6.00 Build 0)  -->
<svg version="1.1" id="Layer_1" xmlns="http://www.w3.org/2000/svg" xmlns:xlink="http://www.w3.org/1999/xlink" x="0px" y="0px"
	 viewBox="0 0 354 338" style="enable-background:new 0 0 354 338;" xml:space="preserve">
<style type="text/css">
	.st0{fill:#1F1F1F;}
	.st1{fill:#FFFFFF;}
	.st2{fill:#760000;}
	.st3{fill:#FE901F;}
</style>
<path class="st0" d="M232.2,30.8c27.2,11.6,50.7,31.6,66.6,56.4c-22-27.4-55.7-44.9-90.9-46.6c-10.1-1.1-19.9,0.6-29.9,1.3
	c-10.2-3.2-20.2-7.2-30.6-9.9C154.2,36,161.1,40,168,44c12.1,7.3,24.6,13.9,36.5,21.4c16.3,11.2,34.2,21.9,49.4,34.7
	c5.4,4.6,11.3,10.5,13.6,17.3c1.3,3.7,1.2,7.4,1.8,11.2c0.8,2,2.2,3.9,3.3,5.7c9.1,13.8,17,28.5,23.3,43.7
	c5.2,12.9,10.1,27.8,9.3,41.9c-0.2,9.3-5,18.2-11.6,24.6c-9.3,8.5-22.2,13.4-34.5,15.2c-9,0.7-18.3-0.9-27.2-2.6
	c6.3-3.4,12.2-6.9,16.6-12.6c2.9-3.4,4.9-7.9,4.4-12.4c-1.2-6.4-5.3-11.5-10-15.8c-10.7-9.5-22.8-17.5-36.2-22.8
	c-18.5-7.5-38.9-9.7-58.6-6.2c-8.1,1.6-16.8,4.3-23.5,9.2c-8,6-11.9,15.7-11.8,25.5c-0.5,10.7,3.1,20.8,8.4,29.9
	c7.3,12.8,19.3,22.9,32,30c14.7,8.1,31.1,12.7,47.9,12.9c12.6-0.3,25-1.8,37-5.7c23.4-7.2,44.4-21.3,60.1-40.2
	c-22,33.6-57.5,57.7-97.1,64.7c-12.6,2.6-25.2,2.7-38,2.1c-6.1-0.2-12.2-1.4-18.2-2.4c-35.4-6.8-67.4-27.2-89.2-55.9
	C30.8,225.1,20.2,182.2,27.5,142c5.1-30.4,20.1-58.8,42-80.4C89.7,41.8,115.4,27.9,143,22C172.6,15.8,204.4,18.7,232.2,30.8z"/>
<path class="st1" d="M104.7,50c16.5,4.5,32.3,10.7,48.1,17.4c26.9,12.3,53.3,27.7,75.5,47.4c5.5,4.8,10.3,10.2,15.4,15.5
	c-1.9-1.3-3.8-2.7-5.7-4.1c-24.6-20.2-52.1-36.9-81.1-50c-3.4-1.5-6.8-3-10.3-4.2c10.3,8.5,20.6,18.2,28.1,29.4
	c3,4.5,5.6,9.1,7,14.4l-0.4-0.4c-3.7-2.9-6.4-7.4-9.7-10.9c-6.2-6.8-12.7-13.4-19.4-19.6C137.6,71.4,121.4,60.5,104.7,50z"/>
<path class="st2" d="M146.6,72c3.5,1.2,6.9,2.7,10.3,4.2c29,13.1,56.5,29.8,81.1,50c1.9,1.4,3.8,2.8,5.7,4.1c0.2-2.7,0.8-5-0.2-7.6
	c-2.4-7.2-7.8-13.7-12.8-19.2c-10.5-11.5-22.7-20.8-34.6-30.6c3.1,1.6,6.1,3.3,9,5.2c13.4,8.7,27,17.5,39.6,27.4
	c4.5,3.9,9.7,8.2,12.5,13.4c2.2,3.9,2,8,1.4,12.2c-2.5,17-5.9,33.9-9.7,50.7c-14.7-2.7-29.8-3.8-44.7-3.8
	c-5.4-0.1-11.5,1.5-16.5-0.6c-26.7-10.4-55.9-16.1-84.2-19.9c-15.2-2.1-30.7-2.9-46-4.6c14.7-1.8,29.9-0.6,44.7,0
	c10.1,0.6,20,1.3,30,2.9c13.4,1.6,26.2,5,39.4,7.8c-6.5-5.4-13.4-10.1-20.6-14.5c-5.9-3.7-12.2-6.7-18.2-10.4
	c20.1,6.9,40,14.5,59.3,23.3c3.8,1.8,7.4,3.8,11.5,4.8c0.7,0.2,1.5,0.5,2.2,0.8c-7.5-9.5-15.6-18.6-24.2-27.1
	c-9.6-9.8-19.7-19.1-30.4-27.5c5.4,0.7,10.7,0.9,16,1.9c4.5,0.6,9.1,1.9,13.6,1.6l1.6-0.2c-0.4-0.3-0.7-0.6-1.1-0.9l0.4,0.4
	c-1.4-5.3-4-9.9-7-14.4C167.2,90.2,156.9,80.5,146.6,72z"/>
<path class="st0" d="M166.1,82.9c2.9,1.6,5.8,3.4,8.5,5.4c9.1,6.9,17.6,14.4,24.7,23.3c3.7,4.6,6.4,9.4,10.4,13.7
	c5.7,6.1,12.7,10.5,20.5,13.5c5,2,10,2.8,15.3,4.1c-8.8,3.1-17.3,2.1-26.3,1c-3.8,0.6-7,3.7-11.1,3.7c-9.4,0.7-17.8-6.2-18.9-15.6
	c-0.8-5.1,1.2-9.2,3.5-13.5c-4.9-8-10-15.9-15.8-23.3C173.4,90.9,169.6,87.1,166.1,82.9z"/>
<path class="st1" d="M100.4,93.2c1.1,0.2,2.2,0.3,3.4,0.5c21.2,3.8,42.1,9.9,62.4,17.1c4.9,1.7,9.6,3.9,14.5,5.1l-0.1,0.7
	c-4.5,0.4-9.2-0.9-13.6-1.6c-5.3-1-10.7-1.2-16-1.9c10.7,8.5,20.9,17.8,30.4,27.5c8.6,8.5,16.7,17.6,24.2,27.1
	c-0.7-0.2-1.5-0.5-2.2-0.8c-4.1-1-7.7-3-11.5-4.8c-19.4-8.8-39.2-16.5-59.3-23.3c5.9,3.7,12.3,6.6,18.2,10.4
	c7.2,4.3,14.1,9.1,20.6,14.5c-13.1-2.8-25.9-6.2-39.4-7.8c-9.9-1.7-19.9-2.4-30-2.9c-14.8-0.6-30-1.8-44.7,0c-2.1,0-4.2,0-6.2-0.2
	c13.5-3.4,28-3.9,41.9-4.1c14.4,0,28.9,0.4,43.1,2.9c-3-1.6-5.8-3.3-8.6-5.1c-17.9-10.8-36.4-20.3-54.9-30c-2-1-3.9-2.1-5.8-3.3
	c5,0.9,10,2,15,3.1c42.2,10.5,83.1,28.1,120.7,49.8c-15.1-15.1-32.7-28.2-50.2-40.4C135.6,113.8,118,103.7,100.4,93.2z"/>
<path class="st1" d="M203.1,132.8c3,2.4,5.7,5.2,8.6,7.7c-1.8,0.7-3.6,1.9-5.7,1.5c-1.9-0.5-3.4-2.2-4-4
	C201.6,136.2,202.5,134.4,203.1,132.8z"/>
<path class="st3" d="M265.9,142.1C272.4,152.3,278,163,283,174c5.6,12.5,10.9,26.2,12.1,40c0.8,8.1-1.5,16.1-7.2,21.9
	c-8.6,8.8-19.4,11.8-31,14.3c3.1-4.3,5.6-8.8,5.8-14.2c1.1-9.1-4.1-17.3-9.9-23.8c-13.1-14.2-30.8-22.4-48.7-28.9
	c16.4,0.7,33,2.5,48.9,6.7C258.2,174.2,262.5,158.3,265.9,142.1z"/>
<path class="st1" d="M126,173.9c8,0.3,16.2,1.3,24.1,2.6c-5.9,1.3-11.4,1.8-16.9,4c-8.5,3.2-16.6,8.6-21.9,16
	c-5.7,7.6-8.7,17.1-8.5,26.6c-0.3,15.7,6,30.4,15.8,42.4c2.1,2.5,4.4,4.7,6.4,7.2c-7.8-4.3-14.6-10.6-20.3-17.3
	c-9.4-11.2-14.3-25.7-13.9-40.3c0.6-9.8,2.9-19.1,7.1-28c-13.4-0.2-26,3.2-38.5,7.7C78,179.5,102.4,173.8,126,173.9z"/>
<path class="st0" d="M264.9,174.7c4.8,9.2,9.6,18.5,13.1,28.3c-4.3-5.9-8.5-11.9-12.3-18.1c-1.9,2.1-3.7,4.3-5.6,6.4
	c1.3-4.4,2.6-8.8,3.8-13.2C264.3,176.9,264.6,175.8,264.9,174.7z"/>
<path class="st0" d="M163.3,192.1c-10.5,2.6-21,6.6-28.4,14.8c-4.8,5.2-6.7,12.1-6.9,19.1c0.6,14.2,6.7,26.4,14,38.3
	c-8.4-8.1-16.4-18-20.4-29c-2.4-6.2-2.9-13.3-1-19.7c2.1-6.3,6.5-11.4,12.1-14.8C142.3,194.8,152.3,193.5,163.3,192.1z"/>
</svg>
