<?xml version="1.0" standalone="no"?>
<!DOCTYPE svg PUBLIC "-//W3C//DTD SVG 20010904//EN"
 "http://www.w3.org/TR/2001/REC-SVG-20010904/DTD/svg10.dtd">
<svg version="1.0" xmlns="http://www.w3.org/2000/svg"
 width="354.000000pt" height="338.000000pt" viewBox="0 0 354.000000 338.000000"
 preserveAspectRatio="xMidYMid meet">

<g transform="translate(0.000000,338.000000) scale(0.100000,-0.100000)"
fill="#000000" stroke="none">
<path d="M1494 3171 c-465 -82 -851 -363 -1072 -781 -124 -234 -189 -550 -164
-797 31 -307 121 -545 293 -776 370 -498 1014 -712 1612 -536 132 39 318 130
431 210 105 75 252 217 321 309 l49 65 -89 -84 c-180 -169 -383 -274 -630
-326 -115 -25 -327 -25 -430 -1 -333 77 -590 290 -669 555 -9 31 -16 90 -16
137 0 166 66 264 218 323 112 43 201 54 367 48 239 -10 425 -78 626 -229 142
-107 202 -197 184 -276 -10 -48 -72 -120 -138 -163 -66 -43 -66 -43 40 -58 95
-14 156 -13 223 3 183 46 307 131 366 253 89 180 -1 514 -246 917 -44 73 -80
143 -80 157 0 14 -7 49 -15 77 -19 63 -101 156 -215 242 -140 106 -464 316
-690 447 -124 72 -241 140 -260 152 -34 21 -34 22 -6 15 16 -4 85 -26 154 -50
l125 -43 101 10 c229 24 479 -22 691 -129 105 -53 203 -122 301 -214 97 -90
97 -90 5 24 -214 266 -547 458 -899 519 -145 24 -347 24 -488 0z m-269 -345
c22 -7 96 -36 165 -63 400 -162 745 -376 960 -599 83 -86 84 -87 -51 18 -114
89 -257 184 -394 263 -104 60 -356 186 -408 204 -26 10 -24 6 19 -31 146 -127
267 -283 298 -385 7 -20 4 -21 -36 -18 -24 3 -77 9 -118 15 -41 6 -91 13 -110
15 l-35 4 60 -52 c151 -131 475 -465 475 -491 0 -7 -25 3 -114 43 -111 51
-291 125 -441 181 -77 28 -143 54 -147 56 -5 3 -8 3 -8 0 0 -2 35 -23 78 -47
130 -71 343 -221 278 -196 -24 9 -136 35 -226 52 -226 43 -587 71 -815 63
-139 -6 -140 -5 -75 9 91 19 515 29 649 14 57 -6 105 -10 107 -8 6 6 -205 127
-421 242 -220 117 -255 137 -219 130 279 -60 602 -167 864 -288 76 -35 323
-158 370 -184 14 -8 41 -23 60 -34 30 -17 27 -12 -20 33 -161 152 -491 391
-787 569 -95 57 -171 104 -170 105 4 4 219 -43 303 -66 135 -37 307 -93 417
-134 37 -14 67 -23 67 -20 0 14 -146 178 -235 262 -113 109 -240 209 -392 309
-62 41 -113 76 -113 78 0 3 60 -15 165 -49z m880 -850 c0 -19 -46 -18 -66 0
-18 17 -26 54 -13 67 8 8 79 -53 79 -67z m695 -281 c98 -203 150 -371 150
-484 0 -147 -106 -257 -301 -311 -89 -24 -86 -24 -65 -1 53 58 59 165 16 257
-64 132 -220 252 -470 361 l-55 24 100 -6 c55 -3 150 -15 210 -27 161 -30 145
-34 173 52 20 62 68 245 96 364 7 29 7 29 43 -30 20 -32 66 -122 103 -199z
m-1341 -73 c34 -7 32 -8 -41 -24 -162 -35 -279 -122 -344 -253 -31 -63 -37
-86 -42 -163 -9 -162 47 -323 159 -461 59 -72 53 -71 -41 5 -217 176 -291 433
-202 698 l29 88 -78 -7 c-69 -5 -216 -39 -273 -61 -38 -15 -5 15 56 51 183
108 351 147 593 140 83 -2 166 -8 184 -13z"/>
<path d="M2627 1566 c-9 -36 -20 -73 -23 -83 -3 -10 7 -4 24 16 l30 33 15 -28
c28 -52 109 -160 102 -134 -12 39 -117 260 -124 260 -4 0 -15 -29 -24 -64z"/>
<path d="M1505 1440 c-142 -30 -253 -104 -293 -199 -48 -116 13 -294 153 -446
l47 -50 -27 48 c-178 322 -123 537 164 642 40 15 18 17 -44 5z"/>
</g>
</svg>
