<?xml version="1.0" encoding="UTF-8" standalone="no"?>
<!DOCTYPE svg PUBLIC "-//W3C//DTD SVG 1.1//EN" "http://www.w3.org/Graphics/SVG/1.1/DTD/svg11.dtd">
<svg xmlns="http://www.w3.org/2000/svg" version="1.1" viewBox="0 0 369 403" width="369.0pt" height="403.0pt">
<path d="M 0.00 0.00 L 369.00 0.00 L 369.00 403.00 L 0.00 403.00 L 0.00 0.00 Z" fill="#fefefe" />
<path d="M 169.00 13.10 C 169.29 14.11 169.87 14.46 170.74 14.15 C 168.67 17.49 164.76 20.84 164.97 25.00 C 165.04 26.74 164.92 28.47 167.09 28.69 C 172.43 28.99 177.67 28.09 183.03 28.89 C 190.90 30.14 198.51 34.59 202.16 41.89 C 203.78 45.55 204.84 49.99 204.96 53.99 C 205.08 57.98 203.44 61.73 203.33 65.64 C 207.27 69.88 213.06 72.73 216.61 77.33 C 219.77 81.95 219.56 89.10 220.58 94.50 C 221.89 101.12 222.26 107.82 223.21 114.49 C 231.21 112.18 238.59 115.26 246.10 117.84 C 250.81 119.69 255.62 121.48 260.05 123.92 C 262.75 125.39 264.21 127.71 265.83 130.20 C 269.30 135.66 272.59 141.17 275.47 146.97 C 274.64 147.66 273.80 148.34 272.96 149.03 C 275.03 153.34 277.51 157.42 279.36 161.84 C 278.35 162.06 277.34 162.27 276.33 162.49 C 278.10 167.34 280.45 171.94 282.14 176.82 C 280.79 176.98 279.44 177.15 278.08 177.31 C 279.98 183.29 282.00 189.24 283.88 195.23 C 285.07 198.95 286.84 202.84 285.85 206.82 C 284.21 210.19 280.80 212.71 279.27 216.11 C 278.53 221.32 279.50 226.75 278.90 231.97 C 278.32 234.41 276.78 236.49 274.02 236.39 C 261.70 236.62 249.33 236.40 237.00 236.49 C 232.54 236.67 229.73 234.06 226.21 231.81 C 219.30 227.28 213.60 221.54 207.78 215.75 C 202.76 220.39 200.32 227.29 200.02 234.00 C 200.06 268.00 200.03 302.00 200.04 336.00 C 200.03 341.82 200.46 347.25 198.92 352.95 C 196.54 363.38 191.97 374.77 184.25 382.40 C 175.63 372.25 170.36 359.20 168.97 346.01 C 168.95 309.00 168.95 271.00 168.98 234.00 C 168.68 227.37 166.16 220.34 161.20 215.75 C 156.16 220.63 151.47 225.70 145.68 229.73 C 142.32 232.01 138.88 234.91 135.01 236.20 C 130.41 236.84 125.64 236.36 121.00 236.48 C 112.33 236.38 103.64 236.67 94.98 236.39 C 91.82 236.55 90.19 233.83 89.99 231.03 C 89.74 227.03 90.10 223.00 89.99 218.99 C 90.59 214.12 85.01 211.01 83.13 206.84 C 82.13 202.33 83.99 198.68 85.33 194.53 C 87.14 188.77 89.05 183.05 90.91 177.30 C 89.55 177.14 88.19 176.99 86.84 176.83 C 88.51 171.93 90.88 167.34 92.65 162.49 C 91.64 162.27 90.64 162.05 89.63 161.83 C 91.48 157.40 93.93 153.32 96.02 149.01 C 95.17 148.33 94.33 147.65 93.49 146.97 C 96.79 140.38 100.63 133.89 104.76 127.79 C 107.23 124.08 111.18 122.72 115.07 120.97 C 122.08 118.09 129.46 115.00 136.98 113.85 C 140.00 113.27 142.83 113.88 145.78 114.50 C 146.39 108.32 147.05 102.15 148.18 96.04 C 149.22 90.48 149.06 83.69 151.60 78.62 C 154.33 73.77 160.28 70.77 164.29 66.94 C 157.55 61.09 149.85 58.18 144.80 50.14 C 139.94 41.52 140.87 29.23 148.17 22.17 C 153.62 16.92 161.64 14.17 169.00 13.10 Z" fill="#dbe2db" />
<path d="M 169.00 13.10 L 170.87 13.34 L 170.74 14.15 C 169.87 14.46 169.29 14.11 169.00 13.10 Z" fill="#8f8b8f" />
<path d="M 163.03 17.98 C 161.71 21.50 160.05 24.98 161.23 28.82 C 162.18 31.34 164.40 32.32 166.98 32.27 C 174.30 32.35 180.73 31.20 187.71 34.24 C 193.40 36.39 197.68 41.02 198.98 47.01 C 200.87 54.32 199.18 60.70 197.96 67.89 C 202.32 71.17 206.97 74.30 210.89 78.10 C 214.25 81.13 214.60 86.59 215.30 90.81 C 216.49 101.41 217.96 111.97 218.87 122.60 C 221.56 121.14 224.25 119.20 227.20 118.32 C 231.25 117.48 235.76 119.15 239.59 120.41 C 245.58 122.53 251.72 124.68 257.30 127.73 C 259.26 128.78 260.68 130.25 261.86 132.12 C 264.42 136.14 266.87 140.16 269.03 144.41 C 268.00 144.51 266.97 144.61 265.94 144.71 C 268.30 149.42 270.85 154.03 273.19 158.76 C 272.07 158.93 270.95 159.11 269.84 159.29 C 271.64 163.75 273.71 168.08 275.39 172.59 C 274.03 172.84 272.66 173.08 271.30 173.33 C 274.18 181.05 276.69 188.89 279.43 196.67 C 280.20 199.01 281.16 201.56 281.26 204.03 C 280.50 208.90 273.44 212.73 273.98 217.98 C 273.82 222.20 274.38 226.60 273.76 230.77 C 272.35 232.93 270.26 232.51 268.01 232.66 C 258.34 232.61 248.66 232.58 238.99 232.67 C 237.01 232.66 235.22 232.68 233.53 231.52 C 228.26 228.26 223.22 224.53 218.64 220.37 C 215.59 217.62 212.62 215.12 210.39 211.61 C 207.91 207.92 206.87 204.13 203.72 201.29 C 199.31 197.31 194.47 193.52 189.20 190.77 C 189.13 195.84 189.17 200.90 189.15 205.97 C 193.74 206.00 198.32 205.98 202.90 206.09 C 202.82 208.90 203.81 212.58 201.75 214.78 C 198.97 218.44 196.77 222.40 195.80 226.94 C 194.48 233.44 194.26 240.38 194.36 247.00 C 194.39 279.67 194.36 312.34 194.38 345.00 C 194.32 355.70 189.96 366.47 184.32 375.40 C 181.82 370.85 179.59 366.14 177.68 361.31 C 175.16 354.93 174.41 347.82 174.55 341.00 C 174.62 308.67 174.54 276.33 174.60 244.00 C 174.52 236.89 174.38 229.00 171.71 222.33 C 170.41 218.80 167.92 216.17 166.12 212.97 C 165.83 210.70 166.02 208.35 166.08 206.08 C 170.66 205.98 175.25 206.00 179.83 205.96 C 179.81 200.90 179.85 195.84 179.78 190.78 C 174.64 193.44 170.13 196.97 165.80 200.79 C 161.28 204.58 160.22 210.69 155.98 214.98 C 149.83 221.25 142.96 226.92 135.46 231.51 C 133.77 232.67 131.99 232.66 130.01 232.67 C 120.34 232.59 110.66 232.61 100.99 232.66 C 98.76 232.51 96.61 232.95 95.23 230.78 C 94.42 225.69 95.55 220.31 94.70 215.26 C 93.05 211.54 89.41 208.76 87.89 205.02 C 87.36 201.82 89.18 198.12 90.09 195.06 C 92.61 187.81 94.99 180.53 97.67 173.34 C 96.30 173.09 94.94 172.84 93.57 172.59 C 95.26 168.08 97.31 163.74 99.14 159.29 C 98.02 159.11 96.90 158.93 95.78 158.76 C 97.98 154.30 100.32 149.92 102.72 145.57 C 101.84 145.02 100.95 144.49 100.06 143.98 C 102.41 139.75 104.84 135.54 107.52 131.51 C 109.51 128.42 112.54 127.22 115.72 125.70 C 121.14 123.29 126.74 121.24 132.38 119.43 C 135.47 118.47 139.30 117.50 142.48 118.52 C 145.13 119.56 147.58 121.20 150.07 122.58 C 150.61 117.65 150.96 112.70 151.66 107.79 C 152.72 100.19 153.12 92.27 154.70 84.78 C 155.24 82.23 156.16 79.90 158.10 78.08 C 162.06 74.25 166.84 71.19 171.22 67.84 C 165.12 60.12 155.28 57.10 149.57 49.44 C 145.60 43.78 144.42 36.00 147.75 29.74 C 150.94 23.74 156.85 20.27 163.03 17.98 Z" fill="#8f8b8f" />
<path d="M 156.70 25.01 C 157.09 26.93 157.36 29.06 158.18 30.84 C 159.48 33.52 162.23 35.17 165.15 35.43 C 171.25 36.03 177.42 34.69 183.41 36.56 C 188.36 38.06 192.67 41.40 194.72 46.24 C 196.40 50.38 196.38 55.20 195.50 59.53 C 193.57 68.26 190.09 76.44 185.76 84.23 C 182.31 77.31 179.37 70.75 174.02 64.98 C 168.01 58.59 159.13 55.01 153.48 48.53 C 149.28 44.04 147.79 36.46 151.00 31.03 C 152.40 28.48 154.50 26.82 156.70 25.01 Z" fill="#121212" />
<path d="M 174.73 72.16 C 179.12 78.36 181.97 85.11 184.39 92.27 C 189.43 86.96 192.91 79.89 195.94 73.28 C 199.26 75.49 202.70 77.68 205.66 80.36 C 208.19 82.69 209.03 86.04 209.63 89.31 C 210.69 96.11 210.80 103.12 211.50 109.98 C 211.81 113.98 212.28 118.02 212.16 122.03 C 212.21 123.29 211.17 124.48 210.51 125.49 C 204.68 133.19 198.58 140.34 190.91 146.28 C 190.84 138.19 190.95 130.09 190.85 122.00 C 190.89 120.48 190.78 118.83 191.19 117.35 C 195.48 112.29 201.15 108.20 205.11 102.86 C 205.65 98.60 205.24 94.17 205.27 89.88 C 200.94 93.39 197.12 97.33 192.50 100.49 C 191.06 101.61 189.19 102.58 188.10 104.05 C 187.58 109.35 188.53 114.78 188.05 120.07 C 187.76 121.64 186.09 122.98 184.85 123.85 C 183.47 124.13 181.86 121.84 181.09 120.86 C 180.05 115.43 181.79 108.87 180.53 103.55 C 174.59 99.33 169.17 94.68 163.69 89.88 C 163.58 94.24 163.61 98.60 163.66 102.96 C 167.88 107.53 172.39 111.80 176.81 116.18 C 178.39 117.53 178.03 119.12 178.14 121.00 C 178.06 129.42 178.14 137.84 178.08 146.26 C 170.41 140.42 164.27 133.14 158.47 125.51 C 157.81 124.49 156.78 123.29 156.82 122.03 C 156.74 117.41 157.26 112.76 157.63 108.16 C 158.25 101.90 158.32 95.47 159.34 89.27 C 160.03 85.66 160.89 82.28 163.85 79.86 C 167.28 77.06 170.98 74.50 174.73 72.16 Z" fill="#121212" />
<path d="M 154.14 76.22 C 154.73 76.64 154.73 76.64 154.14 76.22 Z" fill="#8f8b8f" />
<path d="M 214.30 76.22 C 214.88 76.65 214.88 76.65 214.30 76.22 Z" fill="#8f8b8f" />
<path d="M 136.17 123.36 C 141.24 122.05 145.03 125.41 148.82 128.20 C 152.04 130.92 156.28 134.24 157.65 138.35 C 158.30 140.02 156.76 141.59 155.75 142.75 C 152.27 146.33 149.08 150.15 145.71 153.83 C 134.89 145.96 122.08 141.14 108.79 139.68 C 110.79 136.46 112.68 131.89 116.38 130.39 C 122.68 127.45 129.39 124.92 136.17 123.36 Z" fill="#121212" />
<path d="M 231.02 123.12 C 236.25 123.78 241.40 125.87 246.33 127.67 C 249.24 128.90 252.52 129.99 255.03 131.94 C 257.16 134.14 258.63 137.08 260.20 139.69 C 246.89 141.12 234.09 145.96 223.26 153.83 C 219.88 150.17 216.70 146.34 213.23 142.76 C 212.22 141.59 210.64 140.01 211.32 138.32 C 212.81 134.00 217.31 130.56 220.74 127.73 C 223.55 125.68 227.33 122.63 231.02 123.12 Z" fill="#121212" />
<path d="M 109.30 144.35 C 113.61 144.48 117.95 145.70 122.07 146.87 C 129.95 149.36 137.65 152.90 144.28 157.89 C 143.54 159.72 142.80 161.55 142.06 163.39 C 129.98 158.70 116.95 155.01 103.93 154.64 C 105.59 151.21 106.99 147.38 109.30 144.35 Z" fill="#121212" />
<path d="M 259.74 144.24 C 261.88 147.58 263.40 151.06 265.04 154.65 C 252.12 154.98 238.92 158.71 226.93 163.40 C 226.18 161.56 225.42 159.73 224.67 157.89 C 234.65 150.54 247.41 145.54 259.74 144.24 Z" fill="#121212" />
<path d="M 183.69 151.57 C 187.13 151.14 190.59 150.80 194.05 150.48 C 194.84 151.68 195.58 152.91 196.36 154.11 C 192.12 153.36 187.88 152.60 183.69 151.57 Z" fill="#121212" />
<path d="M 185.06 154.65 C 189.64 155.61 194.14 156.83 198.61 158.22 C 199.08 159.85 199.55 161.47 200.02 163.10 C 195.75 161.90 191.48 160.76 187.20 159.64 C 186.48 157.98 185.77 156.31 185.06 154.65 Z" fill="#121212" />
<path d="M 180.07 155.28 C 181.12 156.52 182.14 157.73 182.72 159.26 C 185.97 167.49 185.32 177.40 179.05 184.04 C 177.60 185.84 174.87 184.98 173.49 183.53 C 170.32 180.22 168.44 175.45 167.68 170.99 C 167.14 168.83 169.34 167.06 170.55 165.52 C 173.79 162.18 176.33 157.98 180.07 155.28 Z" fill="#121212" />
<path d="M 105.23 159.09 C 106.12 158.87 107.04 158.81 107.99 158.90 C 119.49 159.98 130.59 162.42 140.85 167.89 C 140.38 169.94 139.93 172.00 139.48 174.06 C 134.72 172.88 129.96 171.55 125.17 170.57 C 117.52 169.07 109.94 168.72 102.20 168.21 L 101.87 167.30 C 102.80 164.53 103.95 161.71 105.23 159.09 Z" fill="#121212" />
<path d="M 172.90 158.82 C 171.22 160.69 169.49 163.72 167.22 164.77 C 166.70 164.21 166.22 163.62 165.77 162.99 C 167.22 160.89 170.66 159.97 172.90 158.82 Z" fill="#121212" />
<path d="M 263.80 158.86 C 264.62 161.79 267.10 165.23 266.84 168.22 C 261.21 168.58 255.59 168.84 250.00 169.58 C 242.90 170.40 236.40 172.33 229.50 174.07 C 229.05 172.00 228.58 169.94 228.10 167.89 C 239.02 162.14 251.53 159.32 263.80 158.86 Z" fill="#121212" />
<path d="M 187.79 162.89 C 191.93 164.16 196.05 165.51 200.13 166.96 C 200.02 168.69 199.89 170.43 199.76 172.16 C 195.85 170.84 192.11 169.13 188.31 167.54 C 188.13 165.99 187.96 164.44 187.79 162.89 Z" fill="#121212" />
<path d="M 188.34 171.02 C 191.88 172.42 195.32 173.96 198.72 175.66 C 197.82 177.26 196.93 178.87 196.03 180.47 C 193.33 178.97 190.67 177.42 188.04 175.81 C 188.12 174.21 188.27 172.62 188.34 171.02 Z" fill="#121212" />
<path d="M 164.96 171.78 C 165.85 174.27 166.56 176.94 167.70 179.32 C 169.10 182.15 171.42 184.64 173.48 187.00 C 167.28 191.74 160.77 196.06 154.58 200.81 C 149.79 196.22 145.89 191.28 145.98 184.28 C 152.36 180.20 158.48 175.69 164.96 171.78 Z" fill="#121212" />
<path d="M 204.02 171.84 C 210.54 175.65 216.62 180.25 223.01 184.30 C 223.08 191.32 219.17 196.19 214.40 200.81 C 208.19 196.07 201.68 191.74 195.48 187.00 C 197.39 184.80 199.53 182.49 200.94 179.93 C 202.27 177.45 202.96 174.49 204.02 171.84 Z" fill="#121212" />
<path d="M 103.85 172.71 C 115.53 172.48 127.48 174.11 138.50 178.03 C 138.25 180.05 137.98 182.07 137.73 184.09 C 125.65 181.19 113.60 179.95 101.20 179.54 C 101.97 177.22 102.77 174.91 103.85 172.71 Z" fill="#121212" />
<path d="M 265.19 172.65 C 266.13 174.91 266.97 177.21 267.75 179.54 C 255.39 179.97 243.29 181.17 231.25 184.10 C 231.00 182.07 230.72 180.05 230.46 178.03 C 241.44 174.06 253.56 172.56 265.19 172.65 Z" fill="#121212" />
<path d="M 101.27 183.43 C 108.94 183.48 116.54 183.86 124.06 185.49 C 117.41 187.29 111.25 188.42 105.54 192.60 C 117.34 189.77 130.14 187.37 142.33 188.18 C 143.90 194.09 147.53 198.48 151.46 202.98 C 148.03 205.38 144.78 207.99 141.20 210.18 C 141.83 207.98 142.51 205.79 143.18 203.60 C 135.15 209.73 127.28 216.05 119.43 222.40 C 118.39 223.12 117.39 224.13 116.04 224.07 C 111.14 224.27 106.20 224.14 101.29 223.93 C 101.27 220.51 101.29 217.09 101.42 213.67 C 108.38 209.75 115.22 205.59 122.01 201.38 C 114.08 202.31 105.94 204.55 97.98 204.80 C 96.20 204.79 95.14 204.30 94.14 202.81 C 94.60 198.96 96.40 195.19 97.56 191.50 C 98.65 188.65 99.05 185.59 101.27 183.43 Z" fill="#121212" />
<path d="M 268.79 183.82 C 270.52 189.67 273.04 195.31 274.58 201.21 C 275.57 203.54 273.02 204.87 271.02 204.80 C 263.04 204.56 254.90 202.32 246.96 201.38 C 253.73 205.60 260.62 209.74 267.55 213.68 C 267.66 217.10 267.69 220.51 267.67 223.92 C 262.78 224.15 257.85 224.26 252.96 224.08 C 251.59 224.13 250.61 223.15 249.56 222.42 C 241.70 216.07 233.83 209.74 225.80 203.61 C 226.46 205.79 227.13 207.98 227.75 210.18 C 224.18 207.98 220.93 205.38 217.49 202.97 C 221.45 198.50 225.05 194.06 226.65 188.17 C 239.16 187.45 252.05 189.72 264.12 192.87 C 258.26 188.81 251.71 187.20 244.91 185.49 C 252.81 183.91 260.73 183.09 268.79 183.82 Z" fill="#121212" />
<path d="M 170.32 208.83 C 178.12 208.05 186.14 208.77 194.00 208.47 C 196.30 208.85 199.16 207.52 199.08 210.89 C 189.38 211.08 179.61 211.06 169.92 210.90 L 170.32 208.83 Z" fill="#121212" />
<path d="M 171.66 213.83 C 180.18 213.64 188.81 213.64 197.33 213.83 C 191.90 221.63 177.08 221.67 171.66 213.83 Z" fill="#121212" />
<path d="M 176.84 224.37 C 178.94 224.99 181.00 225.74 183.09 226.40 C 183.81 254.24 184.06 282.04 184.49 309.87 C 185.02 286.92 184.74 263.96 185.55 241.01 C 185.76 236.12 185.51 231.24 185.85 226.34 C 188.01 225.71 190.14 225.02 192.25 224.23 C 191.37 229.46 190.75 234.69 190.80 240.00 C 190.81 273.00 190.80 306.00 190.81 339.00 C 190.77 343.60 191.13 348.55 189.93 352.99 C 188.73 357.54 186.80 361.95 184.61 366.11 C 182.20 362.31 180.55 358.14 179.26 353.85 C 177.83 348.94 178.21 344.08 178.18 339.00 C 178.19 305.67 178.17 272.33 178.18 239.00 C 178.25 234.05 177.41 229.25 176.84 224.37 Z" fill="#121212" />
</svg>