<?xml version="1.0" encoding="utf-8"?>
<!-- Generator: Adobe Illustrator 24.0.3, SVG Export Plug-In . SVG Version: 6.00 Build 0)  -->
<svg version="1.1" id="Layer_1" xmlns="http://www.w3.org/2000/svg" xmlns:xlink="http://www.w3.org/1999/xlink" x="0px" y="0px"
	 viewBox="0 0 213 195" style="enable-background:new 0 0 213 195;" xml:space="preserve">
<style type="text/css">
	.st0{fill:#FEFEFE;}
	.st1{fill:#DBE3DB;}
	.st2{fill:#1F1F1F;}
	.st3{fill:#FA8073;}
</style>
<path class="st0" d="M0,0h213v193.2c-1.5,0-2.1,0.6-1.7,1.8H6.2C4,192.9,2,190.6,0,188.2V0z"/>
<path class="st1" d="M151.9,20.1c4,0.6,7.3,4.2,10.1,6.9c2.5,2.5,4.5,4.9,3.8,8.7c-1.7,8.4-8.9,14.4-14.8,20.1
	c6,0.1,12.1-0.3,18.1,0c4.9,0.3,9.6,2.6,13,6.1c2.8,3,3.8,7.3,4.8,11.2c4.3,17,9.4,33.9,13.5,51c-11.5-2.2-23.2-3.4-34.8-5.4
	c-4.2-0.7-7.8-2.7-11.4-4.7c-6.3,1.5-12.4,1.3-18.7,0.3c-2.2,3.5-4.2,7-7,10c-1.7,1.9-3.7,3.7-5,5.9c-0.2,2.9,0.9,6,1.5,8.9
	c1.3,5.7,1,11.8-1.4,17.1c-1.1,2.2-2.6,4.4-5,5.2c-1.8,0.6-4.1,0-5.1-1.7c-2.1-3.4-3-7.6-4.9-11.1c-2.2-4.4-5.6-7.4-9.1-10.8
	c-1.8,1.6-3.6,3.5-5.7,4.6c-2.2,0.8-4.9,0.6-7.3,0.7c-0.8-0.8-1.6-1.5-2.4-2.3c0.9-8.5,3.6-19-2.6-26.2c-6.4-0.4-13,0.8-19.5,0.7
	c-0.6,0.9-1.2,1.7-1.7,2.6c-6.7,0.7-13.3,1.3-19.9,2.4c-8.2,1.4-16.4,2.2-24.6,3.8c1.3-8.8,4.4-17.2,6.5-25.9
	c1.9-0.4,3.7-0.9,5.6-1.3c1.1-5.1,2.3-10.1,3.6-15.2c-1.5,0-3-0.1-4.4-0.1c1.7-8.8,4.6-17.1,6.6-25.8c12.5-0.2,25.1-0.3,37.6,0
	c0.2,1,0.4,2,0.6,3c0.8,0,1.6,0.1,2.4,0.1c0.3-3.2-0.8-9,1.8-11.3c5.2-1.9,11-1.5,16.3-3.7c6-2,9.2-6.5,14.5-9.7
	c4.9-3,10.1-5.5,15.7-7.1c3.8-1.1,7.4-2.5,11-4.1C138.9,20.7,145.6,19.2,151.9,20.1z"/>
<path class="st2" d="M155.2,24.4c0.9,1.2,1.7,2.5,2.6,3.8c-2.1,2.2-4.3,4.2-6.4,6.4c-0.1,1-0.2,2.1-0.4,3.1c2.1-1.8,4.2-3.4,6.3-5.1
	c0.1-1.1,0.2-2.2,0.3-3.4c1.6,0.5,3.1,1,4.6,1.6c0.1,3-0.2,5.6-0.8,8.5c-6.3,8.5-13.5,15.9-23.6,19.8c-0.6,1.1-1.2,2.2-1.8,3.3
	c3.2-0.1,6.4,0,9.5,0c-0.2-1-0.4-2.1-0.6-3.1c8,0.1,15.9,0,23.9,0.1c3.8-0.1,7.6,1.9,10.2,4.5c2.8,2.7,3.7,7.4,4.7,11.1
	c2.7,11.5,6.2,22.7,9.1,34.1c0.9,3.6,1.9,7.2,3,10.7c-2.3-0.1-4.7-0.3-7-0.4c-1.6-0.5-3.3-1-4.9-1.5c-5.4-0.4-10.7-1.2-16-1.9
	c-5.3-0.7-9.7-3.2-13.9-6.2c-2,0.8-3.9,1.9-6.1,1.9c-5.3,0.2-10.6-0.2-15.9-0.1c-1.2,4.1-3.4,7.3-5.9,10.7c-1.9,1.8-3.8,3.6-5.8,5.4
	c-0.6,5.4,0.5,10.3,1.8,15.5c0.4,5.9-0.7,11.7-5.1,16c-0.7-0.6-1.5-1.2-2.2-1.8c-2.1-11.1-9.3-18.5-17.8-25.4
	c-0.8,2.3-1.8,4.6-2.8,7c-2.7,0.7-5.5,0.9-8.3,0.9c0.7-1.5,1.5-3.1,2.2-4.6c0.2-4.4,0.4-8.9-0.1-13.2c-0.9-3.6-3-7-4.3-10.5
	c-6.1,0.2-12,0-18,0.9c-2.4,0.4-5.1-1.2-7.4-1.9c-0.1,1.4-0.2,2.8-0.4,4.2c-6.9,1.5-14.2,1.6-21.2,2.7c-5.7,0.8-11.2,2.4-17.1,2.5
	c1.4-6.4,3.1-12.8,4.9-19.1c1.8-0.1,3.6-0.2,5.4-0.3c1-7.4,3.6-14.6,5.4-21.8c-1.6-0.6-3-0.9-4.7-1c0.7-2.5,1.4-5,2.2-7.5
	c0.9-3.6,1.8-7.1,2.6-10.7c10.7-0.1,21.4,0.1,32.1-0.1c-0.2,1-0.5,2.1-0.7,3.1c3.8,0,7.6-0.1,11.4,0c-1.3-4.2-1.3-8.4-1.1-12.8
	c5.5-0.1,10.4,0.2,15.3-2.9c2-0.5,3.9-1,5.9-1.5l0-1.1c3.8-2.7,7.1-5.9,11.3-8.1c5.8-3.1,11.5-6,18.2-6.9c4.3-2.5,8.9-4.4,13.8-5.2
	C146.5,23.1,150.8,23.2,155.2,24.4z"/>
<path class="st3" d="M153.5,28.1c-2.1,1.7-4.5,3.2-6.1,5.4c-2,2.9-2.6,6.6-4.6,9.5c-1.7,2.1-4.1,3.5-6.2,5.2c4.6-1.8,8.4-4.9,13-6.6
	c3.7-1.4,6.7-3.7,9.8-6c-3.3,5-6.7,9.7-11.7,13.2c-7.6,5-17.1,7.9-25.6,11.2c2.1-0.2,4.3-0.4,6.4-0.6c-0.6,1.4-1.2,2.8-1.7,4.2
	c-2.8,0.3-7.1-1.1-8.6,1.9c-4.7-1.8-9.4-2-14.4-2.1c4.1-3.5,8.3-6.4,13.1-8.9c0-2.5,0.1-4.9,0.1-7.4c-5.3,2.5-10.3,5.5-14.7,9.3
	c-4.1,3.3-7.2,7.4-10.7,11.3c-0.8-0.8-1.6-1.6-2.3-2.4c4-6.9,8.5-14,14.6-19.3c5.7-4.5,11.8-8.3,18.7-10.5c-0.3,2.7-0.7,5.6-0.3,8.2
	c0.6,2.8,2.2,5.6,3.5,8.1c-0.5-4.5-1.6-9.5,0-13.9c1.4-3.9,5.1-6.6,8.7-8.3C140.8,27.2,147.1,25.8,153.5,28.1z"/>
<path class="st2" d="M142.3,31.8c-0.7,1.6-1.4,3.2-2.1,4.8c-1.7-0.4-3.5-0.8-5.2-1.4c-1.1,0.4-2.2,0.8-3.4,1.2
	C135.3,33.2,137.6,32.3,142.3,31.8z"/>
<path class="st2" d="M118.7,39.4c-0.4,1.8-0.8,3.6-1.2,5.4c-7.4,3-13.7,7.5-19.9,12.5C103,49.5,110.4,43.8,118.7,39.4z"/>
<path class="st3" d="M94.3,51.7c-3.2,4.2-6,8.5-8.4,13.2c-2.8-3.4-4-7.3-5-11.5c2,0.2,4,0.4,6.1,0.6c-0.8,0.9-1.7,1.7-2.5,2.6
	c1.2,0,2.3-0.1,3.4-0.1C90,54.8,92.2,53.2,94.3,51.7z"/>
<path class="st1" d="M62.1,63.2c-0.5,3.1-1,6.2-1.6,9.3c-2.7,0.1-5.3,0.1-8,0.2c0.9,0.7,1.8,1.4,2.7,2.1c-1.8,9.1-3.7,18.2-5.6,27.3
	c1.8-0.1,3.5-0.3,5.3-0.4c-0.6,3.1-1.2,6.2-1.7,9.4c-9,1.1-18,1.9-26.9,3.5c0.9-3.3,1.8-6.7,2.8-10c1.7-0.2,3.4-0.4,5.1-0.6
	c2.8-10.3,5-20.6,7.7-30.9c-1.6,0-3.1,0.1-4.7,0.1c0.8-3.3,1.5-6.6,2.6-9.8C47.1,63.1,54.6,63.3,62.1,63.2z"/>
<path class="st1" d="M150.6,63.4c5.7-0.2,11.6-0.2,17.4,0c3.9,0.5,8.5,1.6,9.5,6.1c4,15,7.7,30,11.8,45c-5.7-0.7-11.3-1.6-17-2.1
	c-4.2-0.4-9.1-1.2-12.6-4c-1.5-1.1-1.6-3.1-2-4.8C155.4,90.2,152.7,76.8,150.6,63.4z"/>
<path class="st1" d="M111,66.5c3.2,0.3,7.7,1.4,7.5,5.5c0.5,8.3,0.6,16.6,1.2,24.9c-3.9,0-7.7,0-11.6,0c0-5.1,0-10.2,0-15.2
	c-2.5,0-4.9,0-7.4,0c1.1,0.6,2.2,1.3,3.3,1.9c0,4.5,0,9-0.1,13.5c-3.9,0-7.8,0-11.7,0c0.7-8,1-16,1.5-23.9c0.2-1.7,0.1-3.8,1.8-4.7
	C99.6,65.6,106.2,66.5,111,66.5z"/>
<path class="st1" d="M122.8,66.5c3.4,0,6.9,0,10.3,0c0.4,3.3,0.7,6.6,1.1,9.9c1.2,0,2.5,0,3.7,0c-0.3-3.3-0.6-6.6-0.9-9.9
	c3.3,0,6.7,0,10,0.1c2,10.6,3.3,21.2,5.2,31.8c-3.8-0.2-7.6-0.4-11.5-0.6c-0.8-5.2-1.3-10.5-2.1-15.8c-2.4,0-4.7,0-7.1,0
	c1.1,0.7,2.1,1.4,3.2,2.2c0.7,4.4,1.2,8.8,1.5,13.3c-3.8-0.2-7.5-0.3-11.3-0.3C124.1,87,123.7,76.7,122.8,66.5z"/>
<path class="st1" d="M65.3,66.7c5.6-0.1,11.2-0.3,16.7,0c2.4,0.2,5.8,1,7,3.3c0.3,5-0.8,10-0.9,15c-0.3,2.9-0.1,6.2-1.2,8.9
	c-2,2.8-6.7,3.5-9.9,3.8c-5.8,0.4-11.5,0.5-17.3,1.1C61.6,88.1,63.3,77.3,65.3,66.7z"/>
<path class="st2" d="M158.9,69.2c2.6,0.1,5.2,0.1,7.8,0.2c2.9,12.4,5.7,24.8,8.5,37.2c-1.7-0.3-3.3-0.5-5-0.8
	c-2.3-11.5-4.8-22.9-7.4-34.4C161.5,70.7,160.2,69.9,158.9,69.2z"/>
<path class="st2" d="M78.6,72.3c-0.9,6.6-1.3,13.3-2.4,19.9c-1.4,0-2.7,0-4.1,0c0.8-5.8,1.6-11.6,2.3-17.4c-0.8-0.8-1.6-1.5-2.5-2.3
	C74.1,72.4,76.3,72.3,78.6,72.3z"/>
<path class="st2" d="M101.2,72c2.3,0.1,4.6,0.1,6.9,0.2c-0.1,1.3-0.2,2.7-0.3,4c-1.1,0-2.2-0.1-3.3-0.1c-0.3-0.7-0.7-1.3-1-2
	C102.9,73.4,102.1,72.7,101.2,72z"/>
<path class="st1" d="M100.4,99.7c0,1.7-0.1,3.3-0.2,5c1,0.3,2.1,0.7,3.1,1c-1.6,0-3.3,0-4.9,0c0.2-1.5,0.3-3,0.6-4.6
	C99.5,100.6,100,100.1,100.4,99.7z"/>
<path class="st1" d="M106.3,100.1l1.8,0.6l-0.9,1.7c1,0.1,1.9,0.1,2.9,0.2l-0.5-1.9c0.6-0.1,1.2-0.2,1.8-0.3c0,1.9,0,3.8,0,5.8
	l-1.3-0.5l0.6-1.8c-1,0-1.9,0-2.9,0l-0.9,3.2C106.6,104.6,106.4,102.3,106.3,100.1z"/>
<path class="st1" d="M115.6,100.4c1.5-0.1,3-0.2,4.4-0.4l-2.7,0.8c0.5,1.1,1,2.1,1.5,3.2l-2.9,0.6c1.6,0.4,3.1,0.7,4.7,1.1
	c-1.6,0-3.2-0.1-4.9-0.2C115.6,103.9,115.6,102.2,115.6,100.4z"/>
<path class="st1" d="M71.8,101.6c-1.4,0.8-2.7,1.6-4,2.4l3.1,0.4c-0.2,1-0.3,2-0.5,3c-1.3,0.1-2.6,0.2-4,0.3l-0.2-1.5
	c1.1,0.3,2.2,0.5,3.2,0.8l0.1-2.3c-1.2,0-2.3-0.1-3.4-0.1c0.3-0.9,0.6-1.9,0.9-2.8C68.6,101.5,70.2,101.5,71.8,101.6z"/>
<path class="st1" d="M74.9,101.1c1.8,0.2,3.6,0.3,5.4,0.4c-0.9,0.3-1.7,0.6-2.5,0.8c-0.3,1.8-0.6,3.7-1,5.4
	c-0.3-1.7-0.5-3.4-0.6-5.2C75.8,102.1,75.4,101.6,74.9,101.1z"/>
<path class="st1" d="M124.4,100.1l1.3,0.4l-0.8,3c1.3-1,2.4-2.1,3.6-3.3c0.1,2.4,0.1,4.8,0,7.1c-0.5-1.1-0.9-2.2-1.4-3.2
	c-0.9,0.8-1.8,1.6-2.7,2.4C124.4,104.4,124.4,102.3,124.4,100.1z"/>
<path class="st1" d="M133.4,101.6c1.4-0.2,2.7-0.2,4.1-0.3c0.1,1.8,0.1,3.6,0.2,5.4c-1.5-0.1-2.9-0.1-4.4-0.2
	C133.3,104.9,133.3,103.2,133.4,101.6z"/>
<path class="st2" d="M135,102.1c1.4,0.7,1.6,2.4,1.1,3.7C134.7,105.1,134.4,103.5,135,102.1z"/>
<path class="st3" d="M87.9,109.7c3.1-0.1,6.1-0.2,9.2-0.4c0.6,2.4,0.9,5.3,2.3,7.3c1.8,2.3,5.3,3.3,8.2,2.8c3.4-0.9,6.4-3.8,9.7-5.3
	c3.5-1.6,7.1-1.6,10.8-1.7c-3,1.8-6.1,3.4-9.2,4.9c1.2,0.3,2.5,0.5,3.7,0.8c-2.5,0.9-4.9,1.8-7.3,2.7c1.8,0.2,3.6,0.3,5.4,0.5
	c-3.3,0.9-6.5,1.8-9.8,2.8c1.3,0.6,2.6,1.1,3.8,1.7c-1.1,0.3-2.3,0.7-3.4,1c1.3,0.9,2.6,1.9,3.9,2.8c-1.4-0.2-2.8-0.4-4.2-0.6
	c1.5,1.7,3,3.4,4.5,5.1l-3.7-0.9c1.2,2.1,2.5,4.2,3.8,6.2c-0.6,0.4-1.3,0.7-1.9,1.1c0.6,1.6,1.1,3.2,1.6,4.8
	c-3.3-4.2-5.7-8.3-9.6-11.9c-2.6-2.4-5.2-4.7-7.7-7.2c-0.3-2.1-0.2-4.8-1.4-6.7c-1.6-2.3-3.7-4.3-5.6-6.3c-0.6,0.2-1.2,0.4-1.8,0.6
	C88.7,112.5,88.3,111.1,87.9,109.7z"/>
<path class="st1" d="M102.2,110.6c3.8,0,7.6,0,11.4,0l-0.2,1.5c-2.5,1.2-4.8,2.7-7.5,3.5c-1-0.4-2.1-0.8-3.1-1.3
	C102.7,113.1,102.4,111.8,102.2,110.6z"/>
<path class="st1" d="M0,188.2c2,2.4,4,4.7,6.2,6.8H1.8c0-1.2-0.6-1.9-1.8-1.9V188.2z"/>
<path class="st0" d="M0,193.1c1.2,0,1.8,0.6,1.8,1.9H0V193.1z"/>
<path class="st1" d="M213,193.2v1.8h-1.7C210.9,193.8,211.5,193.2,213,193.2z"/>
</svg>
