<?xml version="1.0" encoding="utf-8"?>
<!-- Generator: Adobe Illustrator 24.0.3, SVG Export Plug-In . SVG Version: 6.00 Build 0)  -->
<svg version="1.1" id="Capa_1" xmlns="http://www.w3.org/2000/svg" xmlns:xlink="http://www.w3.org/1999/xlink" x="0px" y="0px"
	 viewBox="0 0 487.2 487.2" style="enable-background:new 0 0 487.2 487.2;" xml:space="preserve">
<g>
	<path d="M302.7,174.4L243.3,55l-58.6,119.7c-1.9,4-5.7,6.7-10.1,7.4L42.7,201.7l95.6,92.8c3.2,3.1,4.6,7.5,3.9,11.9l-22.1,131.5
		l117.8-62.4c4-2,8.7-2.1,12.6,0l118.2,61.7l-22.9-131.3c-0.8-4.4,0.6-8.9,3.8-12l95.3-93.3l-132-18.8
		C308.5,181.1,304.7,178.4,302.7,174.4z"/>
	<path d="M483,200.7L373.4,308.2l26.3,150.5c0.3,1,0.4,2,0.4,3.1c0,7.4-6.1,13.5-13.5,13.5c-2.1,0-4.2-0.5-6.2-1.5l-136.1-71.1
		l-135.7,71.9c-2,1.1-4.1,1.6-6.3,1.6c-2.8,0-5.6-0.9-7.9-2.6c-4.2-3-6.3-8.1-5.4-13.2L114.5,309L4.2,202.1
		c-3.7-3.5-5.1-8.9-3.5-13.8c1.6-4.9,5.8-8.4,10.9-9.2l152-22.6l67.5-137.9c2.3-4.7,7-7.6,12.1-7.6c5.1,0,9.8,2.9,12.1,7.5
		L323.7,156l152,21.6c5.1,0.8,9.3,4.3,10.9,9.2C488.2,191.7,486.9,197.1,483,200.7z"/>
	<path d="M475.7,177.6l-152-21.6L255.3,18.5c-2.3-4.6-7-7.5-12.1-7.5c-5.1,0-9.8,2.9-12.1,7.6l-67.5,137.9l-152,22.6
		c-5.1,0.8-9.3,4.3-10.9,9.2c-1.6,4.9-0.2,10.3,3.5,13.8L114.5,309L89,460.4c-0.9,5.1,1.2,10.2,5.4,13.2c2.3,1.7,5.1,2.6,7.9,2.6
		c2.2,0,4.3-0.5,6.3-1.6l135.7-71.9l136.1,71.1c2,1,4.1,1.5,6.2,1.5c7.4,0,13.5-6.1,13.5-13.5c0-1.1-0.1-2.1-0.4-3.1l-26.3-150.5
		L483,200.7c3.9-3.6,5.2-9,3.6-13.9C485,181.9,480.8,178.4,475.7,177.6z M349.6,293.9c-3.2,3.1-4.6,7.6-3.8,12l22.9,131.3
		l-118.2-61.7c-3.9-2.1-8.6-2-12.6,0l-117.8,62.4l22.1-131.5c0.7-4.4-0.7-8.8-3.9-11.9l-95.6-92.8l131.9-19.6
		c4.4-0.7,8.2-3.4,10.1-7.4L243.3,55l59.4,119.4c2,4,5.8,6.7,10.2,7.4l132,18.8L349.6,293.9z"/>
</g>
</svg>
