<?xml version="1.0" encoding="utf-8"?>
<!-- Generator: Adobe Illustrator 24.0.3, SVG Export Plug-In . SVG Version: 6.00 Build 0)  -->
<svg version="1.1" id="Layer_1" xmlns="http://www.w3.org/2000/svg" xmlns:xlink="http://www.w3.org/1999/xlink" x="0px" y="0px"
	 viewBox="0 0 367 390" style="enable-background:new 0 0 367 390;" xml:space="preserve">
<style type="text/css">
	.st0{fill:#929392;}
	.st1{fill:#FFFFFF;}
	.st2{fill:#FAFAFA;}
	.st3{fill:#DBCC12;}
</style>
<path class="st0" d="M174.4,18.3C174.7,18.7,174.7,18.7,174.4,18.3z"/>
<path d="M203.9,19.2c8.5,2.2,15.7,9.4,20.3,16.7c1,1.3,0.8,3,2.8,2.9c5.7-3.1,11.5-5.6,18-6.4c12-2.2,24.5,0.8,33.9,8.7
	c8.5,6.4,13.8,16.2,14.8,26.9c0.8,10.9-2.3,22.2-8.4,31.2c-2.3,3.7-5.6,6.3-8.3,9.8c-11.4,13.2-23,28-30.2,43.9
	c-1.2,4.2-3.3,7.7-3.6,12.1c-0.1,2.1-1.1,4.9,0.1,6.7c4.6,0.6,8.7,2.6,11.2,6.8c2.2,4.2,3,9,1.6,13.5c-1.7,8.2-7.1,12.9-10.6,20.6
	c-4.3,7.4-2.6,18.1-2.3,26.4c0.2,12.8,4.5,27.8,0.8,40c-2.7,11.9-9.9,22.2-19.7,29.3c-6.9,5.2-14.3,10.1-22.1,14
	c0.2,1.7,2,3.2,2.7,4.7c4.2,6.8,6.1,14.2,7.3,22c-0.5,2.2,0.8,5.7-0.6,7.5c-1.3-2-2.8-3.1-4.6-4.6c-3.7-2.5-7.9-5.1-12.6-4.6
	c1.6,1.7,4.3,5.2,3.5,7.5l-0.8,0.2c-10-6.1-22.3-12.2-34.1-12.8c-2.1,0.3-1.6,3.1-3.9,3.7c-3.4,2.3-7.1,2.3-11,2.8
	c-6.5,0.5-12.7,0.1-19.1-0.7c-2.5-0.8-7-2.3-6.5-5.7c-12.3-3.2-24.7-4-37.4-3c-1.7,0.1-3,0.8-4.7,0.2c6.3-9.4,12.7-17.8,22.3-24
	c1.7-2,5.3-2.6,6.7-4.6c-0.8-2-2-3.8-2.7-5.8c-1.3-4.5-3.4-8.3-3.2-13.2c0.3-9.3,6.4-17,14.8-20.7c2.2-0.6,2.4-2.2,1.4-4.1
	c-1.1-2-0.8-5.2-3.6-5.5c-6.7-2.1-12.2-6.9-14.2-13.7c-2-4.4-1.4-8.9-1.5-13.6c0.4,0,0.9,0.3,1.3,0.9c2.3,3.2,4.9,6.5,7.8,9.2
	c1.5,1,3.6,3.7,5.5,3.4l0.2-0.9c-1.3-6.2-4.6-10.4-2.1-17c1.5-2,2.2-4.4,4.1-6c1.3-2.8,2.9-6,3.1-9.1c0.5-6.2-2.5-12.1-4.1-17.9
	c-2-7.9-0.1-17.2,5.9-23c1.4-1.5,3.1-2.4,4.4-3.9c-0.1-3.4-0.8-7-2-10.2c-4-12.3-11.7-22.3-21.2-31c-3.4-2.9-6.4-6.5-8.8-10.3
	c-2.9-3.6-3.5-7.6-5.4-11.6c-0.6-4.3-1.2-8.8-0.8-13.1c0.2-7.5,3.1-14.9,6.4-21.6c4.7-7.5,13.1-12.3,21.5-14.3c10.4-3,22-2.2,32,1.9
	c1.2-0.3,1.6-1.8,2.4-2.6c4.4-5.6,8.7-11.5,12.4-17.6c4.4-7.5,10.9-13.5,18.6-17.5C188.4,18.8,196.1,17.3,203.9,19.2z"/>
<path class="st1" d="M199.9,33.6c13.9,4.7,25.9,16.3,30.2,30.4c0.7,1-0.3,2.9,1.3,2.6c0.1-1.9,0.4-3.7,0.3-5.6c1.5-3.5-1-8-0.4-11.6
	c4-1.9,8.2-4.3,12.7-5c10.4-2.5,22,0.7,29.8,7.9c4.5,4.9,7.4,11,7.1,17.8c0.6,10.5-4,19.8-9.2,28.6c-10,14.8-25,27.6-42.3,33
	c2.2-4,5.1-8.5,5.5-13.3c-0.5,0-1,0.4-1.3,1.1c-8.5,12.6-21.7,21.4-36.4,25.2c-0.8,0.1-3.8,0-3.8,1.1c14.8,3.2,31.3,0.4,45.5-4.2
	c-0.2,1.3-1.1,2.4-1.6,3.6c-2.5,4.1-3.4,8.5-5.1,12.9c-0.8,3.5-1.1,7.6-2,11c-1.3,0.6-2.7-0.8-4-1.2c-12.4-5.1-25.8-8.6-39.2-9.6
	c-13.9-1.1-27.8-0.2-41,4.1c-2.4,0.2-5.8,2.8-8,2c-0.2-5.9-1.4-13.4-5.5-17.9c2.6,0.1,5.1,1.6,7.7,1.9c6.8,1.1,14.1,1.5,20.9,0.3
	c0.9-0.5,3.2,0.1,3.6-1.1c-10.4-2.2-21-6.8-28.7-14.3c-5.1-5.2-8.4-11.8-8.9-19.1c-0.2-1.9,0-3.8-0.3-5.7c-2.9,3.5-4.7,8.2-5.9,12.6
	c-0.5,1.9,0.1,4.3-0.7,6l-0.8-0.1c-8.8-6.7-15.5-15.9-18-26.7c0.2-3.9-1.7-7.3,0.2-11.5c-0.8-2.7,1.4-6.1,2.2-8.7
	c3.5-6.8,10.7-12.2,18.4-12.9c5.4-1.2,11.8,0.2,16.9,2.2c-1,3.1-5.1,6-7.7,8.1c-3.7,2.5-6.7,3.7-9.9,5.4c17.4-0.3,34-10.6,43-25.3
	c5.4-7.6,11.2-15.7,18.9-21.1C188.4,32.8,194,32.8,199.9,33.6z"/>
<path class="st0" d="M282.3,35.3C282.7,35.7,282.7,35.7,282.3,35.3z"/>
<path class="st0" d="M156.3,37.3C156.8,37.8,156.8,37.8,156.3,37.3z"/>
<path class="st0" d="M149.4,47.3C149.7,47.7,149.7,47.7,149.4,47.3z"/>
<path class="st0" d="M147.3,50.3C147.7,50.7,147.7,50.7,147.3,50.3z"/>
<path d="M183.4,54.4c6.6,0.5,13,1.9,18.6,5.7c9.5,6.9,12.6,18.8,10.2,30c-3.1,8.7-10.4,15.4-18.9,18.4c0.2-1.2,1-1.6,1.6-2.6
	c4.3-5.4,7-12,7.8-18.9c0.3-5.7-1.3-11.6-4.2-16.5C194.7,63.7,189.2,59.1,183.4,54.4z"/>
<path d="M90.5,66.5L90.5,66.5z"/>
<path class="st0" d="M296.3,92.2C296.7,92.7,296.7,92.7,296.3,92.2z"/>
<path class="st0" d="M290.3,103.3C290.7,103.7,290.7,103.7,290.3,103.3z"/>
<path class="st0" d="M278.3,117.3C278.7,117.7,278.7,117.7,278.3,117.3z"/>
<path class="st0" d="M274.3,122.2C274.7,122.7,274.7,122.7,274.3,122.2z"/>
<path class="st0" d="M89.3,123.3C89.7,123.7,89.7,123.7,89.3,123.3z"/>
<path class="st0" d="M259.3,143.3C259.7,143.7,259.7,143.7,259.3,143.3z"/>
<path class="st0" d="M108.4,144.3C108.7,144.7,108.7,144.7,108.4,144.3z"/>
<path class="st0" d="M256.3,148.3C256.7,148.7,256.7,148.7,256.3,148.3z"/>
<path class="st0" d="M113.3,151.3C113.8,151.8,113.8,151.8,113.3,151.3z"/>
<path class="st1" d="M175,168.8c6.6,0.4,12.8,2.3,18.4,5.9c4.9,3.6,9.8,8.9,11.4,14.8c2,2.2,1.6,4.6,2.7,7.2
	c1.3,4.6,1.6,9.2,1.3,13.9c0.3,1.5,2,1.7,3.2,1.3c1.1-3.6,0.8-8.1,2.7-11.5c-0.4,4.1-0.2,8.6,0.2,12.7c1.5,1.1,4.7,1,6.7,1.5
	c-0.1-8.1,2.4-15.8,6.2-22.9c3-5.2,6-10.2,12.3-11.6c2.6,0.7,5,0.9,6.6,3.3c3,5.3,1.3,11.9-1.3,17c-2.9,3.6-5.4,7.5-7.4,11.6
	c-1,3.4-1.6,7.3-3.6,10.3c-1.7,1.7-2.9,2.3-5.2,2.9c0,2.5,4.6,1.7,6.1,1.9l0.5,0.9c-0.5,11.7-0.3,21.8-1.1,33.8
	c-0.9,4.3-3.5,7.3-6.4,10.5c-7.1,6.9-15.8,12.8-24.3,17.7c-11.3,6.9-22.7,12.6-34.9,17.7c-7.8,2.4-15.2,4.1-23,0.6
	c-6.1-2.2-10.4-7.8-11.5-14.1c-2.2-10.6-4.5-20.8-7.7-31.1l0.4-0.8c2-0.4,3.8-1.7,5.8-2.1c4,4.5,9.2,7.7,15.1,9
	c8,2.6,16.9,2.5,25.1,1c6.3-2,12.4-3.8,17.9-7.6c7.1-0.7,13.6-4,18.3-9.4c0.7-0.9,1.8-1.8,1.6-3c-1.9,0.2-4,0.7-5.7-0.3
	c0.2-1.6,1.8-2.9,2.3-4.6c1.5-0.9,2.6,1.9,3.4,2.8c0.8,1.8,3.8,1.1,3.2-1.1c-2.6-5.5-9-8.7-14.9-6.7c-1.6,0.5-1.8,2.6-0.1,3.4
	c2.1-0.4,3.8-1.1,5.9-0.5v0.7c-3.3,4-7.4,7.2-12.8,7.5c-5.2-1.1-8.8-4.3-12.7-7.6c-0.9-1.8-2.3-3.1-4.1-4c-0.1-0.9,0-1.8,0.2-2.8
	c0.3-2.4-2.8-6.8-5.3-6c1.7,3,2.2,6.7-1.6,8.3c-4.5-0.6-7.6,1.7-9.8,5.5c-1.7,0.6-1.6-1.9-2.8-2.8c-1.9-2.3-1.4-4.3-0.2-6.8
	c-1.1-1.6-2.7-1.8-4.2-2.8c-0.8-1.8,1.2-4.4,2-5.9c2.3-4.6,5.1-9.8,6-14.9c-2.6,6-6.2,9.8-10,14.9c-2,2.6-2.2,5.3-2.6,8.4
	c-5.5-0.1-8.8,3.1-12.2,6.9c-3,2.3-7.6,6.3-11.5,6.1c-1.1-2.6-2.1-6-2.5-8.8c-0.7-4.5,2.1-8.5,4.7-11.9c2.7-5,3.9-10.5,4.4-16.1
	c0.3-5.3-3.8-10.7-4.8-16c0-7.8,4.8-12.9,10.4-17.6C146.6,169.7,161.7,168.1,175,168.8z"/>
<path class="st0" d="M112.3,175.3C112.8,175.8,112.8,175.8,112.3,175.3z"/>
<path d="M239,187.8c5.2,0.7,5.4,7.9,3.4,11.5c-1.7,3.8-4.9,5.7-7.5,8.6c-1.8,1.9-0.1,7.7-3.9,7.2c-3.1-0.6-2.7-4.1-3-6.5
	c0.8-0.2,1.7-0.1,2.8,0.2c0.8-3.9,3.6-8,6.4-10.7c0.5-1.1,1.6-2.9,0.6-3.9c-3-0.9-3.2,2.8-6.5,1.5C230.6,192,235.6,187.9,239,187.8z
	"/>
<path d="M156.7,192.3c0.9,1.2,1.6,3.3,0,4.3c-7.4,4.7-17.4,5.2-25.8,3.6c-1.2-0.5-1.4-1.2-0.7-2.1
	C138.6,200.1,148.6,193.8,156.7,192.3z"/>
<path d="M177,198.9c4.1,1.4,7.6,4.9,11.7,6.5c3.7,2.3,9.4,3.2,12.7,5.2c-8.7-0.4-18.4-1.4-26.1-5.8c-0.9-0.6-2.7-2.2-1.9-3.4
	S175.6,199.4,177,198.9z"/>
<path d="M152.7,208.4c0.9,0.4,2.2,1.6,2.2,2.6c-1.5,5.1-6.1,9.7-11.6,9.8c0-1.3,3.4-1.3,2.6-3.6c-4.7-0.2-9-1.1-12.6-4.5
	c0.4-2,4.1-3.6,5.7-4.7C143.3,206.5,148.6,206.1,152.7,208.4z"/>
<path class="st2" d="M147.5,208.5c1.5,0.2,2.5,1.8,4.1,2.1c0.5,1.2-1.9,3.2-3,3.1C149.5,210.8,148.4,210.6,147.5,208.5z"/>
<path class="st2" d="M141.7,209.3c-0.2,0.9-0.7,1.8-1.2,2.7c0.6,0.9,1.1,1.9,1.3,2.8H141c-1-1.1-4.6-1.4-3.6-3.4
	C138.5,210.7,140.5,209.6,141.7,209.3z"/>
<path d="M175.7,211.7c0.9-0.6,2.1-0.6,3.4,0.1c3.9,2,8.7,2.5,13,3.4c2,0.5,6.4-1.1,6.8,1.8c-0.9,1.8-4,1.2-5.7,1.4
	c-3.8-0.1-8.5,0.6-11.9-1.3c-0.7,1.6,1.8,2.3,0.9,3.8C179,220.7,174.9,214.6,175.7,211.7z"/>
<path class="st0" d="M100.3,221.4C100.7,221.8,100.7,221.8,100.3,221.4z"/>
<path d="M107.4,226.4C107.6,226.6,107.6,226.6,107.4,226.4z"/>
<path d="M163.4,235.4c1.4-0.4,4.8-1,4.4,1.4C166.8,237.2,162.2,237.8,163.4,235.4z"/>
<path class="st3" d="M148,253c0.5,2.1-0.1,4.8-0.1,7c-1.1,0.5-2.7-0.6-3.6-1.2c-0.4-1.5-0.2-3.2,0-4.7
	C144.6,253.1,147.1,252.5,148,253z"/>
<path class="st3" d="M150.4,253.4c1.3-1.1,4.4,0.2,5.1,1.6c0.1,2.1-0.2,4.8-0.7,6.9c-1.4,0.2-3.6,0.2-4.7-1
	C149.6,258.6,150.3,255.8,150.4,253.4z"/>
<path class="st3" d="M158.3,254.3c1.4-0.7,4.3-1.8,5.6-0.5c0.2,1,0.2,2-0.1,3.1c-0.6,1.6,0.3,3.7-0.7,5.1c-1.6,0.4-3.7,0.4-5.3,0
	C157,260,157.7,256.4,158.3,254.3z"/>
<path class="st3" d="M140.3,255.4c1-0.7,1.6-0.5,2,0.6C142,258,139.7,257,140.3,255.4z"/>
<path class="st3" d="M166.3,255.3c1.3,0,3.1,0.8,3.9,1.7c0.4,1.5,0.1,3.3-0.4,4.8c-1.3,0.3-2.5,0.3-3.6,0
	C165.5,259.9,166.1,257.3,166.3,255.3z"/>
<path class="st0" d="M98.3,256.3C98.7,256.7,98.7,256.7,98.3,256.3z"/>
<path class="st2" d="M136.1,258.2c1.7-0.6,4.1,2.4,5.7,3.1c3.4,1.5,6.4,3.4,10.2,3.8c9.9,0.9,19.7,0.9,29-3.3c0.7,0,4.4,0.9,3.9,2
	c-3.9,1.3-7.9,2-11.8,3.3c-7.6,1-15.5,1.1-23.1,0c-3.6-1.6-7.2-2.1-10.3-4.7C138.6,261.5,135.5,259.7,136.1,258.2z"/>
<path class="st3" d="M172.4,258.4c1.4,0,2.7,0.8,4.1,1c-0.3,1.2-3.3,1.9-4.3,1.4C172.3,260,172.4,259.2,172.4,258.4z"/>
<path class="st0" d="M106.3,264.3C106.7,264.7,106.7,264.7,106.3,264.3z"/>
<path class="st1" d="M235.6,273.4c-0.2,1.5-0.1,2.9-1.2,4.1c-8.7,17.8-24.2,32.4-42.5,40c-3.7-2.8-7.5-6.4-12.6-6.9
	c-0.1-0.9,0.1-1.3,0.7-1.2c19.8-6.1,38-18.1,52.7-32.5C234,275.9,234.6,274.3,235.6,273.4z"/>
<path class="st1" d="M122.7,276.3c2.5,6,4.6,14.2,6.7,20.6c0.4,2.3,2.6,4.6,2.5,6.9c-4.5,0.4-8.8,1.1-13,3.1
	c-2.2,0.3-1.9-1.6-3.1-2.9c-2.8-5.4-4.5-11-3-17.1c1.5-3.2,3-5.9,5.8-8.2C119.9,278,121.3,276.2,122.7,276.3z"/>
<path d="M154.7,283.2c-1.2,3.3-3.9,6.7-3.8,10.8c1,3.2,3.7,5.5,4.8,8.5c-3.6-1.7-7.4-4.6-8.9-8.5c0.1-3.2,3.1-6.8,5.3-9
	C152.9,284.1,153.2,283,154.7,283.2z"/>
<path class="st0" d="M238.3,304.3C238.6,304.7,238.6,304.7,238.3,304.3z"/>
<path class="st0" d="M233.2,309.2C233.7,309.8,233.7,309.8,233.2,309.2z"/>
<path class="st0" d="M96.3,311.3C96.8,311.7,96.8,311.7,96.3,311.3z"/>
<path class="st1" d="M131.6,312.4c-5.3,5.3-5.8,12.1-5.2,19.2c-5.7,0.3-11.5-0.4-17.2,1.2c0.1-1.5,3.8-2.5,4.9-3.5
	c1-1.2,2.7,0,2.4-1.8c-7.1,0.2-14.4,3-21.1,5.2C103.6,321,117.9,314.5,131.6,312.4z"/>
<path class="st1" d="M138.4,312.3c0.6-0.8,1.5-0.9,2.7-0.4c5.1,2.2,10.1,1.8,15.5,1.6c1,0.4,1.3,1.2,0.9,2.4
	c-1.3,5.3-3.2,11.2-2.8,16.6c-1.6-2.6-1.6-5.5-3.1-8.2c-2.8-1.9-4.5,1.1-4.7,3.5c-0.4,4,2.5,7.8,1.8,11.6c-2.7,1.1-4.9,0-7.6-0.1
	c-2.9-0.2-5.7-0.5-7.6-2.9c-0.5-1.2-0.8-2.4-0.9-3.6C132.6,325.7,134.5,318.5,138.4,312.3z"/>
<path class="st1" d="M166.4,316.5c1.7-1.5,4.8,0.5,7,0.3c1.7,1.3,3.7,1.2,5.6,2.3c10.8,4.3,19.8,12.3,23.6,23.5
	c-4.9-4.7-10.6-8.1-17.1-10.2c-2.7-1-6.4-2.3-9.2-2.1c3.2,3.2,7,6.8,8.5,11.3h-0.4c-6.5-5.2-14.2-8.3-22.3-9.9l-0.4-0.7
	C161.8,325.9,163,320.5,166.4,316.5z"/>
<path class="st0" d="M215.3,322.3C215.7,322.7,215.7,322.7,215.3,322.3z"/>
<path class="st0" d="M70.3,343.3C70.8,343.8,70.8,343.8,70.3,343.3z"/>
<path class="st0" d="M120.3,351.3C120.7,351.7,120.7,351.7,120.3,351.3z"/>
<path class="st0" d="M174.2,351.2C174.8,351.7,174.8,351.7,174.2,351.2z"/>
<path class="st0" d="M161.3,352.3C161.7,352.7,161.7,352.7,161.3,352.3z"/>
</svg>
