<?xml version="1.0" encoding="UTF-8" standalone="no"?>
<!DOCTYPE svg PUBLIC "-//W3C//DTD SVG 1.1//EN" "http://www.w3.org/Graphics/SVG/1.1/DTD/svg11.dtd">
<svg xmlns="http://www.w3.org/2000/svg" version="1.1" viewBox="0 0 341 343" width="341.0pt" height="343.0pt">
<path d="M 0.00 0.00 L 341.00 0.00 L 341.00 343.00 L 0.00 343.00 L 0.00 0.00 Z" fill="#fefefe" />
<path d="M 177.01 25.74 C 199.86 27.22 222.27 34.27 241.86 46.14 C 263.16 58.93 280.95 77.25 293.30 98.80 C 304.11 101.63 314.37 104.53 322.97 112.09 C 322.57 118.92 322.04 125.73 321.86 132.56 C 317.57 134.81 313.34 137.19 309.08 139.49 C 312.75 157.53 313.37 176.02 310.24 194.19 C 309.32 201.73 306.40 208.39 306.27 216.00 C 306.06 223.59 305.52 231.14 304.91 238.71 C 301.42 239.08 297.93 239.47 294.44 239.95 C 284.12 259.11 269.15 275.81 251.49 288.50 C 230.29 303.72 205.03 313.04 179.00 315.08 C 151.87 317.39 124.00 311.83 99.89 299.12 C 69.93 283.59 45.88 257.28 32.98 226.10 C 17.17 188.35 18.40 144.15 36.34 107.36 C 49.93 79.24 72.73 55.77 100.52 41.51 C 123.89 29.37 150.76 23.83 177.01 25.74 Z" fill="#ec12b9" />
<path d="M 158.01 32.59 C 180.40 31.09 203.07 35.04 223.53 44.29 C 250.98 56.53 274.39 78.11 288.57 104.63 C 298.26 107.23 307.40 109.42 315.81 115.19 C 315.67 119.60 315.46 124.01 315.28 128.41 C 310.61 131.05 305.92 133.63 301.31 136.37 C 304.59 147.70 305.25 159.27 305.22 171.00 C 305.12 181.86 304.09 192.64 301.38 203.18 C 298.57 212.33 299.15 222.87 298.47 232.47 C 295.71 232.85 292.96 233.18 290.20 233.50 C 279.14 254.84 262.58 273.32 242.38 286.39 C 222.68 299.27 199.51 307.04 175.99 308.37 C 152.07 309.95 127.83 305.32 106.32 294.68 C 78.60 281.22 55.89 258.25 42.48 230.54 C 35.99 217.06 31.79 202.62 29.82 187.80 C 27.83 168.59 28.87 149.23 34.63 130.71 C 43.19 101.77 61.78 75.87 86.29 58.29 C 107.10 43.20 132.33 34.08 158.01 32.59 Z" fill="#12e3ec" />
<path d="M 164.00 41.64 C 183.72 41.00 203.65 45.17 221.53 53.51 C 243.28 63.48 261.99 79.80 275.16 99.74 C 268.07 98.91 261.04 98.84 253.95 99.70 C 243.53 87.55 231.22 77.28 216.79 70.24 C 195.78 59.96 171.57 56.21 148.51 60.37 C 111.81 66.34 79.57 91.79 64.88 125.88 C 55.35 147.44 53.32 172.00 58.08 195.00 C 61.49 211.84 69.55 227.33 80.69 240.35 C 78.38 243.22 76.10 246.11 73.83 249.01 C 75.63 251.13 77.41 253.26 79.14 255.44 C 83.84 255.09 88.48 254.38 93.12 253.55 C 107.59 266.04 125.33 274.77 143.85 279.30 C 163.01 284.09 183.06 282.81 201.78 276.79 C 223.50 269.91 242.39 256.10 256.31 238.15 C 263.84 236.76 271.47 236.10 279.05 235.02 C 262.81 262.84 236.34 284.21 205.48 293.64 C 182.45 300.84 157.30 301.28 134.01 295.03 C 109.35 288.45 86.69 274.32 70.00 255.00 C 53.71 236.33 42.94 212.78 39.68 188.22 C 37.03 170.37 38.55 151.87 43.52 134.55 C 51.42 107.09 68.72 82.55 91.96 65.92 C 112.78 50.88 138.29 42.11 164.00 41.64 Z" fill="#20f412" />
<path d="M 169.03 68.14 C 178.79 68.60 188.70 69.92 198.02 72.94 C 215.32 78.30 230.93 88.43 243.12 101.80 C 231.14 104.92 219.41 109.00 208.20 114.26 C 206.98 114.70 205.52 115.63 204.23 115.60 C 200.75 114.59 197.50 112.95 193.93 112.19 C 180.11 108.51 164.31 112.85 152.66 120.68 C 138.86 130.95 129.67 146.92 122.87 162.41 C 116.38 157.95 110.12 153.18 103.63 148.72 C 102.39 150.53 101.15 152.35 99.93 154.18 C 109.65 161.32 119.27 168.58 129.01 175.68 C 109.25 184.09 89.51 192.56 69.81 201.10 C 61.95 176.45 64.00 148.68 75.52 125.49 C 83.18 109.83 94.95 96.15 109.35 86.31 C 126.76 74.02 147.81 68.11 169.03 68.14 Z" fill="#ec12b9" />
<path d="M 226.40 97.62 C 219.41 99.45 212.83 102.28 206.27 105.27 C 204.14 106.46 201.71 105.07 199.52 104.59 C 189.97 101.65 179.92 100.90 170.17 103.34 C 158.90 106.23 148.63 112.24 140.15 120.16 C 131.34 128.48 125.00 138.26 119.21 148.82 C 113.47 144.62 107.75 140.37 102.07 136.08 C 97.20 142.75 92.25 149.38 87.55 156.17 C 95.38 161.98 103.29 167.70 111.11 173.53 C 99.29 178.86 87.30 183.82 75.43 189.04 C 72.01 168.66 74.41 146.43 83.86 127.89 C 93.42 108.55 110.81 93.06 130.43 84.40 C 161.76 70.43 199.91 75.99 226.40 97.62 Z" fill="#12e3ec" />
<path d="M 208.35 96.70 C 206.97 97.31 205.59 97.90 204.20 98.49 C 194.22 95.09 183.25 94.00 172.82 95.59 C 159.51 98.21 146.65 104.40 136.70 113.70 C 128.89 120.92 122.71 129.48 116.96 138.38 C 111.44 134.30 105.93 130.21 100.35 126.22 C 95.99 132.24 91.71 138.34 87.23 144.27 C 92.75 126.70 104.42 110.97 119.82 100.81 C 130.73 93.54 142.88 88.23 156.01 86.79 C 173.72 84.35 192.91 87.48 208.35 96.70 Z" fill="#20f412" />
<path d="M 260.50 106.64 C 276.98 105.14 293.97 107.48 308.44 115.88 C 303.73 115.33 299.06 114.57 294.39 113.76 C 295.00 115.77 295.60 117.77 296.20 119.77 C 301.62 120.86 307.00 121.62 312.49 122.17 C 307.72 124.78 302.88 127.27 298.13 129.93 C 296.72 128.08 295.36 126.20 294.02 124.30 C 291.30 124.90 288.69 125.65 286.07 126.62 C 287.57 129.24 289.13 131.82 290.68 134.41 C 277.57 141.96 264.86 150.38 252.90 159.63 C 243.66 142.64 227.94 128.90 210.78 120.24 C 226.38 113.09 243.34 107.97 260.50 106.64 Z" fill="#ec121a" />
<path d="M 276.70 113.19 C 277.46 114.60 278.22 116.00 278.97 117.40 C 274.34 118.48 269.66 119.37 264.97 120.17 C 263.96 118.47 262.94 116.77 261.92 115.08 C 266.83 114.31 271.75 113.66 276.70 113.19 Z" fill="#ec008f" />
<path d="M 196.39 120.97 C 182.49 129.42 170.95 140.06 159.46 151.45 C 152.11 158.39 145.05 165.62 137.69 172.55 C 134.57 170.33 131.47 168.08 128.37 165.83 C 132.99 153.30 139.84 140.82 149.48 131.45 C 161.95 120.27 180.35 116.15 196.39 120.97 Z" fill="#ec121a" />
<path d="M 204.84 123.94 C 206.23 124.60 207.59 125.32 208.92 126.11 C 224.60 135.78 238.45 147.73 247.26 164.17 C 227.55 179.21 207.76 194.14 188.06 209.20 C 173.18 198.11 158.36 186.95 143.48 175.86 C 162.09 156.61 182.74 139.07 204.84 123.94 Z" fill="#ec008f" />
<path d="M 292.73 140.98 C 293.56 143.98 294.22 147.02 294.72 150.09 C 297.89 172.48 296.02 195.42 287.78 216.57 C 281.23 217.31 274.74 218.42 268.19 219.08 C 270.24 214.07 272.41 209.15 274.00 203.96 C 279.45 186.72 280.23 168.47 277.39 150.67 C 282.53 147.49 287.46 143.93 292.73 140.98 Z" fill="#20f412" />
<path d="M 268.97 155.91 C 271.46 178.31 267.60 200.93 256.55 220.67 C 245.09 222.11 233.67 223.79 222.22 225.33 C 217.76 225.89 212.97 227.34 208.69 225.33 C 203.02 222.87 198.24 218.12 193.18 214.57 C 215.64 202.80 237.99 190.82 260.32 178.83 C 258.88 174.34 257.48 169.85 255.70 165.49 C 260.10 162.26 264.53 159.08 268.97 155.91 Z" fill="#ec12b9" />
<path d="M 83.19 161.96 C 87.89 165.28 92.50 168.69 97.15 172.08 C 92.52 174.10 87.89 176.10 83.24 178.07 C 83.04 172.69 83.00 167.34 83.19 161.96 Z" fill="#20f412" />
<path d="M 250.42 169.72 C 251.43 172.70 252.32 175.69 253.03 178.76 C 236.55 187.67 220.04 196.53 203.50 205.33 C 218.99 193.28 234.73 181.51 250.42 169.72 Z" fill="#ec121a" />
<path d="M 134.69 179.91 C 136.21 180.75 137.66 181.86 139.05 182.91 C 153.07 193.63 167.53 203.80 181.46 214.63 C 150.79 230.37 117.08 244.16 82.83 249.24 C 101.08 228.79 119.32 208.33 137.51 187.83 C 120.98 191.51 104.39 195.01 87.81 198.46 C 102.22 192.62 116.70 186.94 131.08 181.04 C 132.24 180.59 133.45 180.10 134.69 179.91 Z" fill="#ec008f" />
<path d="M 258.77 189.78 C 257.02 197.67 254.45 205.49 250.72 212.68 C 240.45 213.71 230.25 215.32 220.01 216.59 C 216.42 216.95 213.26 217.94 209.78 216.40 C 213.41 214.03 217.21 212.10 221.02 210.04 C 233.63 203.34 246.16 196.48 258.77 189.78 Z" fill="#12e3ec" />
<path d="M 118.26 199.20 C 107.90 210.72 97.21 221.94 86.85 233.46 C 80.80 225.93 76.19 217.51 72.38 208.67 C 87.68 205.53 102.98 202.42 118.26 199.20 Z" fill="#ec12b9" />
<path d="M 247.36 202.18 C 246.58 204.83 245.71 207.44 244.77 210.04 C 239.73 210.58 234.69 211.18 229.66 211.82 C 235.61 208.70 241.35 205.20 247.36 202.18 Z" fill="#20f412" />
<path d="M 97.74 210.74 C 94.79 214.22 91.69 217.54 88.62 220.89 C 87.11 218.48 85.64 216.04 84.21 213.58 C 87.63 212.85 91.06 212.12 94.49 211.41 C 95.57 211.18 96.66 210.96 97.74 210.74 Z" fill="#12e3ec" />
<path d="M 186.58 218.30 C 198.65 227.27 209.95 236.92 224.96 240.37 C 231.03 241.94 236.27 240.49 242.29 239.90 C 220.90 263.63 187.51 275.96 155.84 272.05 C 136.64 269.92 118.88 262.56 103.77 250.55 C 132.68 243.42 160.65 233.01 186.58 218.30 Z" fill="#ec12b9" />
<path d="M 290.17 221.39 C 290.10 223.78 290.01 226.18 289.90 228.57 C 271.27 231.04 252.60 233.32 233.99 235.90 C 228.96 236.65 225.18 234.05 221.90 230.58 C 244.64 227.46 267.40 224.29 290.17 221.39 Z" fill="#ec12b9" />
<path d="M 185.92 228.89 C 195.83 235.85 205.40 243.32 215.19 250.46 C 196.90 261.75 174.19 266.43 152.98 262.66 C 143.52 261.21 134.16 258.35 125.65 253.96 C 143.74 248.70 161.29 241.73 177.99 232.99 C 180.63 231.62 183.22 230.13 185.92 228.89 Z" fill="#12e3ec" />
<path d="M 185.23 237.32 C 190.27 240.79 195.19 244.44 200.07 248.12 C 184.99 254.39 167.40 256.49 151.40 252.92 C 162.80 247.93 174.32 243.36 185.23 237.32 Z" fill="#20f412" />
</svg>